%TF.GenerationSoftware,KiCad,Pcbnew,8.0.9*%
%TF.CreationDate,2025-03-02T13:37:28+01:00*%
%TF.ProjectId,strobe,7374726f-6265-42e6-9b69-6361645f7063,rev?*%
%TF.SameCoordinates,Original*%
%TF.FileFunction,Drillmap*%
%TF.FilePolarity,Positive*%
%FSLAX45Y45*%
G04 Gerber Fmt 4.5, Leading zero omitted, Abs format (unit mm)*
G04 Created by KiCad (PCBNEW 8.0.9) date 2025-03-02 13:37:28*
%MOMM*%
%LPD*%
G01*
G04 APERTURE LIST*
%ADD10C,0.050000*%
%ADD11C,0.200000*%
G04 APERTURE END LIST*
D10*
X14732000Y-11430000D02*
X9525000Y-11430000D01*
X9525000Y-11430000D02*
G75*
G02*
X8763000Y-10668000I0J762000D01*
G01*
X14732000Y-11430000D02*
X15240000Y-10922000D01*
X8763000Y-10668000D02*
X8763000Y-9906000D01*
X15240000Y-9906000D02*
X15240000Y-10668000D01*
X15240000Y-10922000D02*
X15240000Y-10668000D01*
X9525000Y-9144000D02*
X14478000Y-9144000D01*
X14478000Y-9144000D02*
X15240000Y-9906000D01*
X8763000Y-9906000D02*
G75*
G02*
X9525000Y-9144000I762000J0D01*
G01*
D11*
X9021277Y-11743984D02*
X9021277Y-11543984D01*
X9021277Y-11543984D02*
X9068896Y-11543984D01*
X9068896Y-11543984D02*
X9097467Y-11553508D01*
X9097467Y-11553508D02*
X9116515Y-11572555D01*
X9116515Y-11572555D02*
X9126039Y-11591603D01*
X9126039Y-11591603D02*
X9135563Y-11629698D01*
X9135563Y-11629698D02*
X9135563Y-11658269D01*
X9135563Y-11658269D02*
X9126039Y-11696365D01*
X9126039Y-11696365D02*
X9116515Y-11715412D01*
X9116515Y-11715412D02*
X9097467Y-11734460D01*
X9097467Y-11734460D02*
X9068896Y-11743984D01*
X9068896Y-11743984D02*
X9021277Y-11743984D01*
X9221277Y-11743984D02*
X9221277Y-11610650D01*
X9221277Y-11648746D02*
X9230801Y-11629698D01*
X9230801Y-11629698D02*
X9240324Y-11620174D01*
X9240324Y-11620174D02*
X9259372Y-11610650D01*
X9259372Y-11610650D02*
X9278420Y-11610650D01*
X9345086Y-11743984D02*
X9345086Y-11610650D01*
X9345086Y-11543984D02*
X9335563Y-11553508D01*
X9335563Y-11553508D02*
X9345086Y-11563031D01*
X9345086Y-11563031D02*
X9354610Y-11553508D01*
X9354610Y-11553508D02*
X9345086Y-11543984D01*
X9345086Y-11543984D02*
X9345086Y-11563031D01*
X9468896Y-11743984D02*
X9449848Y-11734460D01*
X9449848Y-11734460D02*
X9440324Y-11715412D01*
X9440324Y-11715412D02*
X9440324Y-11543984D01*
X9573658Y-11743984D02*
X9554610Y-11734460D01*
X9554610Y-11734460D02*
X9545086Y-11715412D01*
X9545086Y-11715412D02*
X9545086Y-11543984D01*
X9802229Y-11743984D02*
X9802229Y-11543984D01*
X9802229Y-11543984D02*
X9868896Y-11686841D01*
X9868896Y-11686841D02*
X9935563Y-11543984D01*
X9935563Y-11543984D02*
X9935563Y-11743984D01*
X10116515Y-11743984D02*
X10116515Y-11639222D01*
X10116515Y-11639222D02*
X10106991Y-11620174D01*
X10106991Y-11620174D02*
X10087944Y-11610650D01*
X10087944Y-11610650D02*
X10049848Y-11610650D01*
X10049848Y-11610650D02*
X10030801Y-11620174D01*
X10116515Y-11734460D02*
X10097467Y-11743984D01*
X10097467Y-11743984D02*
X10049848Y-11743984D01*
X10049848Y-11743984D02*
X10030801Y-11734460D01*
X10030801Y-11734460D02*
X10021277Y-11715412D01*
X10021277Y-11715412D02*
X10021277Y-11696365D01*
X10021277Y-11696365D02*
X10030801Y-11677317D01*
X10030801Y-11677317D02*
X10049848Y-11667793D01*
X10049848Y-11667793D02*
X10097467Y-11667793D01*
X10097467Y-11667793D02*
X10116515Y-11658269D01*
X10211753Y-11610650D02*
X10211753Y-11810650D01*
X10211753Y-11620174D02*
X10230801Y-11610650D01*
X10230801Y-11610650D02*
X10268896Y-11610650D01*
X10268896Y-11610650D02*
X10287944Y-11620174D01*
X10287944Y-11620174D02*
X10297467Y-11629698D01*
X10297467Y-11629698D02*
X10306991Y-11648746D01*
X10306991Y-11648746D02*
X10306991Y-11705888D01*
X10306991Y-11705888D02*
X10297467Y-11724936D01*
X10297467Y-11724936D02*
X10287944Y-11734460D01*
X10287944Y-11734460D02*
X10268896Y-11743984D01*
X10268896Y-11743984D02*
X10230801Y-11743984D01*
X10230801Y-11743984D02*
X10211753Y-11734460D01*
X10392705Y-11724936D02*
X10402229Y-11734460D01*
X10402229Y-11734460D02*
X10392705Y-11743984D01*
X10392705Y-11743984D02*
X10383182Y-11734460D01*
X10383182Y-11734460D02*
X10392705Y-11724936D01*
X10392705Y-11724936D02*
X10392705Y-11743984D01*
X10392705Y-11620174D02*
X10402229Y-11629698D01*
X10402229Y-11629698D02*
X10392705Y-11639222D01*
X10392705Y-11639222D02*
X10383182Y-11629698D01*
X10383182Y-11629698D02*
X10392705Y-11620174D01*
X10392705Y-11620174D02*
X10392705Y-11639222D01*
M02*
