G04 #@! TF.GenerationSoftware,KiCad,Pcbnew,8.0.9*
G04 #@! TF.CreationDate,2025-03-02T13:36:19+01:00*
G04 #@! TF.ProjectId,strobe,7374726f-6265-42e6-9b69-6361645f7063,rev?*
G04 #@! TF.SameCoordinates,Original*
G04 #@! TF.FileFunction,Soldermask,Top*
G04 #@! TF.FilePolarity,Negative*
%FSLAX46Y46*%
G04 Gerber Fmt 4.6, Leading zero omitted, Abs format (unit mm)*
G04 Created by KiCad (PCBNEW 8.0.9) date 2025-03-02 13:36:19*
%MOMM*%
%LPD*%
G01*
G04 APERTURE LIST*
%ADD10R,1.600000X1.600000*%
%ADD11O,1.600000X1.600000*%
%ADD12R,1.050000X1.500000*%
%ADD13O,1.050000X1.500000*%
%ADD14C,2.000000*%
%ADD15R,1.800000X1.800000*%
%ADD16C,1.800000*%
%ADD17R,1.700000X1.700000*%
%ADD18O,1.700000X1.700000*%
%ADD19C,1.600000*%
%ADD20R,1.905000X2.000000*%
%ADD21O,1.905000X2.000000*%
G04 APERTURE END LIST*
D10*
X128270000Y-95250000D03*
D11*
X128270000Y-97790000D03*
X128270000Y-100330000D03*
X128270000Y-102870000D03*
X128270000Y-105410000D03*
X128270000Y-107950000D03*
X128270000Y-110490000D03*
X135890000Y-110490000D03*
X135890000Y-107950000D03*
X135890000Y-105410000D03*
X135890000Y-102870000D03*
X135890000Y-100330000D03*
X135890000Y-97790000D03*
X135890000Y-95250000D03*
D10*
X118110000Y-93980000D03*
D11*
X118110000Y-96520000D03*
X118110000Y-99060000D03*
X118110000Y-101600000D03*
X118110000Y-104140000D03*
X118110000Y-106680000D03*
X118110000Y-109220000D03*
X118110000Y-111760000D03*
X125730000Y-111760000D03*
X125730000Y-109220000D03*
X125730000Y-106680000D03*
X125730000Y-104140000D03*
X125730000Y-101600000D03*
X125730000Y-99060000D03*
X125730000Y-96520000D03*
X125730000Y-93980000D03*
D12*
X142240000Y-95250000D03*
D13*
X143510000Y-95250000D03*
X144780000Y-95250000D03*
D10*
X107950000Y-93980000D03*
D11*
X107950000Y-96520000D03*
X107950000Y-99060000D03*
X107950000Y-101600000D03*
X107950000Y-104140000D03*
X107950000Y-106680000D03*
X107950000Y-109220000D03*
X107950000Y-111760000D03*
X115570000Y-111760000D03*
X115570000Y-109220000D03*
X115570000Y-106680000D03*
X115570000Y-104140000D03*
X115570000Y-101600000D03*
X115570000Y-99060000D03*
X115570000Y-96520000D03*
X115570000Y-93980000D03*
D14*
X140260000Y-104430000D03*
X146760000Y-104430000D03*
X140260000Y-108930000D03*
X146760000Y-108930000D03*
D15*
X151130000Y-105390000D03*
D16*
X151130000Y-102850000D03*
D17*
X90170000Y-100330000D03*
D18*
X90170000Y-97790000D03*
D19*
X138430000Y-100330000D03*
D11*
X148590000Y-100330000D03*
D10*
X95250000Y-95250000D03*
D19*
X95250000Y-110490000D03*
X102870000Y-110490000D03*
X102870000Y-95250000D03*
X90170000Y-104220000D03*
X90170000Y-109220000D03*
D20*
X140970000Y-113030000D03*
D21*
X143510000Y-113030000D03*
X146050000Y-113030000D03*
M02*
