G04 #@! TF.GenerationSoftware,KiCad,Pcbnew,8.0.9*
G04 #@! TF.CreationDate,2025-03-02T13:36:19+01:00*
G04 #@! TF.ProjectId,strobe,7374726f-6265-42e6-9b69-6361645f7063,rev?*
G04 #@! TF.SameCoordinates,Original*
G04 #@! TF.FileFunction,Legend,Bot*
G04 #@! TF.FilePolarity,Positive*
%FSLAX46Y46*%
G04 Gerber Fmt 4.6, Leading zero omitted, Abs format (unit mm)*
G04 Created by KiCad (PCBNEW 8.0.9) date 2025-03-02 13:36:19*
%MOMM*%
%LPD*%
G01*
G04 APERTURE LIST*
%ADD10C,0.150000*%
%ADD11C,0.100000*%
%ADD12C,0.400000*%
%ADD13C,0.120000*%
%ADD14R,1.600000X1.600000*%
%ADD15O,1.600000X1.600000*%
%ADD16R,1.050000X1.500000*%
%ADD17O,1.050000X1.500000*%
%ADD18C,2.000000*%
%ADD19R,1.800000X1.800000*%
%ADD20C,1.800000*%
%ADD21R,1.700000X1.700000*%
%ADD22O,1.700000X1.700000*%
%ADD23C,1.600000*%
%ADD24R,1.905000X2.000000*%
%ADD25O,1.905000X2.000000*%
G04 APERTURE END LIST*
D10*
X145808458Y-110629819D02*
X145141792Y-110629819D01*
X145141792Y-110629819D02*
X145570363Y-111629819D01*
X144713220Y-111629819D02*
X144522744Y-111629819D01*
X144522744Y-111629819D02*
X144427506Y-111582200D01*
X144427506Y-111582200D02*
X144379887Y-111534580D01*
X144379887Y-111534580D02*
X144284649Y-111391723D01*
X144284649Y-111391723D02*
X144237030Y-111201247D01*
X144237030Y-111201247D02*
X144237030Y-110820295D01*
X144237030Y-110820295D02*
X144284649Y-110725057D01*
X144284649Y-110725057D02*
X144332268Y-110677438D01*
X144332268Y-110677438D02*
X144427506Y-110629819D01*
X144427506Y-110629819D02*
X144617982Y-110629819D01*
X144617982Y-110629819D02*
X144713220Y-110677438D01*
X144713220Y-110677438D02*
X144760839Y-110725057D01*
X144760839Y-110725057D02*
X144808458Y-110820295D01*
X144808458Y-110820295D02*
X144808458Y-111058390D01*
X144808458Y-111058390D02*
X144760839Y-111153628D01*
X144760839Y-111153628D02*
X144713220Y-111201247D01*
X144713220Y-111201247D02*
X144617982Y-111248866D01*
X144617982Y-111248866D02*
X144427506Y-111248866D01*
X144427506Y-111248866D02*
X144332268Y-111201247D01*
X144332268Y-111201247D02*
X144284649Y-111153628D01*
X144284649Y-111153628D02*
X144237030Y-111058390D01*
X143808458Y-111629819D02*
X143808458Y-110629819D01*
X143808458Y-110629819D02*
X143475125Y-111344104D01*
X143475125Y-111344104D02*
X143141792Y-110629819D01*
X143141792Y-110629819D02*
X143141792Y-111629819D01*
X142475125Y-110629819D02*
X142379887Y-110629819D01*
X142379887Y-110629819D02*
X142284649Y-110677438D01*
X142284649Y-110677438D02*
X142237030Y-110725057D01*
X142237030Y-110725057D02*
X142189411Y-110820295D01*
X142189411Y-110820295D02*
X142141792Y-111010771D01*
X142141792Y-111010771D02*
X142141792Y-111248866D01*
X142141792Y-111248866D02*
X142189411Y-111439342D01*
X142189411Y-111439342D02*
X142237030Y-111534580D01*
X142237030Y-111534580D02*
X142284649Y-111582200D01*
X142284649Y-111582200D02*
X142379887Y-111629819D01*
X142379887Y-111629819D02*
X142475125Y-111629819D01*
X142475125Y-111629819D02*
X142570363Y-111582200D01*
X142570363Y-111582200D02*
X142617982Y-111534580D01*
X142617982Y-111534580D02*
X142665601Y-111439342D01*
X142665601Y-111439342D02*
X142713220Y-111248866D01*
X142713220Y-111248866D02*
X142713220Y-111010771D01*
X142713220Y-111010771D02*
X142665601Y-110820295D01*
X142665601Y-110820295D02*
X142617982Y-110725057D01*
X142617982Y-110725057D02*
X142570363Y-110677438D01*
X142570363Y-110677438D02*
X142475125Y-110629819D01*
X141237030Y-110629819D02*
X141713220Y-110629819D01*
X141713220Y-110629819D02*
X141760839Y-111106009D01*
X141760839Y-111106009D02*
X141713220Y-111058390D01*
X141713220Y-111058390D02*
X141617982Y-111010771D01*
X141617982Y-111010771D02*
X141379887Y-111010771D01*
X141379887Y-111010771D02*
X141284649Y-111058390D01*
X141284649Y-111058390D02*
X141237030Y-111106009D01*
X141237030Y-111106009D02*
X141189411Y-111201247D01*
X141189411Y-111201247D02*
X141189411Y-111439342D01*
X141189411Y-111439342D02*
X141237030Y-111534580D01*
X141237030Y-111534580D02*
X141284649Y-111582200D01*
X141284649Y-111582200D02*
X141379887Y-111629819D01*
X141379887Y-111629819D02*
X141617982Y-111629819D01*
X141617982Y-111629819D02*
X141713220Y-111582200D01*
X141713220Y-111582200D02*
X141760839Y-111534580D01*
D11*
X103423353Y-97630752D02*
X103185258Y-98297419D01*
X103185258Y-98297419D02*
X102947163Y-97630752D01*
X102042401Y-98297419D02*
X102613829Y-98297419D01*
X102328115Y-98297419D02*
X102328115Y-97297419D01*
X102328115Y-97297419D02*
X102423353Y-97440276D01*
X102423353Y-97440276D02*
X102518591Y-97535514D01*
X102518591Y-97535514D02*
X102613829Y-97583133D01*
X100137638Y-97392657D02*
X100090019Y-97345038D01*
X100090019Y-97345038D02*
X99994781Y-97297419D01*
X99994781Y-97297419D02*
X99756686Y-97297419D01*
X99756686Y-97297419D02*
X99661448Y-97345038D01*
X99661448Y-97345038D02*
X99613829Y-97392657D01*
X99613829Y-97392657D02*
X99566210Y-97487895D01*
X99566210Y-97487895D02*
X99566210Y-97583133D01*
X99566210Y-97583133D02*
X99613829Y-97725990D01*
X99613829Y-97725990D02*
X100185257Y-98297419D01*
X100185257Y-98297419D02*
X99566210Y-98297419D01*
X98947162Y-97297419D02*
X98851924Y-97297419D01*
X98851924Y-97297419D02*
X98756686Y-97345038D01*
X98756686Y-97345038D02*
X98709067Y-97392657D01*
X98709067Y-97392657D02*
X98661448Y-97487895D01*
X98661448Y-97487895D02*
X98613829Y-97678371D01*
X98613829Y-97678371D02*
X98613829Y-97916466D01*
X98613829Y-97916466D02*
X98661448Y-98106942D01*
X98661448Y-98106942D02*
X98709067Y-98202180D01*
X98709067Y-98202180D02*
X98756686Y-98249800D01*
X98756686Y-98249800D02*
X98851924Y-98297419D01*
X98851924Y-98297419D02*
X98947162Y-98297419D01*
X98947162Y-98297419D02*
X99042400Y-98249800D01*
X99042400Y-98249800D02*
X99090019Y-98202180D01*
X99090019Y-98202180D02*
X99137638Y-98106942D01*
X99137638Y-98106942D02*
X99185257Y-97916466D01*
X99185257Y-97916466D02*
X99185257Y-97678371D01*
X99185257Y-97678371D02*
X99137638Y-97487895D01*
X99137638Y-97487895D02*
X99090019Y-97392657D01*
X99090019Y-97392657D02*
X99042400Y-97345038D01*
X99042400Y-97345038D02*
X98947162Y-97297419D01*
X98232876Y-97392657D02*
X98185257Y-97345038D01*
X98185257Y-97345038D02*
X98090019Y-97297419D01*
X98090019Y-97297419D02*
X97851924Y-97297419D01*
X97851924Y-97297419D02*
X97756686Y-97345038D01*
X97756686Y-97345038D02*
X97709067Y-97392657D01*
X97709067Y-97392657D02*
X97661448Y-97487895D01*
X97661448Y-97487895D02*
X97661448Y-97583133D01*
X97661448Y-97583133D02*
X97709067Y-97725990D01*
X97709067Y-97725990D02*
X98280495Y-98297419D01*
X98280495Y-98297419D02*
X97661448Y-98297419D01*
X96756686Y-97297419D02*
X97232876Y-97297419D01*
X97232876Y-97297419D02*
X97280495Y-97773609D01*
X97280495Y-97773609D02*
X97232876Y-97725990D01*
X97232876Y-97725990D02*
X97137638Y-97678371D01*
X97137638Y-97678371D02*
X96899543Y-97678371D01*
X96899543Y-97678371D02*
X96804305Y-97725990D01*
X96804305Y-97725990D02*
X96756686Y-97773609D01*
X96756686Y-97773609D02*
X96709067Y-97868847D01*
X96709067Y-97868847D02*
X96709067Y-98106942D01*
X96709067Y-98106942D02*
X96756686Y-98202180D01*
X96756686Y-98202180D02*
X96804305Y-98249800D01*
X96804305Y-98249800D02*
X96899543Y-98297419D01*
X96899543Y-98297419D02*
X97137638Y-98297419D01*
X97137638Y-98297419D02*
X97232876Y-98249800D01*
X97232876Y-98249800D02*
X97280495Y-98202180D01*
X96137638Y-97868847D02*
X96185257Y-97916466D01*
X96185257Y-97916466D02*
X96137638Y-97964085D01*
X96137638Y-97964085D02*
X96090019Y-97916466D01*
X96090019Y-97916466D02*
X96137638Y-97868847D01*
X96137638Y-97868847D02*
X96137638Y-97964085D01*
X95613828Y-97297419D02*
X94994781Y-97297419D01*
X94994781Y-97297419D02*
X95328114Y-97678371D01*
X95328114Y-97678371D02*
X95185257Y-97678371D01*
X95185257Y-97678371D02*
X95090019Y-97725990D01*
X95090019Y-97725990D02*
X95042400Y-97773609D01*
X95042400Y-97773609D02*
X94994781Y-97868847D01*
X94994781Y-97868847D02*
X94994781Y-98106942D01*
X94994781Y-98106942D02*
X95042400Y-98202180D01*
X95042400Y-98202180D02*
X95090019Y-98249800D01*
X95090019Y-98249800D02*
X95185257Y-98297419D01*
X95185257Y-98297419D02*
X95470971Y-98297419D01*
X95470971Y-98297419D02*
X95566209Y-98249800D01*
X95566209Y-98249800D02*
X95613828Y-98202180D01*
D12*
X130951843Y-100365200D02*
X131951843Y-100365200D01*
X131951843Y-100365200D02*
X132051843Y-101365200D01*
X132051843Y-101365200D02*
X131951843Y-101265200D01*
X131951843Y-101265200D02*
X131751843Y-101165200D01*
X131751843Y-101165200D02*
X131251843Y-101165200D01*
X131251843Y-101165200D02*
X131051843Y-101265200D01*
X131051843Y-101265200D02*
X130951843Y-101365200D01*
X130951843Y-101365200D02*
X130851843Y-101565200D01*
X130851843Y-101565200D02*
X130851843Y-102065200D01*
X130851843Y-102065200D02*
X130951843Y-102265200D01*
X130951843Y-102265200D02*
X131051843Y-102365200D01*
X131051843Y-102365200D02*
X131251843Y-102465200D01*
X131251843Y-102465200D02*
X131751843Y-102465200D01*
X131751843Y-102465200D02*
X131951843Y-102365200D01*
X131951843Y-102365200D02*
X132051843Y-102265200D01*
X129551843Y-100365200D02*
X129351843Y-100365200D01*
X129351843Y-100365200D02*
X129151843Y-100465200D01*
X129151843Y-100465200D02*
X129051843Y-100565200D01*
X129051843Y-100565200D02*
X128951843Y-100765200D01*
X128951843Y-100765200D02*
X128851843Y-101165200D01*
X128851843Y-101165200D02*
X128851843Y-101665200D01*
X128851843Y-101665200D02*
X128951843Y-102065200D01*
X128951843Y-102065200D02*
X129051843Y-102265200D01*
X129051843Y-102265200D02*
X129151843Y-102365200D01*
X129151843Y-102365200D02*
X129351843Y-102465200D01*
X129351843Y-102465200D02*
X129551843Y-102465200D01*
X129551843Y-102465200D02*
X129751843Y-102365200D01*
X129751843Y-102365200D02*
X129851843Y-102265200D01*
X129851843Y-102265200D02*
X129951843Y-102065200D01*
X129951843Y-102065200D02*
X130051843Y-101665200D01*
X130051843Y-101665200D02*
X130051843Y-101165200D01*
X130051843Y-101165200D02*
X129951843Y-100765200D01*
X129951843Y-100765200D02*
X129851843Y-100565200D01*
X129851843Y-100565200D02*
X129751843Y-100465200D01*
X129751843Y-100465200D02*
X129551843Y-100365200D01*
X124751843Y-102465200D02*
X124751843Y-100365200D01*
X124751843Y-101365200D02*
X123551843Y-101365200D01*
X123551843Y-102465200D02*
X123551843Y-100365200D01*
X122751843Y-101065200D02*
X121651843Y-101065200D01*
X121651843Y-101065200D02*
X122751843Y-102465200D01*
X122751843Y-102465200D02*
X121651843Y-102465200D01*
X112951843Y-102365200D02*
X112651843Y-102465200D01*
X112651843Y-102465200D02*
X112151843Y-102465200D01*
X112151843Y-102465200D02*
X111951843Y-102365200D01*
X111951843Y-102365200D02*
X111851843Y-102265200D01*
X111851843Y-102265200D02*
X111751843Y-102065200D01*
X111751843Y-102065200D02*
X111751843Y-101865200D01*
X111751843Y-101865200D02*
X111851843Y-101665200D01*
X111851843Y-101665200D02*
X111951843Y-101565200D01*
X111951843Y-101565200D02*
X112151843Y-101465200D01*
X112151843Y-101465200D02*
X112551843Y-101365200D01*
X112551843Y-101365200D02*
X112751843Y-101265200D01*
X112751843Y-101265200D02*
X112851843Y-101165200D01*
X112851843Y-101165200D02*
X112951843Y-100965200D01*
X112951843Y-100965200D02*
X112951843Y-100765200D01*
X112951843Y-100765200D02*
X112851843Y-100565200D01*
X112851843Y-100565200D02*
X112751843Y-100465200D01*
X112751843Y-100465200D02*
X112551843Y-100365200D01*
X112551843Y-100365200D02*
X112051843Y-100365200D01*
X112051843Y-100365200D02*
X111751843Y-100465200D01*
X111151843Y-101065200D02*
X110351843Y-101065200D01*
X110851843Y-100365200D02*
X110851843Y-102165200D01*
X110851843Y-102165200D02*
X110751843Y-102365200D01*
X110751843Y-102365200D02*
X110551843Y-102465200D01*
X110551843Y-102465200D02*
X110351843Y-102465200D01*
X109651843Y-102465200D02*
X109651843Y-101065200D01*
X109651843Y-101465200D02*
X109551843Y-101265200D01*
X109551843Y-101265200D02*
X109451843Y-101165200D01*
X109451843Y-101165200D02*
X109251843Y-101065200D01*
X109251843Y-101065200D02*
X109051843Y-101065200D01*
X108051843Y-102465200D02*
X108251843Y-102365200D01*
X108251843Y-102365200D02*
X108351843Y-102265200D01*
X108351843Y-102265200D02*
X108451843Y-102065200D01*
X108451843Y-102065200D02*
X108451843Y-101465200D01*
X108451843Y-101465200D02*
X108351843Y-101265200D01*
X108351843Y-101265200D02*
X108251843Y-101165200D01*
X108251843Y-101165200D02*
X108051843Y-101065200D01*
X108051843Y-101065200D02*
X107751843Y-101065200D01*
X107751843Y-101065200D02*
X107551843Y-101165200D01*
X107551843Y-101165200D02*
X107451843Y-101265200D01*
X107451843Y-101265200D02*
X107351843Y-101465200D01*
X107351843Y-101465200D02*
X107351843Y-102065200D01*
X107351843Y-102065200D02*
X107451843Y-102265200D01*
X107451843Y-102265200D02*
X107551843Y-102365200D01*
X107551843Y-102365200D02*
X107751843Y-102465200D01*
X107751843Y-102465200D02*
X108051843Y-102465200D01*
X106451843Y-102465200D02*
X106451843Y-100365200D01*
X106451843Y-101165200D02*
X106251843Y-101065200D01*
X106251843Y-101065200D02*
X105851843Y-101065200D01*
X105851843Y-101065200D02*
X105651843Y-101165200D01*
X105651843Y-101165200D02*
X105551843Y-101265200D01*
X105551843Y-101265200D02*
X105451843Y-101465200D01*
X105451843Y-101465200D02*
X105451843Y-102065200D01*
X105451843Y-102065200D02*
X105551843Y-102265200D01*
X105551843Y-102265200D02*
X105651843Y-102365200D01*
X105651843Y-102365200D02*
X105851843Y-102465200D01*
X105851843Y-102465200D02*
X106251843Y-102465200D01*
X106251843Y-102465200D02*
X106451843Y-102365200D01*
X104251843Y-102465200D02*
X104451843Y-102365200D01*
X104451843Y-102365200D02*
X104551843Y-102265200D01*
X104551843Y-102265200D02*
X104651843Y-102065200D01*
X104651843Y-102065200D02*
X104651843Y-101465200D01*
X104651843Y-101465200D02*
X104551843Y-101265200D01*
X104551843Y-101265200D02*
X104451843Y-101165200D01*
X104451843Y-101165200D02*
X104251843Y-101065200D01*
X104251843Y-101065200D02*
X103951843Y-101065200D01*
X103951843Y-101065200D02*
X103751843Y-101165200D01*
X103751843Y-101165200D02*
X103651843Y-101265200D01*
X103651843Y-101265200D02*
X103551843Y-101465200D01*
X103551843Y-101465200D02*
X103551843Y-102065200D01*
X103551843Y-102065200D02*
X103651843Y-102265200D01*
X103651843Y-102265200D02*
X103751843Y-102365200D01*
X103751843Y-102365200D02*
X103951843Y-102465200D01*
X103951843Y-102465200D02*
X104251843Y-102465200D01*
X102751843Y-102365200D02*
X102551843Y-102465200D01*
X102551843Y-102465200D02*
X102151843Y-102465200D01*
X102151843Y-102465200D02*
X101951843Y-102365200D01*
X101951843Y-102365200D02*
X101851843Y-102165200D01*
X101851843Y-102165200D02*
X101851843Y-102065200D01*
X101851843Y-102065200D02*
X101951843Y-101865200D01*
X101951843Y-101865200D02*
X102151843Y-101765200D01*
X102151843Y-101765200D02*
X102451843Y-101765200D01*
X102451843Y-101765200D02*
X102651843Y-101665200D01*
X102651843Y-101665200D02*
X102751843Y-101465200D01*
X102751843Y-101465200D02*
X102751843Y-101365200D01*
X102751843Y-101365200D02*
X102651843Y-101165200D01*
X102651843Y-101165200D02*
X102451843Y-101065200D01*
X102451843Y-101065200D02*
X102151843Y-101065200D01*
X102151843Y-101065200D02*
X101951843Y-101165200D01*
X100051843Y-102365200D02*
X100251843Y-102465200D01*
X100251843Y-102465200D02*
X100651843Y-102465200D01*
X100651843Y-102465200D02*
X100851843Y-102365200D01*
X100851843Y-102365200D02*
X100951843Y-102265200D01*
X100951843Y-102265200D02*
X101051843Y-102065200D01*
X101051843Y-102065200D02*
X101051843Y-101465200D01*
X101051843Y-101465200D02*
X100951843Y-101265200D01*
X100951843Y-101265200D02*
X100851843Y-101165200D01*
X100851843Y-101165200D02*
X100651843Y-101065200D01*
X100651843Y-101065200D02*
X100251843Y-101065200D01*
X100251843Y-101065200D02*
X100051843Y-101165200D01*
X98851843Y-102465200D02*
X99051843Y-102365200D01*
X99051843Y-102365200D02*
X99151843Y-102265200D01*
X99151843Y-102265200D02*
X99251843Y-102065200D01*
X99251843Y-102065200D02*
X99251843Y-101465200D01*
X99251843Y-101465200D02*
X99151843Y-101265200D01*
X99151843Y-101265200D02*
X99051843Y-101165200D01*
X99051843Y-101165200D02*
X98851843Y-101065200D01*
X98851843Y-101065200D02*
X98551843Y-101065200D01*
X98551843Y-101065200D02*
X98351843Y-101165200D01*
X98351843Y-101165200D02*
X98251843Y-101265200D01*
X98251843Y-101265200D02*
X98151843Y-101465200D01*
X98151843Y-101465200D02*
X98151843Y-102065200D01*
X98151843Y-102065200D02*
X98251843Y-102265200D01*
X98251843Y-102265200D02*
X98351843Y-102365200D01*
X98351843Y-102365200D02*
X98551843Y-102465200D01*
X98551843Y-102465200D02*
X98851843Y-102465200D01*
X97251843Y-101065200D02*
X97251843Y-103165200D01*
X97251843Y-101165200D02*
X97051843Y-101065200D01*
X97051843Y-101065200D02*
X96651843Y-101065200D01*
X96651843Y-101065200D02*
X96451843Y-101165200D01*
X96451843Y-101165200D02*
X96351843Y-101265200D01*
X96351843Y-101265200D02*
X96251843Y-101465200D01*
X96251843Y-101465200D02*
X96251843Y-102065200D01*
X96251843Y-102065200D02*
X96351843Y-102265200D01*
X96351843Y-102265200D02*
X96451843Y-102365200D01*
X96451843Y-102365200D02*
X96651843Y-102465200D01*
X96651843Y-102465200D02*
X97051843Y-102465200D01*
X97051843Y-102465200D02*
X97251843Y-102365200D01*
X94551843Y-102365200D02*
X94751843Y-102465200D01*
X94751843Y-102465200D02*
X95151843Y-102465200D01*
X95151843Y-102465200D02*
X95351843Y-102365200D01*
X95351843Y-102365200D02*
X95451843Y-102165200D01*
X95451843Y-102165200D02*
X95451843Y-101365200D01*
X95451843Y-101365200D02*
X95351843Y-101165200D01*
X95351843Y-101165200D02*
X95151843Y-101065200D01*
X95151843Y-101065200D02*
X94751843Y-101065200D01*
X94751843Y-101065200D02*
X94551843Y-101165200D01*
X94551843Y-101165200D02*
X94451843Y-101365200D01*
X94451843Y-101365200D02*
X94451843Y-101565200D01*
X94451843Y-101565200D02*
X95451843Y-101765200D01*
D11*
X103677401Y-106441419D02*
X103677401Y-107155704D01*
X103677401Y-107155704D02*
X103725020Y-107298561D01*
X103725020Y-107298561D02*
X103820258Y-107393800D01*
X103820258Y-107393800D02*
X103963115Y-107441419D01*
X103963115Y-107441419D02*
X104058353Y-107441419D01*
X102725020Y-107441419D02*
X103201210Y-107441419D01*
X103201210Y-107441419D02*
X103201210Y-106441419D01*
X101820258Y-107346180D02*
X101867877Y-107393800D01*
X101867877Y-107393800D02*
X102010734Y-107441419D01*
X102010734Y-107441419D02*
X102105972Y-107441419D01*
X102105972Y-107441419D02*
X102248829Y-107393800D01*
X102248829Y-107393800D02*
X102344067Y-107298561D01*
X102344067Y-107298561D02*
X102391686Y-107203323D01*
X102391686Y-107203323D02*
X102439305Y-107012847D01*
X102439305Y-107012847D02*
X102439305Y-106869990D01*
X102439305Y-106869990D02*
X102391686Y-106679514D01*
X102391686Y-106679514D02*
X102344067Y-106584276D01*
X102344067Y-106584276D02*
X102248829Y-106489038D01*
X102248829Y-106489038D02*
X102105972Y-106441419D01*
X102105972Y-106441419D02*
X102010734Y-106441419D01*
X102010734Y-106441419D02*
X101867877Y-106489038D01*
X101867877Y-106489038D02*
X101820258Y-106536657D01*
X101105972Y-106441419D02*
X101105972Y-107155704D01*
X101105972Y-107155704D02*
X101153591Y-107298561D01*
X101153591Y-107298561D02*
X101248829Y-107393800D01*
X101248829Y-107393800D02*
X101391686Y-107441419D01*
X101391686Y-107441419D02*
X101486924Y-107441419D01*
X100153591Y-107441419D02*
X100629781Y-107441419D01*
X100629781Y-107441419D02*
X100629781Y-106441419D01*
X99248829Y-107346180D02*
X99296448Y-107393800D01*
X99296448Y-107393800D02*
X99439305Y-107441419D01*
X99439305Y-107441419D02*
X99534543Y-107441419D01*
X99534543Y-107441419D02*
X99677400Y-107393800D01*
X99677400Y-107393800D02*
X99772638Y-107298561D01*
X99772638Y-107298561D02*
X99820257Y-107203323D01*
X99820257Y-107203323D02*
X99867876Y-107012847D01*
X99867876Y-107012847D02*
X99867876Y-106869990D01*
X99867876Y-106869990D02*
X99820257Y-106679514D01*
X99820257Y-106679514D02*
X99772638Y-106584276D01*
X99772638Y-106584276D02*
X99677400Y-106489038D01*
X99677400Y-106489038D02*
X99534543Y-106441419D01*
X99534543Y-106441419D02*
X99439305Y-106441419D01*
X99439305Y-106441419D02*
X99296448Y-106489038D01*
X99296448Y-106489038D02*
X99248829Y-106536657D01*
X98534543Y-106441419D02*
X98534543Y-107155704D01*
X98534543Y-107155704D02*
X98582162Y-107298561D01*
X98582162Y-107298561D02*
X98677400Y-107393800D01*
X98677400Y-107393800D02*
X98820257Y-107441419D01*
X98820257Y-107441419D02*
X98915495Y-107441419D01*
X97582162Y-107441419D02*
X98058352Y-107441419D01*
X98058352Y-107441419D02*
X98058352Y-106441419D01*
X96677400Y-107346180D02*
X96725019Y-107393800D01*
X96725019Y-107393800D02*
X96867876Y-107441419D01*
X96867876Y-107441419D02*
X96963114Y-107441419D01*
X96963114Y-107441419D02*
X97105971Y-107393800D01*
X97105971Y-107393800D02*
X97201209Y-107298561D01*
X97201209Y-107298561D02*
X97248828Y-107203323D01*
X97248828Y-107203323D02*
X97296447Y-107012847D01*
X97296447Y-107012847D02*
X97296447Y-106869990D01*
X97296447Y-106869990D02*
X97248828Y-106679514D01*
X97248828Y-106679514D02*
X97201209Y-106584276D01*
X97201209Y-106584276D02*
X97105971Y-106489038D01*
X97105971Y-106489038D02*
X96963114Y-106441419D01*
X96963114Y-106441419D02*
X96867876Y-106441419D01*
X96867876Y-106441419D02*
X96725019Y-106489038D01*
X96725019Y-106489038D02*
X96677400Y-106536657D01*
X95963114Y-106441419D02*
X95963114Y-107155704D01*
X95963114Y-107155704D02*
X96010733Y-107298561D01*
X96010733Y-107298561D02*
X96105971Y-107393800D01*
X96105971Y-107393800D02*
X96248828Y-107441419D01*
X96248828Y-107441419D02*
X96344066Y-107441419D01*
X95010733Y-107441419D02*
X95486923Y-107441419D01*
X95486923Y-107441419D02*
X95486923Y-106441419D01*
X94105971Y-107346180D02*
X94153590Y-107393800D01*
X94153590Y-107393800D02*
X94296447Y-107441419D01*
X94296447Y-107441419D02*
X94391685Y-107441419D01*
X94391685Y-107441419D02*
X94534542Y-107393800D01*
X94534542Y-107393800D02*
X94629780Y-107298561D01*
X94629780Y-107298561D02*
X94677399Y-107203323D01*
X94677399Y-107203323D02*
X94725018Y-107012847D01*
X94725018Y-107012847D02*
X94725018Y-106869990D01*
X94725018Y-106869990D02*
X94677399Y-106679514D01*
X94677399Y-106679514D02*
X94629780Y-106584276D01*
X94629780Y-106584276D02*
X94534542Y-106489038D01*
X94534542Y-106489038D02*
X94391685Y-106441419D01*
X94391685Y-106441419D02*
X94296447Y-106441419D01*
X94296447Y-106441419D02*
X94153590Y-106489038D01*
X94153590Y-106489038D02*
X94105971Y-106536657D01*
D10*
X132841904Y-94704819D02*
X132841904Y-95514342D01*
X132841904Y-95514342D02*
X132794285Y-95609580D01*
X132794285Y-95609580D02*
X132746666Y-95657200D01*
X132746666Y-95657200D02*
X132651428Y-95704819D01*
X132651428Y-95704819D02*
X132460952Y-95704819D01*
X132460952Y-95704819D02*
X132365714Y-95657200D01*
X132365714Y-95657200D02*
X132318095Y-95609580D01*
X132318095Y-95609580D02*
X132270476Y-95514342D01*
X132270476Y-95514342D02*
X132270476Y-94704819D01*
X131889523Y-94704819D02*
X131270476Y-94704819D01*
X131270476Y-94704819D02*
X131603809Y-95085771D01*
X131603809Y-95085771D02*
X131460952Y-95085771D01*
X131460952Y-95085771D02*
X131365714Y-95133390D01*
X131365714Y-95133390D02*
X131318095Y-95181009D01*
X131318095Y-95181009D02*
X131270476Y-95276247D01*
X131270476Y-95276247D02*
X131270476Y-95514342D01*
X131270476Y-95514342D02*
X131318095Y-95609580D01*
X131318095Y-95609580D02*
X131365714Y-95657200D01*
X131365714Y-95657200D02*
X131460952Y-95704819D01*
X131460952Y-95704819D02*
X131746666Y-95704819D01*
X131746666Y-95704819D02*
X131841904Y-95657200D01*
X131841904Y-95657200D02*
X131889523Y-95609580D01*
X122681904Y-93434819D02*
X122681904Y-94244342D01*
X122681904Y-94244342D02*
X122634285Y-94339580D01*
X122634285Y-94339580D02*
X122586666Y-94387200D01*
X122586666Y-94387200D02*
X122491428Y-94434819D01*
X122491428Y-94434819D02*
X122300952Y-94434819D01*
X122300952Y-94434819D02*
X122205714Y-94387200D01*
X122205714Y-94387200D02*
X122158095Y-94339580D01*
X122158095Y-94339580D02*
X122110476Y-94244342D01*
X122110476Y-94244342D02*
X122110476Y-93434819D01*
X121681904Y-93530057D02*
X121634285Y-93482438D01*
X121634285Y-93482438D02*
X121539047Y-93434819D01*
X121539047Y-93434819D02*
X121300952Y-93434819D01*
X121300952Y-93434819D02*
X121205714Y-93482438D01*
X121205714Y-93482438D02*
X121158095Y-93530057D01*
X121158095Y-93530057D02*
X121110476Y-93625295D01*
X121110476Y-93625295D02*
X121110476Y-93720533D01*
X121110476Y-93720533D02*
X121158095Y-93863390D01*
X121158095Y-93863390D02*
X121729523Y-94434819D01*
X121729523Y-94434819D02*
X121110476Y-94434819D01*
X143605238Y-93895057D02*
X143700476Y-93847438D01*
X143700476Y-93847438D02*
X143795714Y-93752200D01*
X143795714Y-93752200D02*
X143938571Y-93609342D01*
X143938571Y-93609342D02*
X144033809Y-93561723D01*
X144033809Y-93561723D02*
X144129047Y-93561723D01*
X144081428Y-93799819D02*
X144176666Y-93752200D01*
X144176666Y-93752200D02*
X144271904Y-93656961D01*
X144271904Y-93656961D02*
X144319523Y-93466485D01*
X144319523Y-93466485D02*
X144319523Y-93133152D01*
X144319523Y-93133152D02*
X144271904Y-92942676D01*
X144271904Y-92942676D02*
X144176666Y-92847438D01*
X144176666Y-92847438D02*
X144081428Y-92799819D01*
X144081428Y-92799819D02*
X143890952Y-92799819D01*
X143890952Y-92799819D02*
X143795714Y-92847438D01*
X143795714Y-92847438D02*
X143700476Y-92942676D01*
X143700476Y-92942676D02*
X143652857Y-93133152D01*
X143652857Y-93133152D02*
X143652857Y-93466485D01*
X143652857Y-93466485D02*
X143700476Y-93656961D01*
X143700476Y-93656961D02*
X143795714Y-93752200D01*
X143795714Y-93752200D02*
X143890952Y-93799819D01*
X143890952Y-93799819D02*
X144081428Y-93799819D01*
X142700476Y-93799819D02*
X143271904Y-93799819D01*
X142986190Y-93799819D02*
X142986190Y-92799819D01*
X142986190Y-92799819D02*
X143081428Y-92942676D01*
X143081428Y-92942676D02*
X143176666Y-93037914D01*
X143176666Y-93037914D02*
X143271904Y-93085533D01*
X112521904Y-93434819D02*
X112521904Y-94244342D01*
X112521904Y-94244342D02*
X112474285Y-94339580D01*
X112474285Y-94339580D02*
X112426666Y-94387200D01*
X112426666Y-94387200D02*
X112331428Y-94434819D01*
X112331428Y-94434819D02*
X112140952Y-94434819D01*
X112140952Y-94434819D02*
X112045714Y-94387200D01*
X112045714Y-94387200D02*
X111998095Y-94339580D01*
X111998095Y-94339580D02*
X111950476Y-94244342D01*
X111950476Y-94244342D02*
X111950476Y-93434819D01*
X110950476Y-94434819D02*
X111521904Y-94434819D01*
X111236190Y-94434819D02*
X111236190Y-93434819D01*
X111236190Y-93434819D02*
X111331428Y-93577676D01*
X111331428Y-93577676D02*
X111426666Y-93672914D01*
X111426666Y-93672914D02*
X111521904Y-93720533D01*
X144843332Y-107087200D02*
X144700475Y-107134819D01*
X144700475Y-107134819D02*
X144462380Y-107134819D01*
X144462380Y-107134819D02*
X144367142Y-107087200D01*
X144367142Y-107087200D02*
X144319523Y-107039580D01*
X144319523Y-107039580D02*
X144271904Y-106944342D01*
X144271904Y-106944342D02*
X144271904Y-106849104D01*
X144271904Y-106849104D02*
X144319523Y-106753866D01*
X144319523Y-106753866D02*
X144367142Y-106706247D01*
X144367142Y-106706247D02*
X144462380Y-106658628D01*
X144462380Y-106658628D02*
X144652856Y-106611009D01*
X144652856Y-106611009D02*
X144748094Y-106563390D01*
X144748094Y-106563390D02*
X144795713Y-106515771D01*
X144795713Y-106515771D02*
X144843332Y-106420533D01*
X144843332Y-106420533D02*
X144843332Y-106325295D01*
X144843332Y-106325295D02*
X144795713Y-106230057D01*
X144795713Y-106230057D02*
X144748094Y-106182438D01*
X144748094Y-106182438D02*
X144652856Y-106134819D01*
X144652856Y-106134819D02*
X144414761Y-106134819D01*
X144414761Y-106134819D02*
X144271904Y-106182438D01*
X143938570Y-106134819D02*
X143700475Y-107134819D01*
X143700475Y-107134819D02*
X143509999Y-106420533D01*
X143509999Y-106420533D02*
X143319523Y-107134819D01*
X143319523Y-107134819D02*
X143081428Y-106134819D01*
X142176666Y-107134819D02*
X142748094Y-107134819D01*
X142462380Y-107134819D02*
X142462380Y-106134819D01*
X142462380Y-106134819D02*
X142557618Y-106277676D01*
X142557618Y-106277676D02*
X142652856Y-106372914D01*
X142652856Y-106372914D02*
X142748094Y-106420533D01*
X148715180Y-104858094D02*
X149715180Y-104858094D01*
X149715180Y-104858094D02*
X149715180Y-104619999D01*
X149715180Y-104619999D02*
X149667561Y-104477142D01*
X149667561Y-104477142D02*
X149572323Y-104381904D01*
X149572323Y-104381904D02*
X149477085Y-104334285D01*
X149477085Y-104334285D02*
X149286609Y-104286666D01*
X149286609Y-104286666D02*
X149143752Y-104286666D01*
X149143752Y-104286666D02*
X148953276Y-104334285D01*
X148953276Y-104334285D02*
X148858038Y-104381904D01*
X148858038Y-104381904D02*
X148762800Y-104477142D01*
X148762800Y-104477142D02*
X148715180Y-104619999D01*
X148715180Y-104619999D02*
X148715180Y-104858094D01*
X148715180Y-103334285D02*
X148715180Y-103905713D01*
X148715180Y-103619999D02*
X149715180Y-103619999D01*
X149715180Y-103619999D02*
X149572323Y-103715237D01*
X149572323Y-103715237D02*
X149477085Y-103810475D01*
X149477085Y-103810475D02*
X149429466Y-103905713D01*
X92143990Y-99845714D02*
X92096371Y-99702857D01*
X92096371Y-99702857D02*
X92048752Y-99655238D01*
X92048752Y-99655238D02*
X91953514Y-99607619D01*
X91953514Y-99607619D02*
X91810657Y-99607619D01*
X91810657Y-99607619D02*
X91715419Y-99655238D01*
X91715419Y-99655238D02*
X91667800Y-99702857D01*
X91667800Y-99702857D02*
X91620180Y-99798095D01*
X91620180Y-99798095D02*
X91620180Y-100179047D01*
X91620180Y-100179047D02*
X92620180Y-100179047D01*
X92620180Y-100179047D02*
X92620180Y-99845714D01*
X92620180Y-99845714D02*
X92572561Y-99750476D01*
X92572561Y-99750476D02*
X92524942Y-99702857D01*
X92524942Y-99702857D02*
X92429704Y-99655238D01*
X92429704Y-99655238D02*
X92334466Y-99655238D01*
X92334466Y-99655238D02*
X92239228Y-99702857D01*
X92239228Y-99702857D02*
X92191609Y-99750476D01*
X92191609Y-99750476D02*
X92143990Y-99845714D01*
X92143990Y-99845714D02*
X92143990Y-100179047D01*
X92620180Y-99321904D02*
X92620180Y-98750476D01*
X91620180Y-99036190D02*
X92620180Y-99036190D01*
X91620180Y-97893333D02*
X91620180Y-98464761D01*
X91620180Y-98179047D02*
X92620180Y-98179047D01*
X92620180Y-98179047D02*
X92477323Y-98274285D01*
X92477323Y-98274285D02*
X92382085Y-98369523D01*
X92382085Y-98369523D02*
X92334466Y-98464761D01*
X143676666Y-100784819D02*
X144009999Y-100308628D01*
X144248094Y-100784819D02*
X144248094Y-99784819D01*
X144248094Y-99784819D02*
X143867142Y-99784819D01*
X143867142Y-99784819D02*
X143771904Y-99832438D01*
X143771904Y-99832438D02*
X143724285Y-99880057D01*
X143724285Y-99880057D02*
X143676666Y-99975295D01*
X143676666Y-99975295D02*
X143676666Y-100118152D01*
X143676666Y-100118152D02*
X143724285Y-100213390D01*
X143724285Y-100213390D02*
X143771904Y-100261009D01*
X143771904Y-100261009D02*
X143867142Y-100308628D01*
X143867142Y-100308628D02*
X144248094Y-100308628D01*
X142724285Y-100784819D02*
X143295713Y-100784819D01*
X143009999Y-100784819D02*
X143009999Y-99784819D01*
X143009999Y-99784819D02*
X143105237Y-99927676D01*
X143105237Y-99927676D02*
X143200475Y-100022914D01*
X143200475Y-100022914D02*
X143295713Y-100070533D01*
X99605180Y-96059523D02*
X98605180Y-95392857D01*
X99605180Y-95392857D02*
X98605180Y-96059523D01*
X98605180Y-94488095D02*
X98605180Y-95059523D01*
X98605180Y-94773809D02*
X99605180Y-94773809D01*
X99605180Y-94773809D02*
X99462323Y-94869047D01*
X99462323Y-94869047D02*
X99367085Y-94964285D01*
X99367085Y-94964285D02*
X99319466Y-95059523D01*
X89810419Y-106886666D02*
X89762800Y-106934285D01*
X89762800Y-106934285D02*
X89715180Y-107077142D01*
X89715180Y-107077142D02*
X89715180Y-107172380D01*
X89715180Y-107172380D02*
X89762800Y-107315237D01*
X89762800Y-107315237D02*
X89858038Y-107410475D01*
X89858038Y-107410475D02*
X89953276Y-107458094D01*
X89953276Y-107458094D02*
X90143752Y-107505713D01*
X90143752Y-107505713D02*
X90286609Y-107505713D01*
X90286609Y-107505713D02*
X90477085Y-107458094D01*
X90477085Y-107458094D02*
X90572323Y-107410475D01*
X90572323Y-107410475D02*
X90667561Y-107315237D01*
X90667561Y-107315237D02*
X90715180Y-107172380D01*
X90715180Y-107172380D02*
X90715180Y-107077142D01*
X90715180Y-107077142D02*
X90667561Y-106934285D01*
X90667561Y-106934285D02*
X90619942Y-106886666D01*
X89715180Y-105934285D02*
X89715180Y-106505713D01*
X89715180Y-106219999D02*
X90715180Y-106219999D01*
X90715180Y-106219999D02*
X90572323Y-106315237D01*
X90572323Y-106315237D02*
X90477085Y-106410475D01*
X90477085Y-106410475D02*
X90429466Y-106505713D01*
D13*
X138390000Y-111659000D02*
X138390000Y-116300000D01*
X141660000Y-114790000D02*
X141660000Y-116300000D01*
X145361000Y-114790000D02*
X145361000Y-116300000D01*
X148630000Y-111659000D02*
X138390000Y-111659000D01*
X148630000Y-111659000D02*
X148630000Y-116300000D01*
X148630000Y-114790000D02*
X138390000Y-114790000D01*
X148630000Y-116300000D02*
X138390000Y-116300000D01*
%LPC*%
D14*
X128270000Y-95250000D03*
D15*
X128270000Y-97790000D03*
X128270000Y-100330000D03*
X128270000Y-102870000D03*
X128270000Y-105410000D03*
X128270000Y-107950000D03*
X128270000Y-110490000D03*
X135890000Y-110490000D03*
X135890000Y-107950000D03*
X135890000Y-105410000D03*
X135890000Y-102870000D03*
X135890000Y-100330000D03*
X135890000Y-97790000D03*
X135890000Y-95250000D03*
D14*
X118110000Y-93980000D03*
D15*
X118110000Y-96520000D03*
X118110000Y-99060000D03*
X118110000Y-101600000D03*
X118110000Y-104140000D03*
X118110000Y-106680000D03*
X118110000Y-109220000D03*
X118110000Y-111760000D03*
X125730000Y-111760000D03*
X125730000Y-109220000D03*
X125730000Y-106680000D03*
X125730000Y-104140000D03*
X125730000Y-101600000D03*
X125730000Y-99060000D03*
X125730000Y-96520000D03*
X125730000Y-93980000D03*
D16*
X142240000Y-95250000D03*
D17*
X143510000Y-95250000D03*
X144780000Y-95250000D03*
D14*
X107950000Y-93980000D03*
D15*
X107950000Y-96520000D03*
X107950000Y-99060000D03*
X107950000Y-101600000D03*
X107950000Y-104140000D03*
X107950000Y-106680000D03*
X107950000Y-109220000D03*
X107950000Y-111760000D03*
X115570000Y-111760000D03*
X115570000Y-109220000D03*
X115570000Y-106680000D03*
X115570000Y-104140000D03*
X115570000Y-101600000D03*
X115570000Y-99060000D03*
X115570000Y-96520000D03*
X115570000Y-93980000D03*
D18*
X140260000Y-104430000D03*
X146760000Y-104430000D03*
X140260000Y-108930000D03*
X146760000Y-108930000D03*
D19*
X151130000Y-105390000D03*
D20*
X151130000Y-102850000D03*
D21*
X90170000Y-100330000D03*
D22*
X90170000Y-97790000D03*
D23*
X138430000Y-100330000D03*
D15*
X148590000Y-100330000D03*
D14*
X95250000Y-95250000D03*
D23*
X95250000Y-110490000D03*
X102870000Y-110490000D03*
X102870000Y-95250000D03*
X90170000Y-104220000D03*
X90170000Y-109220000D03*
D24*
X140970000Y-113030000D03*
D25*
X143510000Y-113030000D03*
X146050000Y-113030000D03*
%LPD*%
M02*
