M48
; DRILL file {KiCad 8.0.9} date 2025-03-02T13:37:13+0100
; FORMAT={-:-/ absolute / metric / decimal}
; #@! TF.CreationDate,2025-03-02T13:37:13+01:00
; #@! TF.GenerationSoftware,Kicad,Pcbnew,8.0.9
; #@! TF.FileFunction,Plated,1,2,PTH
FMAT,2
METRIC
; #@! TA.AperFunction,Plated,PTH,ViaDrill
T1C0.300
; #@! TA.AperFunction,Plated,PTH,ComponentDrill
T2C0.750
; #@! TA.AperFunction,Plated,PTH,ComponentDrill
T3C0.800
; #@! TA.AperFunction,Plated,PTH,ComponentDrill
T4C0.900
; #@! TA.AperFunction,Plated,PTH,ComponentDrill
T5C1.000
; #@! TA.AperFunction,Plated,PTH,ComponentDrill
T6C1.100
%
G90
G05
T1
X130.81Y-105.41
X133.35Y-96.52
T2
X142.24Y-95.25
X143.51Y-95.25
X144.78Y-95.25
T3
X90.17Y-104.22
X90.17Y-109.22
X95.25Y-95.25
X95.25Y-110.49
X102.87Y-95.25
X102.87Y-110.49
X107.95Y-93.98
X107.95Y-96.52
X107.95Y-99.06
X107.95Y-101.6
X107.95Y-104.14
X107.95Y-106.68
X107.95Y-109.22
X107.95Y-111.76
X115.57Y-93.98
X115.57Y-96.52
X115.57Y-99.06
X115.57Y-101.6
X115.57Y-104.14
X115.57Y-106.68
X115.57Y-109.22
X115.57Y-111.76
X118.11Y-93.98
X118.11Y-96.52
X118.11Y-99.06
X118.11Y-101.6
X118.11Y-104.14
X118.11Y-106.68
X118.11Y-109.22
X118.11Y-111.76
X125.73Y-93.98
X125.73Y-96.52
X125.73Y-99.06
X125.73Y-101.6
X125.73Y-104.14
X125.73Y-106.68
X125.73Y-109.22
X125.73Y-111.76
X128.27Y-95.25
X128.27Y-97.79
X128.27Y-100.33
X128.27Y-102.87
X128.27Y-105.41
X128.27Y-107.95
X128.27Y-110.49
X135.89Y-95.25
X135.89Y-97.79
X135.89Y-100.33
X135.89Y-102.87
X135.89Y-105.41
X135.89Y-107.95
X135.89Y-110.49
X138.43Y-100.33
X148.59Y-100.33
T4
X151.13Y-102.85
X151.13Y-105.39
T5
X90.17Y-97.79
X90.17Y-100.33
T6
X140.26Y-104.43
X140.26Y-108.93
X140.97Y-113.03
X143.51Y-113.03
X146.05Y-113.03
X146.76Y-104.43
X146.76Y-108.93
M30
