G04 #@! TF.GenerationSoftware,KiCad,Pcbnew,8.0.9*
G04 #@! TF.CreationDate,2025-03-02T13:36:19+01:00*
G04 #@! TF.ProjectId,strobe,7374726f-6265-42e6-9b69-6361645f7063,rev?*
G04 #@! TF.SameCoordinates,Original*
G04 #@! TF.FileFunction,Copper,L1,Top*
G04 #@! TF.FilePolarity,Positive*
%FSLAX46Y46*%
G04 Gerber Fmt 4.6, Leading zero omitted, Abs format (unit mm)*
G04 Created by KiCad (PCBNEW 8.0.9) date 2025-03-02 13:36:19*
%MOMM*%
%LPD*%
G01*
G04 APERTURE LIST*
G04 #@! TA.AperFunction,ComponentPad*
%ADD10R,1.600000X1.600000*%
G04 #@! TD*
G04 #@! TA.AperFunction,ComponentPad*
%ADD11O,1.600000X1.600000*%
G04 #@! TD*
G04 #@! TA.AperFunction,ComponentPad*
%ADD12R,1.050000X1.500000*%
G04 #@! TD*
G04 #@! TA.AperFunction,ComponentPad*
%ADD13O,1.050000X1.500000*%
G04 #@! TD*
G04 #@! TA.AperFunction,ComponentPad*
%ADD14C,2.000000*%
G04 #@! TD*
G04 #@! TA.AperFunction,ComponentPad*
%ADD15R,1.800000X1.800000*%
G04 #@! TD*
G04 #@! TA.AperFunction,ComponentPad*
%ADD16C,1.800000*%
G04 #@! TD*
G04 #@! TA.AperFunction,ComponentPad*
%ADD17R,1.700000X1.700000*%
G04 #@! TD*
G04 #@! TA.AperFunction,ComponentPad*
%ADD18O,1.700000X1.700000*%
G04 #@! TD*
G04 #@! TA.AperFunction,ComponentPad*
%ADD19C,1.600000*%
G04 #@! TD*
G04 #@! TA.AperFunction,ComponentPad*
%ADD20R,1.905000X2.000000*%
G04 #@! TD*
G04 #@! TA.AperFunction,ComponentPad*
%ADD21O,1.905000X2.000000*%
G04 #@! TD*
G04 #@! TA.AperFunction,ViaPad*
%ADD22C,0.600000*%
G04 #@! TD*
G04 #@! TA.AperFunction,Conductor*
%ADD23C,0.635000*%
G04 #@! TD*
G04 #@! TA.AperFunction,Conductor*
%ADD24C,0.254000*%
G04 #@! TD*
G04 APERTURE END LIST*
D10*
X128270000Y-95250000D03*
D11*
X128270000Y-97790000D03*
X128270000Y-100330000D03*
X128270000Y-102870000D03*
X128270000Y-105410000D03*
X128270000Y-107950000D03*
X128270000Y-110490000D03*
X135890000Y-110490000D03*
X135890000Y-107950000D03*
X135890000Y-105410000D03*
X135890000Y-102870000D03*
X135890000Y-100330000D03*
X135890000Y-97790000D03*
X135890000Y-95250000D03*
D10*
X118110000Y-93980000D03*
D11*
X118110000Y-96520000D03*
X118110000Y-99060000D03*
X118110000Y-101600000D03*
X118110000Y-104140000D03*
X118110000Y-106680000D03*
X118110000Y-109220000D03*
X118110000Y-111760000D03*
X125730000Y-111760000D03*
X125730000Y-109220000D03*
X125730000Y-106680000D03*
X125730000Y-104140000D03*
X125730000Y-101600000D03*
X125730000Y-99060000D03*
X125730000Y-96520000D03*
X125730000Y-93980000D03*
D12*
X142240000Y-95250000D03*
D13*
X143510000Y-95250000D03*
X144780000Y-95250000D03*
D10*
X107950000Y-93980000D03*
D11*
X107950000Y-96520000D03*
X107950000Y-99060000D03*
X107950000Y-101600000D03*
X107950000Y-104140000D03*
X107950000Y-106680000D03*
X107950000Y-109220000D03*
X107950000Y-111760000D03*
X115570000Y-111760000D03*
X115570000Y-109220000D03*
X115570000Y-106680000D03*
X115570000Y-104140000D03*
X115570000Y-101600000D03*
X115570000Y-99060000D03*
X115570000Y-96520000D03*
X115570000Y-93980000D03*
D14*
X140260000Y-104430000D03*
X146760000Y-104430000D03*
X140260000Y-108930000D03*
X146760000Y-108930000D03*
D15*
X151130000Y-105390000D03*
D16*
X151130000Y-102850000D03*
D17*
X90170000Y-100330000D03*
D18*
X90170000Y-97790000D03*
D19*
X138430000Y-100330000D03*
D11*
X148590000Y-100330000D03*
D10*
X95250000Y-95250000D03*
D19*
X95250000Y-110490000D03*
X102870000Y-110490000D03*
X102870000Y-95250000D03*
X90170000Y-104220000D03*
X90170000Y-109220000D03*
D20*
X140970000Y-113030000D03*
D21*
X143510000Y-113030000D03*
X146050000Y-113030000D03*
D22*
X133350000Y-96520000D03*
X130810000Y-105410000D03*
D23*
X95250000Y-92710000D02*
X95297500Y-92662500D01*
X95297500Y-92662500D02*
X144732500Y-92662500D01*
X90170000Y-97790000D02*
X90170000Y-96520000D01*
X93980000Y-92710000D02*
X95250000Y-92710000D01*
X90170000Y-96520000D02*
X93980000Y-92710000D01*
X146760000Y-94690000D02*
X146760000Y-104430000D01*
X144732500Y-92662500D02*
X146760000Y-94690000D01*
D24*
X116697000Y-110347000D02*
X116697000Y-107807000D01*
D23*
X109267500Y-113077500D02*
X116792500Y-113077500D01*
X91440000Y-110490000D02*
X90170000Y-109220000D01*
X95250000Y-110490000D02*
X91440000Y-110490000D01*
X128270000Y-111760000D02*
X128270000Y-110490000D01*
X144532500Y-111512500D02*
X146050000Y-113030000D01*
D24*
X118110000Y-111760000D02*
X116697000Y-110347000D01*
D23*
X151130000Y-107950000D02*
X151130000Y-105390000D01*
X116792500Y-113077500D02*
X118110000Y-111760000D01*
D24*
X116697000Y-107807000D02*
X115570000Y-106680000D01*
D23*
X118110000Y-111760000D02*
X119427500Y-113077500D01*
X119427500Y-113077500D02*
X126952500Y-113077500D01*
X139747500Y-111512500D02*
X144532500Y-111512500D01*
X146050000Y-113030000D02*
X151130000Y-107950000D01*
X128270000Y-110490000D02*
X130810000Y-113030000D01*
X130810000Y-113030000D02*
X138230000Y-113030000D01*
X95250000Y-110490000D02*
X97319999Y-112559999D01*
X138230000Y-113030000D02*
X139747500Y-111512500D01*
X126952500Y-113077500D02*
X128270000Y-111760000D01*
X107950000Y-111760000D02*
X109267500Y-113077500D01*
X97319999Y-112559999D02*
X107150001Y-112559999D01*
X107150001Y-112559999D02*
X107950000Y-111760000D01*
D24*
X133350000Y-96520000D02*
X143244000Y-96520000D01*
X143510000Y-96254000D02*
X143510000Y-95250000D01*
X143244000Y-96520000D02*
X143510000Y-96254000D01*
X135890000Y-105410000D02*
X130810000Y-105410000D01*
X135890000Y-100330000D02*
X130810000Y-100330000D01*
X130810000Y-100330000D02*
X128270000Y-102870000D01*
X135890000Y-97790000D02*
X128270000Y-97790000D01*
G04 #@! TA.AperFunction,Conductor*
G36*
X93372199Y-91907117D02*
G01*
X93429591Y-91946965D01*
X93456329Y-92011516D01*
X93443923Y-92080276D01*
X93420721Y-92112452D01*
X93344618Y-92188555D01*
X93344616Y-92188557D01*
X89534620Y-95998551D01*
X89534617Y-95998555D01*
X89445100Y-96132525D01*
X89445093Y-96132538D01*
X89383436Y-96281393D01*
X89383433Y-96281405D01*
X89352000Y-96439429D01*
X89352000Y-96649562D01*
X89332315Y-96716601D01*
X89302456Y-96747673D01*
X89302749Y-96748023D01*
X89299504Y-96750746D01*
X89299137Y-96751128D01*
X89298604Y-96751501D01*
X89298595Y-96751508D01*
X89131505Y-96918597D01*
X88995965Y-97112169D01*
X88995964Y-97112171D01*
X88896098Y-97326335D01*
X88896094Y-97326344D01*
X88834938Y-97554586D01*
X88834936Y-97554596D01*
X88814341Y-97789999D01*
X88814341Y-97790000D01*
X88834936Y-98025403D01*
X88834938Y-98025413D01*
X88896094Y-98253655D01*
X88896096Y-98253659D01*
X88896097Y-98253663D01*
X88967724Y-98407267D01*
X88995965Y-98467830D01*
X88995967Y-98467834D01*
X89097966Y-98613502D01*
X89131501Y-98661396D01*
X89131506Y-98661402D01*
X89253430Y-98783326D01*
X89286915Y-98844649D01*
X89281931Y-98914341D01*
X89240059Y-98970274D01*
X89209083Y-98987189D01*
X89077669Y-99036203D01*
X89077664Y-99036206D01*
X88962455Y-99122452D01*
X88962452Y-99122455D01*
X88876206Y-99237664D01*
X88876202Y-99237671D01*
X88825908Y-99372517D01*
X88819501Y-99432116D01*
X88819501Y-99432123D01*
X88819500Y-99432135D01*
X88819500Y-101227870D01*
X88819501Y-101227876D01*
X88825908Y-101287483D01*
X88876202Y-101422328D01*
X88876206Y-101422335D01*
X88962452Y-101537544D01*
X88962455Y-101537547D01*
X89077664Y-101623793D01*
X89077671Y-101623797D01*
X89212517Y-101674091D01*
X89212516Y-101674091D01*
X89219444Y-101674835D01*
X89272127Y-101680500D01*
X91067872Y-101680499D01*
X91127483Y-101674091D01*
X91262331Y-101623796D01*
X91377546Y-101537546D01*
X91463796Y-101422331D01*
X91514091Y-101287483D01*
X91520500Y-101227873D01*
X91520499Y-99432128D01*
X91514091Y-99372517D01*
X91503843Y-99345042D01*
X91463797Y-99237671D01*
X91463793Y-99237664D01*
X91377547Y-99122455D01*
X91377544Y-99122452D01*
X91262335Y-99036206D01*
X91262328Y-99036202D01*
X91130917Y-98987189D01*
X91074983Y-98945318D01*
X91050566Y-98879853D01*
X91065418Y-98811580D01*
X91086563Y-98783332D01*
X91208495Y-98661401D01*
X91344035Y-98467830D01*
X91443903Y-98253663D01*
X91505063Y-98025408D01*
X91525659Y-97790000D01*
X91505063Y-97554592D01*
X91443903Y-97326337D01*
X91344035Y-97112171D01*
X91340135Y-97106600D01*
X91208494Y-96918597D01*
X91156042Y-96866145D01*
X91122557Y-96804822D01*
X91127541Y-96735130D01*
X91156040Y-96690785D01*
X93444690Y-94402135D01*
X93949500Y-94402135D01*
X93949500Y-96097870D01*
X93949501Y-96097876D01*
X93955908Y-96157483D01*
X94006202Y-96292328D01*
X94006206Y-96292335D01*
X94092452Y-96407544D01*
X94092455Y-96407547D01*
X94207664Y-96493793D01*
X94207671Y-96493797D01*
X94342517Y-96544091D01*
X94342516Y-96544091D01*
X94349444Y-96544835D01*
X94402127Y-96550500D01*
X96097872Y-96550499D01*
X96157483Y-96544091D01*
X96292331Y-96493796D01*
X96407546Y-96407546D01*
X96493796Y-96292331D01*
X96544091Y-96157483D01*
X96550500Y-96097873D01*
X96550499Y-95249998D01*
X101564532Y-95249998D01*
X101564532Y-95250001D01*
X101584364Y-95476686D01*
X101584366Y-95476697D01*
X101643258Y-95696488D01*
X101643261Y-95696497D01*
X101739431Y-95902732D01*
X101739432Y-95902734D01*
X101869954Y-96089141D01*
X102030858Y-96250045D01*
X102030861Y-96250047D01*
X102217266Y-96380568D01*
X102423504Y-96476739D01*
X102643308Y-96535635D01*
X102783052Y-96547861D01*
X102869998Y-96555468D01*
X102870000Y-96555468D01*
X102870002Y-96555468D01*
X102926807Y-96550498D01*
X103096692Y-96535635D01*
X103316496Y-96476739D01*
X103522734Y-96380568D01*
X103709139Y-96250047D01*
X103870047Y-96089139D01*
X104000568Y-95902734D01*
X104096739Y-95696496D01*
X104155635Y-95476692D01*
X104173360Y-95274091D01*
X104175468Y-95250001D01*
X104175468Y-95249998D01*
X104165636Y-95137618D01*
X104155635Y-95023308D01*
X104096739Y-94803504D01*
X104000568Y-94597266D01*
X103870047Y-94410861D01*
X103870045Y-94410858D01*
X103709141Y-94249954D01*
X103522734Y-94119432D01*
X103522732Y-94119431D01*
X103316497Y-94023261D01*
X103316488Y-94023258D01*
X103096697Y-93964366D01*
X103096693Y-93964365D01*
X103096692Y-93964365D01*
X103096691Y-93964364D01*
X103096686Y-93964364D01*
X102870002Y-93944532D01*
X102869998Y-93944532D01*
X102643313Y-93964364D01*
X102643302Y-93964366D01*
X102423511Y-94023258D01*
X102423502Y-94023261D01*
X102217267Y-94119431D01*
X102217265Y-94119432D01*
X102030858Y-94249954D01*
X101869954Y-94410858D01*
X101739432Y-94597265D01*
X101739431Y-94597267D01*
X101643261Y-94803502D01*
X101643258Y-94803511D01*
X101584366Y-95023302D01*
X101584364Y-95023313D01*
X101564532Y-95249998D01*
X96550499Y-95249998D01*
X96550499Y-94402128D01*
X96544091Y-94342517D01*
X96532258Y-94310792D01*
X96493797Y-94207671D01*
X96493793Y-94207664D01*
X96407547Y-94092455D01*
X96407544Y-94092452D01*
X96292335Y-94006206D01*
X96292328Y-94006202D01*
X96157482Y-93955908D01*
X96157483Y-93955908D01*
X96097883Y-93949501D01*
X96097881Y-93949500D01*
X96097873Y-93949500D01*
X96097864Y-93949500D01*
X94402129Y-93949500D01*
X94402123Y-93949501D01*
X94342516Y-93955908D01*
X94207671Y-94006202D01*
X94207668Y-94006204D01*
X94135642Y-94060123D01*
X94078219Y-94081540D01*
X94069688Y-94120758D01*
X94060123Y-94135642D01*
X94006204Y-94207668D01*
X94006202Y-94207671D01*
X93955908Y-94342517D01*
X93950533Y-94392517D01*
X93949501Y-94402123D01*
X93949500Y-94402135D01*
X93444690Y-94402135D01*
X93873177Y-93973648D01*
X93934498Y-93940165D01*
X93941868Y-93940692D01*
X93962064Y-93886546D01*
X93973643Y-93873182D01*
X94282507Y-93564319D01*
X94343830Y-93530834D01*
X94370188Y-93528000D01*
X95330567Y-93528000D01*
X95330568Y-93527999D01*
X95488602Y-93496565D01*
X95504598Y-93489938D01*
X95552051Y-93480500D01*
X106525500Y-93480500D01*
X106592539Y-93500185D01*
X106638294Y-93552989D01*
X106649500Y-93604500D01*
X106649500Y-94827870D01*
X106649501Y-94827876D01*
X106655908Y-94887483D01*
X106706202Y-95022328D01*
X106706206Y-95022335D01*
X106792452Y-95137544D01*
X106792455Y-95137547D01*
X106907664Y-95223793D01*
X106907671Y-95223797D01*
X106952618Y-95240561D01*
X107042517Y-95274091D01*
X107077596Y-95277862D01*
X107142144Y-95304599D01*
X107181993Y-95361991D01*
X107184488Y-95431816D01*
X107148836Y-95491905D01*
X107135464Y-95502725D01*
X107110858Y-95519954D01*
X106949954Y-95680858D01*
X106819432Y-95867265D01*
X106819431Y-95867267D01*
X106723261Y-96073502D01*
X106723258Y-96073511D01*
X106664366Y-96293302D01*
X106664364Y-96293313D01*
X106644532Y-96519998D01*
X106644532Y-96520001D01*
X106664364Y-96746686D01*
X106664366Y-96746697D01*
X106723258Y-96966488D01*
X106723261Y-96966497D01*
X106819431Y-97172732D01*
X106819432Y-97172734D01*
X106949954Y-97359141D01*
X107110858Y-97520045D01*
X107110861Y-97520047D01*
X107297266Y-97650568D01*
X107355275Y-97677618D01*
X107407714Y-97723791D01*
X107426866Y-97790984D01*
X107406650Y-97857865D01*
X107355275Y-97902382D01*
X107297267Y-97929431D01*
X107297265Y-97929432D01*
X107110858Y-98059954D01*
X106949954Y-98220858D01*
X106819432Y-98407265D01*
X106819431Y-98407267D01*
X106723261Y-98613502D01*
X106723258Y-98613511D01*
X106664366Y-98833302D01*
X106664364Y-98833313D01*
X106644532Y-99059998D01*
X106644532Y-99060001D01*
X106664364Y-99286686D01*
X106664366Y-99286697D01*
X106723258Y-99506488D01*
X106723261Y-99506497D01*
X106819431Y-99712732D01*
X106819432Y-99712734D01*
X106949954Y-99899141D01*
X107110858Y-100060045D01*
X107110861Y-100060047D01*
X107297266Y-100190568D01*
X107355275Y-100217618D01*
X107407714Y-100263791D01*
X107426866Y-100330984D01*
X107406650Y-100397865D01*
X107355275Y-100442382D01*
X107297267Y-100469431D01*
X107297265Y-100469432D01*
X107110858Y-100599954D01*
X106949954Y-100760858D01*
X106819432Y-100947265D01*
X106819431Y-100947267D01*
X106723261Y-101153502D01*
X106723258Y-101153511D01*
X106664366Y-101373302D01*
X106664364Y-101373313D01*
X106644532Y-101599998D01*
X106644532Y-101600001D01*
X106664364Y-101826686D01*
X106664366Y-101826697D01*
X106723258Y-102046488D01*
X106723261Y-102046497D01*
X106819431Y-102252732D01*
X106819432Y-102252734D01*
X106949954Y-102439141D01*
X107110858Y-102600045D01*
X107110861Y-102600047D01*
X107297266Y-102730568D01*
X107355275Y-102757618D01*
X107407714Y-102803791D01*
X107426866Y-102870984D01*
X107406650Y-102937865D01*
X107355275Y-102982382D01*
X107297267Y-103009431D01*
X107297265Y-103009432D01*
X107110858Y-103139954D01*
X106949954Y-103300858D01*
X106819432Y-103487265D01*
X106819431Y-103487267D01*
X106723261Y-103693502D01*
X106723258Y-103693511D01*
X106664366Y-103913302D01*
X106664364Y-103913313D01*
X106644532Y-104139998D01*
X106644532Y-104140001D01*
X106664364Y-104366686D01*
X106664366Y-104366697D01*
X106723258Y-104586488D01*
X106723261Y-104586497D01*
X106819431Y-104792732D01*
X106819432Y-104792734D01*
X106949954Y-104979141D01*
X107110858Y-105140045D01*
X107110861Y-105140047D01*
X107297266Y-105270568D01*
X107355275Y-105297618D01*
X107407714Y-105343791D01*
X107426866Y-105410984D01*
X107406650Y-105477865D01*
X107355275Y-105522382D01*
X107297267Y-105549431D01*
X107297265Y-105549432D01*
X107110858Y-105679954D01*
X106949954Y-105840858D01*
X106819432Y-106027265D01*
X106819431Y-106027267D01*
X106723261Y-106233502D01*
X106723258Y-106233511D01*
X106664366Y-106453302D01*
X106664364Y-106453313D01*
X106644532Y-106679998D01*
X106644532Y-106680001D01*
X106664364Y-106906686D01*
X106664366Y-106906697D01*
X106723258Y-107126488D01*
X106723261Y-107126497D01*
X106819431Y-107332732D01*
X106819432Y-107332734D01*
X106949954Y-107519141D01*
X107110858Y-107680045D01*
X107110861Y-107680047D01*
X107297266Y-107810568D01*
X107322342Y-107822261D01*
X107355275Y-107837618D01*
X107407714Y-107883791D01*
X107426866Y-107950984D01*
X107406650Y-108017865D01*
X107355275Y-108062382D01*
X107297267Y-108089431D01*
X107297265Y-108089432D01*
X107110858Y-108219954D01*
X106949954Y-108380858D01*
X106819432Y-108567265D01*
X106819431Y-108567267D01*
X106723261Y-108773502D01*
X106723258Y-108773511D01*
X106664366Y-108993302D01*
X106664364Y-108993313D01*
X106644532Y-109219998D01*
X106644532Y-109220001D01*
X106664364Y-109446686D01*
X106664366Y-109446697D01*
X106723258Y-109666488D01*
X106723261Y-109666497D01*
X106819431Y-109872732D01*
X106819432Y-109872734D01*
X106949954Y-110059141D01*
X107110858Y-110220045D01*
X107110861Y-110220047D01*
X107297266Y-110350568D01*
X107355865Y-110377893D01*
X107408305Y-110424065D01*
X107427457Y-110491258D01*
X107407242Y-110558139D01*
X107355867Y-110602657D01*
X107297515Y-110629867D01*
X107111179Y-110760342D01*
X106950342Y-110921179D01*
X106819865Y-111107517D01*
X106723734Y-111313673D01*
X106723730Y-111313682D01*
X106671127Y-111509999D01*
X106671128Y-111510000D01*
X107634314Y-111510000D01*
X107629920Y-111514394D01*
X107577259Y-111605606D01*
X107550000Y-111707339D01*
X107550000Y-111812661D01*
X107577259Y-111914394D01*
X107629920Y-112005606D01*
X107634314Y-112010000D01*
X106671128Y-112010000D01*
X106723730Y-112206317D01*
X106723734Y-112206326D01*
X106819865Y-112412482D01*
X106950342Y-112598820D01*
X107111179Y-112759657D01*
X107297517Y-112890134D01*
X107503673Y-112986265D01*
X107503682Y-112986269D01*
X107699999Y-113038872D01*
X107700000Y-113038871D01*
X107700000Y-112075686D01*
X107704394Y-112080080D01*
X107795606Y-112132741D01*
X107897339Y-112160000D01*
X108002661Y-112160000D01*
X108104394Y-112132741D01*
X108195606Y-112080080D01*
X108200000Y-112075686D01*
X108200000Y-113038872D01*
X108396317Y-112986269D01*
X108396326Y-112986265D01*
X108602482Y-112890134D01*
X108788820Y-112759657D01*
X108949657Y-112598820D01*
X109080134Y-112412482D01*
X109176265Y-112206326D01*
X109176269Y-112206317D01*
X109228872Y-112010000D01*
X108265686Y-112010000D01*
X108270080Y-112005606D01*
X108322741Y-111914394D01*
X108350000Y-111812661D01*
X108350000Y-111707339D01*
X108322741Y-111605606D01*
X108270080Y-111514394D01*
X108265686Y-111510000D01*
X109228872Y-111510000D01*
X109228872Y-111509999D01*
X109176269Y-111313682D01*
X109176265Y-111313673D01*
X109080134Y-111107517D01*
X108949657Y-110921179D01*
X108788820Y-110760342D01*
X108602482Y-110629865D01*
X108544133Y-110602657D01*
X108491694Y-110556484D01*
X108472542Y-110489291D01*
X108492758Y-110422410D01*
X108544129Y-110377895D01*
X108602734Y-110350568D01*
X108789139Y-110220047D01*
X108950047Y-110059139D01*
X109080568Y-109872734D01*
X109176739Y-109666496D01*
X109235635Y-109446692D01*
X109255468Y-109220000D01*
X109254143Y-109204860D01*
X109241960Y-109065606D01*
X109235635Y-108993308D01*
X109176739Y-108773504D01*
X109080568Y-108567266D01*
X108950047Y-108380861D01*
X108950045Y-108380858D01*
X108789141Y-108219954D01*
X108602734Y-108089432D01*
X108602728Y-108089429D01*
X108544725Y-108062382D01*
X108492285Y-108016210D01*
X108473133Y-107949017D01*
X108493348Y-107882135D01*
X108544725Y-107837618D01*
X108545319Y-107837341D01*
X108602734Y-107810568D01*
X108789139Y-107680047D01*
X108950047Y-107519139D01*
X109080568Y-107332734D01*
X109176739Y-107126496D01*
X109235635Y-106906692D01*
X109255468Y-106680000D01*
X109252597Y-106647190D01*
X109241960Y-106525606D01*
X109235635Y-106453308D01*
X109176739Y-106233504D01*
X109080568Y-106027266D01*
X108950047Y-105840861D01*
X108950045Y-105840858D01*
X108789141Y-105679954D01*
X108602734Y-105549432D01*
X108602728Y-105549429D01*
X108544725Y-105522382D01*
X108492285Y-105476210D01*
X108473133Y-105409017D01*
X108493348Y-105342135D01*
X108544725Y-105297618D01*
X108602734Y-105270568D01*
X108789139Y-105140047D01*
X108950047Y-104979139D01*
X109080568Y-104792734D01*
X109176739Y-104586496D01*
X109235635Y-104366692D01*
X109255468Y-104140000D01*
X109235635Y-103913308D01*
X109176739Y-103693504D01*
X109080568Y-103487266D01*
X108950047Y-103300861D01*
X108950045Y-103300858D01*
X108789141Y-103139954D01*
X108602734Y-103009432D01*
X108602728Y-103009429D01*
X108544725Y-102982382D01*
X108492285Y-102936210D01*
X108473133Y-102869017D01*
X108493348Y-102802135D01*
X108544725Y-102757618D01*
X108602734Y-102730568D01*
X108789139Y-102600047D01*
X108950047Y-102439139D01*
X109080568Y-102252734D01*
X109176739Y-102046496D01*
X109235635Y-101826692D01*
X109255468Y-101600000D01*
X109252344Y-101564298D01*
X109242301Y-101449500D01*
X109235635Y-101373308D01*
X109176739Y-101153504D01*
X109080568Y-100947266D01*
X108950047Y-100760861D01*
X108950045Y-100760858D01*
X108789141Y-100599954D01*
X108602734Y-100469432D01*
X108602728Y-100469429D01*
X108544725Y-100442382D01*
X108492285Y-100396210D01*
X108473133Y-100329017D01*
X108493348Y-100262135D01*
X108544725Y-100217618D01*
X108602734Y-100190568D01*
X108789139Y-100060047D01*
X108950047Y-99899139D01*
X109080568Y-99712734D01*
X109176739Y-99506496D01*
X109235635Y-99286692D01*
X109255468Y-99060000D01*
X109255274Y-99057788D01*
X109245636Y-98947618D01*
X109235635Y-98833308D01*
X109176739Y-98613504D01*
X109080568Y-98407266D01*
X108950047Y-98220861D01*
X108950045Y-98220858D01*
X108789141Y-98059954D01*
X108602734Y-97929432D01*
X108602728Y-97929429D01*
X108544725Y-97902382D01*
X108492285Y-97856210D01*
X108473133Y-97789017D01*
X108493348Y-97722135D01*
X108544725Y-97677618D01*
X108602734Y-97650568D01*
X108789139Y-97520047D01*
X108950047Y-97359139D01*
X109080568Y-97172734D01*
X109176739Y-96966496D01*
X109235635Y-96746692D01*
X109253360Y-96544091D01*
X109255468Y-96520001D01*
X109255468Y-96519998D01*
X109248209Y-96437034D01*
X109235635Y-96293308D01*
X109176739Y-96073504D01*
X109080568Y-95867266D01*
X108950047Y-95680861D01*
X108950045Y-95680858D01*
X108789143Y-95519956D01*
X108764536Y-95502726D01*
X108720912Y-95448149D01*
X108713719Y-95378650D01*
X108745241Y-95316296D01*
X108805471Y-95280882D01*
X108822404Y-95277861D01*
X108857483Y-95274091D01*
X108992331Y-95223796D01*
X109107546Y-95137546D01*
X109193796Y-95022331D01*
X109244091Y-94887483D01*
X109250500Y-94827873D01*
X109250499Y-93604499D01*
X109270184Y-93537461D01*
X109322987Y-93491706D01*
X109374499Y-93480500D01*
X114195863Y-93480500D01*
X114262902Y-93500185D01*
X114308657Y-93552989D01*
X114318601Y-93622147D01*
X114315638Y-93636593D01*
X114284366Y-93753302D01*
X114284364Y-93753313D01*
X114264532Y-93979998D01*
X114264532Y-93980001D01*
X114284364Y-94206686D01*
X114284366Y-94206697D01*
X114343258Y-94426488D01*
X114343261Y-94426497D01*
X114439431Y-94632732D01*
X114439432Y-94632734D01*
X114569954Y-94819141D01*
X114730858Y-94980045D01*
X114730861Y-94980047D01*
X114917266Y-95110568D01*
X114975275Y-95137618D01*
X115027714Y-95183791D01*
X115046866Y-95250984D01*
X115026650Y-95317865D01*
X114975275Y-95362382D01*
X114917267Y-95389431D01*
X114917265Y-95389432D01*
X114730858Y-95519954D01*
X114569954Y-95680858D01*
X114439432Y-95867265D01*
X114439431Y-95867267D01*
X114343261Y-96073502D01*
X114343258Y-96073511D01*
X114284366Y-96293302D01*
X114284364Y-96293313D01*
X114264532Y-96519998D01*
X114264532Y-96520001D01*
X114284364Y-96746686D01*
X114284366Y-96746697D01*
X114343258Y-96966488D01*
X114343261Y-96966497D01*
X114439431Y-97172732D01*
X114439432Y-97172734D01*
X114569954Y-97359141D01*
X114730858Y-97520045D01*
X114730861Y-97520047D01*
X114917266Y-97650568D01*
X114975275Y-97677618D01*
X115027714Y-97723791D01*
X115046866Y-97790984D01*
X115026650Y-97857865D01*
X114975275Y-97902382D01*
X114917267Y-97929431D01*
X114917265Y-97929432D01*
X114730858Y-98059954D01*
X114569954Y-98220858D01*
X114439432Y-98407265D01*
X114439431Y-98407267D01*
X114343261Y-98613502D01*
X114343258Y-98613511D01*
X114284366Y-98833302D01*
X114284364Y-98833313D01*
X114264532Y-99059998D01*
X114264532Y-99060001D01*
X114284364Y-99286686D01*
X114284366Y-99286697D01*
X114343258Y-99506488D01*
X114343261Y-99506497D01*
X114439431Y-99712732D01*
X114439432Y-99712734D01*
X114569954Y-99899141D01*
X114730858Y-100060045D01*
X114730861Y-100060047D01*
X114917266Y-100190568D01*
X114975275Y-100217618D01*
X115027714Y-100263791D01*
X115046866Y-100330984D01*
X115026650Y-100397865D01*
X114975275Y-100442382D01*
X114917267Y-100469431D01*
X114917265Y-100469432D01*
X114730858Y-100599954D01*
X114569954Y-100760858D01*
X114439432Y-100947265D01*
X114439431Y-100947267D01*
X114343261Y-101153502D01*
X114343258Y-101153511D01*
X114284366Y-101373302D01*
X114284364Y-101373313D01*
X114264532Y-101599998D01*
X114264532Y-101600001D01*
X114284364Y-101826686D01*
X114284366Y-101826697D01*
X114343258Y-102046488D01*
X114343261Y-102046497D01*
X114439431Y-102252732D01*
X114439432Y-102252734D01*
X114569954Y-102439141D01*
X114730858Y-102600045D01*
X114730861Y-102600047D01*
X114917266Y-102730568D01*
X114975275Y-102757618D01*
X115027714Y-102803791D01*
X115046866Y-102870984D01*
X115026650Y-102937865D01*
X114975275Y-102982382D01*
X114917267Y-103009431D01*
X114917265Y-103009432D01*
X114730858Y-103139954D01*
X114569954Y-103300858D01*
X114439432Y-103487265D01*
X114439431Y-103487267D01*
X114343261Y-103693502D01*
X114343258Y-103693511D01*
X114284366Y-103913302D01*
X114284364Y-103913313D01*
X114264532Y-104139998D01*
X114264532Y-104140001D01*
X114284364Y-104366686D01*
X114284366Y-104366697D01*
X114343258Y-104586488D01*
X114343261Y-104586497D01*
X114439431Y-104792732D01*
X114439432Y-104792734D01*
X114569954Y-104979141D01*
X114730858Y-105140045D01*
X114730861Y-105140047D01*
X114917266Y-105270568D01*
X114975865Y-105297893D01*
X115028305Y-105344065D01*
X115047457Y-105411258D01*
X115027242Y-105478139D01*
X114975867Y-105522657D01*
X114917515Y-105549867D01*
X114731179Y-105680342D01*
X114570342Y-105841179D01*
X114439865Y-106027517D01*
X114343734Y-106233673D01*
X114343730Y-106233682D01*
X114291127Y-106429999D01*
X114291128Y-106430000D01*
X115254314Y-106430000D01*
X115249920Y-106434394D01*
X115197259Y-106525606D01*
X115170000Y-106627339D01*
X115170000Y-106732661D01*
X115197259Y-106834394D01*
X115249920Y-106925606D01*
X115254314Y-106930000D01*
X114291128Y-106930000D01*
X114343730Y-107126317D01*
X114343734Y-107126326D01*
X114439865Y-107332482D01*
X114570342Y-107518820D01*
X114731179Y-107679657D01*
X114917518Y-107810134D01*
X114917520Y-107810135D01*
X114975865Y-107837342D01*
X115028305Y-107883514D01*
X115047457Y-107950707D01*
X115027242Y-108017589D01*
X114975867Y-108062105D01*
X114917268Y-108089431D01*
X114917264Y-108089433D01*
X114730858Y-108219954D01*
X114569954Y-108380858D01*
X114439432Y-108567265D01*
X114439431Y-108567267D01*
X114343261Y-108773502D01*
X114343258Y-108773511D01*
X114284366Y-108993302D01*
X114284364Y-108993313D01*
X114264532Y-109219998D01*
X114264532Y-109220001D01*
X114284364Y-109446686D01*
X114284366Y-109446697D01*
X114343258Y-109666488D01*
X114343261Y-109666497D01*
X114439431Y-109872732D01*
X114439432Y-109872734D01*
X114569954Y-110059141D01*
X114730858Y-110220045D01*
X114730861Y-110220047D01*
X114917266Y-110350568D01*
X114975275Y-110377618D01*
X115027714Y-110423791D01*
X115046866Y-110490984D01*
X115026650Y-110557865D01*
X114975275Y-110602382D01*
X114917267Y-110629431D01*
X114917265Y-110629432D01*
X114730858Y-110759954D01*
X114569954Y-110920858D01*
X114439432Y-111107265D01*
X114439431Y-111107267D01*
X114343261Y-111313502D01*
X114343258Y-111313511D01*
X114284366Y-111533302D01*
X114284364Y-111533313D01*
X114264532Y-111759998D01*
X114264532Y-111760000D01*
X114284364Y-111986686D01*
X114284366Y-111986697D01*
X114343258Y-112206488D01*
X114343261Y-112206497D01*
X114439431Y-112412732D01*
X114439432Y-112412734D01*
X114569954Y-112599141D01*
X114730858Y-112760045D01*
X114730861Y-112760047D01*
X114917266Y-112890568D01*
X115123504Y-112986739D01*
X115343308Y-113045635D01*
X115505230Y-113059801D01*
X115569998Y-113065468D01*
X115570000Y-113065468D01*
X115570002Y-113065468D01*
X115626673Y-113060509D01*
X115796692Y-113045635D01*
X116016496Y-112986739D01*
X116222734Y-112890568D01*
X116409139Y-112760047D01*
X116570047Y-112599139D01*
X116700568Y-112412734D01*
X116727895Y-112354129D01*
X116774064Y-112301695D01*
X116841257Y-112282542D01*
X116908139Y-112302757D01*
X116952657Y-112354133D01*
X116979865Y-112412482D01*
X117110342Y-112598820D01*
X117271179Y-112759657D01*
X117457517Y-112890134D01*
X117663673Y-112986265D01*
X117663682Y-112986269D01*
X117859999Y-113038872D01*
X117860000Y-113038871D01*
X117860000Y-112075686D01*
X117864394Y-112080080D01*
X117955606Y-112132741D01*
X118057339Y-112160000D01*
X118162661Y-112160000D01*
X118264394Y-112132741D01*
X118355606Y-112080080D01*
X118360000Y-112075686D01*
X118360000Y-113038872D01*
X118556317Y-112986269D01*
X118556326Y-112986265D01*
X118762482Y-112890134D01*
X118948820Y-112759657D01*
X119109657Y-112598820D01*
X119240134Y-112412482D01*
X119336265Y-112206326D01*
X119336269Y-112206317D01*
X119388872Y-112010000D01*
X118425686Y-112010000D01*
X118430080Y-112005606D01*
X118482741Y-111914394D01*
X118510000Y-111812661D01*
X118510000Y-111707339D01*
X118482741Y-111605606D01*
X118430080Y-111514394D01*
X118425686Y-111510000D01*
X119388872Y-111510000D01*
X119388872Y-111509999D01*
X119336269Y-111313682D01*
X119336265Y-111313673D01*
X119240134Y-111107517D01*
X119109657Y-110921179D01*
X118948820Y-110760342D01*
X118762482Y-110629865D01*
X118704133Y-110602657D01*
X118651694Y-110556484D01*
X118632542Y-110489291D01*
X118652758Y-110422410D01*
X118704129Y-110377895D01*
X118762734Y-110350568D01*
X118949139Y-110220047D01*
X119110047Y-110059139D01*
X119240568Y-109872734D01*
X119336739Y-109666496D01*
X119395635Y-109446692D01*
X119415468Y-109220000D01*
X119414143Y-109204860D01*
X119401960Y-109065606D01*
X119395635Y-108993308D01*
X119336739Y-108773504D01*
X119240568Y-108567266D01*
X119110047Y-108380861D01*
X119110045Y-108380858D01*
X118949141Y-108219954D01*
X118762734Y-108089432D01*
X118762728Y-108089429D01*
X118704725Y-108062382D01*
X118652285Y-108016210D01*
X118633133Y-107949017D01*
X118653348Y-107882135D01*
X118704725Y-107837618D01*
X118705319Y-107837341D01*
X118762734Y-107810568D01*
X118949139Y-107680047D01*
X119110047Y-107519139D01*
X119240568Y-107332734D01*
X119336739Y-107126496D01*
X119395635Y-106906692D01*
X119415468Y-106680000D01*
X119412597Y-106647190D01*
X119401960Y-106525606D01*
X119395635Y-106453308D01*
X119336739Y-106233504D01*
X119240568Y-106027266D01*
X119110047Y-105840861D01*
X119110045Y-105840858D01*
X118949141Y-105679954D01*
X118762734Y-105549432D01*
X118762728Y-105549429D01*
X118704725Y-105522382D01*
X118652285Y-105476210D01*
X118633133Y-105409017D01*
X118653348Y-105342135D01*
X118704725Y-105297618D01*
X118762734Y-105270568D01*
X118949139Y-105140047D01*
X119110047Y-104979139D01*
X119240568Y-104792734D01*
X119336739Y-104586496D01*
X119395635Y-104366692D01*
X119415468Y-104140000D01*
X119395635Y-103913308D01*
X119336739Y-103693504D01*
X119240568Y-103487266D01*
X119110047Y-103300861D01*
X119110045Y-103300858D01*
X118949141Y-103139954D01*
X118762734Y-103009432D01*
X118762728Y-103009429D01*
X118704725Y-102982382D01*
X118652285Y-102936210D01*
X118633133Y-102869017D01*
X118653348Y-102802135D01*
X118704725Y-102757618D01*
X118762734Y-102730568D01*
X118949139Y-102600047D01*
X119110047Y-102439139D01*
X119240568Y-102252734D01*
X119336739Y-102046496D01*
X119395635Y-101826692D01*
X119415468Y-101600000D01*
X119412344Y-101564298D01*
X119402301Y-101449500D01*
X119395635Y-101373308D01*
X119336739Y-101153504D01*
X119240568Y-100947266D01*
X119110047Y-100760861D01*
X119110045Y-100760858D01*
X118949141Y-100599954D01*
X118762734Y-100469432D01*
X118762728Y-100469429D01*
X118704725Y-100442382D01*
X118652285Y-100396210D01*
X118633133Y-100329017D01*
X118653348Y-100262135D01*
X118704725Y-100217618D01*
X118762734Y-100190568D01*
X118949139Y-100060047D01*
X119110047Y-99899139D01*
X119240568Y-99712734D01*
X119336739Y-99506496D01*
X119395635Y-99286692D01*
X119415468Y-99060000D01*
X119415274Y-99057788D01*
X119405636Y-98947618D01*
X119395635Y-98833308D01*
X119336739Y-98613504D01*
X119240568Y-98407266D01*
X119110047Y-98220861D01*
X119110045Y-98220858D01*
X118949141Y-98059954D01*
X118762734Y-97929432D01*
X118762728Y-97929429D01*
X118704725Y-97902382D01*
X118652285Y-97856210D01*
X118633133Y-97789017D01*
X118653348Y-97722135D01*
X118704725Y-97677618D01*
X118762734Y-97650568D01*
X118949139Y-97520047D01*
X119110047Y-97359139D01*
X119240568Y-97172734D01*
X119336739Y-96966496D01*
X119395635Y-96746692D01*
X119413360Y-96544091D01*
X119415468Y-96520001D01*
X119415468Y-96519998D01*
X119408209Y-96437034D01*
X119395635Y-96293308D01*
X119336739Y-96073504D01*
X119240568Y-95867266D01*
X119110047Y-95680861D01*
X119110045Y-95680858D01*
X118949143Y-95519956D01*
X118924536Y-95502726D01*
X118880912Y-95448149D01*
X118873719Y-95378650D01*
X118905241Y-95316296D01*
X118965471Y-95280882D01*
X118982404Y-95277861D01*
X119017483Y-95274091D01*
X119152331Y-95223796D01*
X119267546Y-95137546D01*
X119353796Y-95022331D01*
X119404091Y-94887483D01*
X119410500Y-94827873D01*
X119410499Y-93604499D01*
X119430184Y-93537461D01*
X119482987Y-93491706D01*
X119534499Y-93480500D01*
X124355863Y-93480500D01*
X124422902Y-93500185D01*
X124468657Y-93552989D01*
X124478601Y-93622147D01*
X124475638Y-93636593D01*
X124444366Y-93753302D01*
X124444364Y-93753313D01*
X124424532Y-93979998D01*
X124424532Y-93980001D01*
X124444364Y-94206686D01*
X124444366Y-94206697D01*
X124503258Y-94426488D01*
X124503261Y-94426497D01*
X124599431Y-94632732D01*
X124599432Y-94632734D01*
X124729954Y-94819141D01*
X124890858Y-94980045D01*
X124890861Y-94980047D01*
X125077266Y-95110568D01*
X125135275Y-95137618D01*
X125187714Y-95183791D01*
X125206866Y-95250984D01*
X125186650Y-95317865D01*
X125135275Y-95362382D01*
X125077267Y-95389431D01*
X125077265Y-95389432D01*
X124890858Y-95519954D01*
X124729954Y-95680858D01*
X124599432Y-95867265D01*
X124599431Y-95867267D01*
X124503261Y-96073502D01*
X124503258Y-96073511D01*
X124444366Y-96293302D01*
X124444364Y-96293313D01*
X124424532Y-96519998D01*
X124424532Y-96520001D01*
X124444364Y-96746686D01*
X124444366Y-96746697D01*
X124503258Y-96966488D01*
X124503261Y-96966497D01*
X124599431Y-97172732D01*
X124599432Y-97172734D01*
X124729954Y-97359141D01*
X124890858Y-97520045D01*
X124890861Y-97520047D01*
X125077266Y-97650568D01*
X125135275Y-97677618D01*
X125187714Y-97723791D01*
X125206866Y-97790984D01*
X125186650Y-97857865D01*
X125135275Y-97902382D01*
X125077267Y-97929431D01*
X125077265Y-97929432D01*
X124890858Y-98059954D01*
X124729954Y-98220858D01*
X124599432Y-98407265D01*
X124599431Y-98407267D01*
X124503261Y-98613502D01*
X124503258Y-98613511D01*
X124444366Y-98833302D01*
X124444364Y-98833313D01*
X124424532Y-99059998D01*
X124424532Y-99060001D01*
X124444364Y-99286686D01*
X124444366Y-99286697D01*
X124503258Y-99506488D01*
X124503261Y-99506497D01*
X124599431Y-99712732D01*
X124599432Y-99712734D01*
X124729954Y-99899141D01*
X124890858Y-100060045D01*
X124890861Y-100060047D01*
X125077266Y-100190568D01*
X125135275Y-100217618D01*
X125187714Y-100263791D01*
X125206866Y-100330984D01*
X125186650Y-100397865D01*
X125135275Y-100442382D01*
X125077267Y-100469431D01*
X125077265Y-100469432D01*
X124890858Y-100599954D01*
X124729954Y-100760858D01*
X124599432Y-100947265D01*
X124599431Y-100947267D01*
X124503261Y-101153502D01*
X124503258Y-101153511D01*
X124444366Y-101373302D01*
X124444364Y-101373313D01*
X124424532Y-101599998D01*
X124424532Y-101600001D01*
X124444364Y-101826686D01*
X124444366Y-101826697D01*
X124503258Y-102046488D01*
X124503261Y-102046497D01*
X124599431Y-102252732D01*
X124599432Y-102252734D01*
X124729954Y-102439141D01*
X124890858Y-102600045D01*
X124890861Y-102600047D01*
X125077266Y-102730568D01*
X125135275Y-102757618D01*
X125187714Y-102803791D01*
X125206866Y-102870984D01*
X125186650Y-102937865D01*
X125135275Y-102982382D01*
X125077267Y-103009431D01*
X125077265Y-103009432D01*
X124890858Y-103139954D01*
X124729954Y-103300858D01*
X124599432Y-103487265D01*
X124599431Y-103487267D01*
X124503261Y-103693502D01*
X124503258Y-103693511D01*
X124444366Y-103913302D01*
X124444364Y-103913313D01*
X124424532Y-104139998D01*
X124424532Y-104140001D01*
X124444364Y-104366686D01*
X124444366Y-104366697D01*
X124503258Y-104586488D01*
X124503261Y-104586497D01*
X124599431Y-104792732D01*
X124599432Y-104792734D01*
X124729954Y-104979141D01*
X124890858Y-105140045D01*
X124890861Y-105140047D01*
X125077266Y-105270568D01*
X125135275Y-105297618D01*
X125187714Y-105343791D01*
X125206866Y-105410984D01*
X125186650Y-105477865D01*
X125135275Y-105522382D01*
X125077267Y-105549431D01*
X125077265Y-105549432D01*
X124890858Y-105679954D01*
X124729954Y-105840858D01*
X124599432Y-106027265D01*
X124599431Y-106027267D01*
X124503261Y-106233502D01*
X124503258Y-106233511D01*
X124444366Y-106453302D01*
X124444364Y-106453313D01*
X124424532Y-106679998D01*
X124424532Y-106680001D01*
X124444364Y-106906686D01*
X124444366Y-106906697D01*
X124503258Y-107126488D01*
X124503261Y-107126497D01*
X124599431Y-107332732D01*
X124599432Y-107332734D01*
X124729954Y-107519141D01*
X124890858Y-107680045D01*
X124890861Y-107680047D01*
X125077266Y-107810568D01*
X125102342Y-107822261D01*
X125135275Y-107837618D01*
X125187714Y-107883791D01*
X125206866Y-107950984D01*
X125186650Y-108017865D01*
X125135275Y-108062382D01*
X125077267Y-108089431D01*
X125077265Y-108089432D01*
X124890858Y-108219954D01*
X124729954Y-108380858D01*
X124599432Y-108567265D01*
X124599431Y-108567267D01*
X124503261Y-108773502D01*
X124503258Y-108773511D01*
X124444366Y-108993302D01*
X124444364Y-108993313D01*
X124424532Y-109219998D01*
X124424532Y-109220001D01*
X124444364Y-109446686D01*
X124444366Y-109446697D01*
X124503258Y-109666488D01*
X124503261Y-109666497D01*
X124599431Y-109872732D01*
X124599432Y-109872734D01*
X124729954Y-110059141D01*
X124890858Y-110220045D01*
X124890861Y-110220047D01*
X125077266Y-110350568D01*
X125135275Y-110377618D01*
X125187714Y-110423791D01*
X125206866Y-110490984D01*
X125186650Y-110557865D01*
X125135275Y-110602382D01*
X125077267Y-110629431D01*
X125077265Y-110629432D01*
X124890858Y-110759954D01*
X124729954Y-110920858D01*
X124599432Y-111107265D01*
X124599431Y-111107267D01*
X124503261Y-111313502D01*
X124503258Y-111313511D01*
X124444366Y-111533302D01*
X124444364Y-111533313D01*
X124424532Y-111759998D01*
X124424532Y-111760000D01*
X124444364Y-111986686D01*
X124444366Y-111986697D01*
X124503258Y-112206488D01*
X124503261Y-112206497D01*
X124599431Y-112412732D01*
X124599432Y-112412734D01*
X124729954Y-112599141D01*
X124890858Y-112760045D01*
X124890861Y-112760047D01*
X125077266Y-112890568D01*
X125283504Y-112986739D01*
X125503308Y-113045635D01*
X125665230Y-113059801D01*
X125729998Y-113065468D01*
X125730000Y-113065468D01*
X125730002Y-113065468D01*
X125786673Y-113060509D01*
X125956692Y-113045635D01*
X126176496Y-112986739D01*
X126382734Y-112890568D01*
X126569139Y-112760047D01*
X126730047Y-112599139D01*
X126860568Y-112412734D01*
X126956739Y-112206496D01*
X127015635Y-111986692D01*
X127035468Y-111760000D01*
X127015635Y-111533308D01*
X126956739Y-111313504D01*
X126951904Y-111303136D01*
X126941410Y-111234062D01*
X126969928Y-111170277D01*
X127028403Y-111132035D01*
X127098270Y-111131478D01*
X127157348Y-111168783D01*
X127165859Y-111179606D01*
X127270338Y-111328816D01*
X127431179Y-111489657D01*
X127617517Y-111620134D01*
X127823673Y-111716265D01*
X127823682Y-111716269D01*
X128019999Y-111768872D01*
X128020000Y-111768871D01*
X128020000Y-110805686D01*
X128024394Y-110810080D01*
X128115606Y-110862741D01*
X128217339Y-110890000D01*
X128322661Y-110890000D01*
X128424394Y-110862741D01*
X128515606Y-110810080D01*
X128520000Y-110805686D01*
X128520000Y-111768872D01*
X128716317Y-111716269D01*
X128716326Y-111716265D01*
X128922482Y-111620134D01*
X129108820Y-111489657D01*
X129269657Y-111328820D01*
X129400134Y-111142482D01*
X129496265Y-110936326D01*
X129496269Y-110936317D01*
X129548872Y-110740000D01*
X128585686Y-110740000D01*
X128590080Y-110735606D01*
X128642741Y-110644394D01*
X128670000Y-110542661D01*
X128670000Y-110437339D01*
X128642741Y-110335606D01*
X128590080Y-110244394D01*
X128585686Y-110240000D01*
X129548872Y-110240000D01*
X129548872Y-110239999D01*
X129496269Y-110043682D01*
X129496265Y-110043673D01*
X129400134Y-109837517D01*
X129269657Y-109651179D01*
X129108820Y-109490342D01*
X128922482Y-109359865D01*
X128864133Y-109332657D01*
X128811694Y-109286484D01*
X128792542Y-109219291D01*
X128812758Y-109152410D01*
X128864129Y-109107895D01*
X128922734Y-109080568D01*
X129109139Y-108950047D01*
X129270047Y-108789139D01*
X129400568Y-108602734D01*
X129496739Y-108396496D01*
X129555635Y-108176692D01*
X129575468Y-107950000D01*
X129574143Y-107934860D01*
X129565612Y-107837342D01*
X129555635Y-107723308D01*
X129496739Y-107503504D01*
X129400568Y-107297266D01*
X129302839Y-107157693D01*
X129270045Y-107110858D01*
X129109141Y-106949954D01*
X128922734Y-106819432D01*
X128922728Y-106819429D01*
X128864725Y-106792382D01*
X128812285Y-106746210D01*
X128793133Y-106679017D01*
X128813348Y-106612135D01*
X128864725Y-106567618D01*
X128922734Y-106540568D01*
X129109139Y-106410047D01*
X129270047Y-106249139D01*
X129400568Y-106062734D01*
X129496739Y-105856496D01*
X129555635Y-105636692D01*
X129575468Y-105410000D01*
X129575440Y-105409685D01*
X129563269Y-105270566D01*
X129555635Y-105183308D01*
X129496739Y-104963504D01*
X129400568Y-104757266D01*
X129302839Y-104617693D01*
X129270045Y-104570858D01*
X129109141Y-104409954D01*
X128922734Y-104279432D01*
X128922728Y-104279429D01*
X128864725Y-104252382D01*
X128812285Y-104206210D01*
X128793133Y-104139017D01*
X128813348Y-104072135D01*
X128864725Y-104027618D01*
X128867187Y-104026470D01*
X128922734Y-104000568D01*
X129109139Y-103870047D01*
X129270047Y-103709139D01*
X129400568Y-103522734D01*
X129496739Y-103316496D01*
X129555635Y-103096692D01*
X129575468Y-102870000D01*
X129555635Y-102643308D01*
X129537916Y-102577181D01*
X129539579Y-102507332D01*
X129570008Y-102457409D01*
X131033601Y-100993819D01*
X131094924Y-100960334D01*
X131121282Y-100957500D01*
X134677213Y-100957500D01*
X134744252Y-100977185D01*
X134778788Y-101010377D01*
X134889954Y-101169141D01*
X135050858Y-101330045D01*
X135050861Y-101330047D01*
X135237266Y-101460568D01*
X135295275Y-101487618D01*
X135347714Y-101533791D01*
X135366866Y-101600984D01*
X135346650Y-101667865D01*
X135295275Y-101712382D01*
X135237267Y-101739431D01*
X135237265Y-101739432D01*
X135050858Y-101869954D01*
X134889954Y-102030858D01*
X134759432Y-102217265D01*
X134759431Y-102217267D01*
X134663261Y-102423502D01*
X134663258Y-102423511D01*
X134604366Y-102643302D01*
X134604364Y-102643313D01*
X134584532Y-102869998D01*
X134584532Y-102870001D01*
X134604364Y-103096686D01*
X134604366Y-103096697D01*
X134663258Y-103316488D01*
X134663261Y-103316497D01*
X134759431Y-103522732D01*
X134759432Y-103522734D01*
X134889954Y-103709141D01*
X135050858Y-103870045D01*
X135070664Y-103883913D01*
X135237266Y-104000568D01*
X135292813Y-104026470D01*
X135295275Y-104027618D01*
X135347714Y-104073791D01*
X135366866Y-104140984D01*
X135346650Y-104207865D01*
X135295275Y-104252382D01*
X135237267Y-104279431D01*
X135237265Y-104279432D01*
X135050858Y-104409954D01*
X134889954Y-104570858D01*
X134778788Y-104729623D01*
X134724212Y-104773248D01*
X134677213Y-104782500D01*
X131351672Y-104782500D01*
X131285700Y-104763494D01*
X131159523Y-104684211D01*
X130989254Y-104624631D01*
X130989249Y-104624630D01*
X130810004Y-104604435D01*
X130809996Y-104604435D01*
X130630750Y-104624630D01*
X130630745Y-104624631D01*
X130460476Y-104684211D01*
X130307737Y-104780184D01*
X130180184Y-104907737D01*
X130084211Y-105060476D01*
X130024631Y-105230745D01*
X130024630Y-105230750D01*
X130004435Y-105409996D01*
X130004435Y-105410003D01*
X130024630Y-105589249D01*
X130024631Y-105589254D01*
X130084211Y-105759523D01*
X130165926Y-105889570D01*
X130180184Y-105912262D01*
X130307738Y-106039816D01*
X130460478Y-106135789D01*
X130520144Y-106156667D01*
X130630745Y-106195368D01*
X130630750Y-106195369D01*
X130809996Y-106215565D01*
X130810000Y-106215565D01*
X130810004Y-106215565D01*
X130989249Y-106195369D01*
X130989252Y-106195368D01*
X130989255Y-106195368D01*
X131159522Y-106135789D01*
X131285700Y-106056505D01*
X131351672Y-106037500D01*
X134677213Y-106037500D01*
X134744252Y-106057185D01*
X134778786Y-106090376D01*
X134810585Y-106135789D01*
X134889954Y-106249141D01*
X135050858Y-106410045D01*
X135050861Y-106410047D01*
X135237266Y-106540568D01*
X135295275Y-106567618D01*
X135347714Y-106613791D01*
X135366866Y-106680984D01*
X135346650Y-106747865D01*
X135295275Y-106792382D01*
X135237267Y-106819431D01*
X135237265Y-106819432D01*
X135050858Y-106949954D01*
X134889954Y-107110858D01*
X134759432Y-107297265D01*
X134759431Y-107297267D01*
X134663261Y-107503502D01*
X134663258Y-107503511D01*
X134604366Y-107723302D01*
X134604364Y-107723313D01*
X134584532Y-107949998D01*
X134584532Y-107950001D01*
X134604364Y-108176686D01*
X134604366Y-108176697D01*
X134663258Y-108396488D01*
X134663261Y-108396497D01*
X134759431Y-108602732D01*
X134759432Y-108602734D01*
X134889954Y-108789141D01*
X135050858Y-108950045D01*
X135050861Y-108950047D01*
X135237266Y-109080568D01*
X135295275Y-109107618D01*
X135347714Y-109153791D01*
X135366866Y-109220984D01*
X135346650Y-109287865D01*
X135295275Y-109332381D01*
X135278272Y-109340310D01*
X135237267Y-109359431D01*
X135237265Y-109359432D01*
X135050858Y-109489954D01*
X134889954Y-109650858D01*
X134759432Y-109837265D01*
X134759431Y-109837267D01*
X134663261Y-110043502D01*
X134663258Y-110043511D01*
X134604366Y-110263302D01*
X134604364Y-110263313D01*
X134584532Y-110489998D01*
X134584532Y-110490001D01*
X134604364Y-110716686D01*
X134604366Y-110716697D01*
X134663258Y-110936488D01*
X134663261Y-110936497D01*
X134759431Y-111142732D01*
X134759432Y-111142734D01*
X134889954Y-111329141D01*
X135050858Y-111490045D01*
X135050861Y-111490047D01*
X135237266Y-111620568D01*
X135443504Y-111716739D01*
X135663308Y-111775635D01*
X135825230Y-111789801D01*
X135889998Y-111795468D01*
X135890000Y-111795468D01*
X135890002Y-111795468D01*
X135946673Y-111790509D01*
X136116692Y-111775635D01*
X136336496Y-111716739D01*
X136542734Y-111620568D01*
X136729139Y-111490047D01*
X136890047Y-111329139D01*
X137020568Y-111142734D01*
X137116739Y-110936496D01*
X137175635Y-110716692D01*
X137195468Y-110490000D01*
X137175635Y-110263308D01*
X137116739Y-110043504D01*
X137020568Y-109837266D01*
X136900869Y-109666317D01*
X136890045Y-109650858D01*
X136729141Y-109489954D01*
X136542734Y-109359432D01*
X136542728Y-109359429D01*
X136515038Y-109346517D01*
X136484724Y-109332381D01*
X136432285Y-109286210D01*
X136413133Y-109219017D01*
X136433348Y-109152135D01*
X136484725Y-109107618D01*
X136542734Y-109080568D01*
X136729139Y-108950047D01*
X136749192Y-108929994D01*
X138754357Y-108929994D01*
X138754357Y-108930005D01*
X138774890Y-109177812D01*
X138774892Y-109177824D01*
X138835936Y-109418881D01*
X138935826Y-109646606D01*
X139071833Y-109854782D01*
X139088354Y-109872728D01*
X139240256Y-110037738D01*
X139436491Y-110190474D01*
X139655190Y-110308828D01*
X139890386Y-110389571D01*
X140135665Y-110430500D01*
X140384335Y-110430500D01*
X140629614Y-110389571D01*
X140864810Y-110308828D01*
X141083509Y-110190474D01*
X141279744Y-110037738D01*
X141448164Y-109854785D01*
X141584173Y-109646607D01*
X141684063Y-109418881D01*
X141745108Y-109177821D01*
X141745977Y-109167339D01*
X141765643Y-108930005D01*
X141765643Y-108929994D01*
X145254357Y-108929994D01*
X145254357Y-108930005D01*
X145274890Y-109177812D01*
X145274892Y-109177824D01*
X145335936Y-109418881D01*
X145435826Y-109646606D01*
X145571833Y-109854782D01*
X145588354Y-109872728D01*
X145740256Y-110037738D01*
X145936491Y-110190474D01*
X146155190Y-110308828D01*
X146390386Y-110389571D01*
X146635665Y-110430500D01*
X146884335Y-110430500D01*
X147129614Y-110389571D01*
X147364810Y-110308828D01*
X147583509Y-110190474D01*
X147779744Y-110037738D01*
X147948164Y-109854785D01*
X148084173Y-109646607D01*
X148184063Y-109418881D01*
X148245108Y-109177821D01*
X148245977Y-109167339D01*
X148265643Y-108930005D01*
X148265643Y-108929994D01*
X148245109Y-108682187D01*
X148245107Y-108682175D01*
X148184063Y-108441118D01*
X148084173Y-108213393D01*
X147948166Y-108005217D01*
X147896175Y-107948740D01*
X147779744Y-107822262D01*
X147583509Y-107669526D01*
X147583507Y-107669525D01*
X147583506Y-107669524D01*
X147364811Y-107551172D01*
X147364802Y-107551169D01*
X147129616Y-107470429D01*
X146884335Y-107429500D01*
X146635665Y-107429500D01*
X146390383Y-107470429D01*
X146155197Y-107551169D01*
X146155188Y-107551172D01*
X145936493Y-107669524D01*
X145740257Y-107822261D01*
X145571833Y-108005217D01*
X145435826Y-108213393D01*
X145335936Y-108441118D01*
X145274892Y-108682175D01*
X145274890Y-108682187D01*
X145254357Y-108929994D01*
X141765643Y-108929994D01*
X141745109Y-108682187D01*
X141745107Y-108682175D01*
X141684063Y-108441118D01*
X141584173Y-108213393D01*
X141448166Y-108005217D01*
X141396175Y-107948740D01*
X141279744Y-107822262D01*
X141083509Y-107669526D01*
X141083507Y-107669525D01*
X141083506Y-107669524D01*
X140864811Y-107551172D01*
X140864802Y-107551169D01*
X140629616Y-107470429D01*
X140384335Y-107429500D01*
X140135665Y-107429500D01*
X139890383Y-107470429D01*
X139655197Y-107551169D01*
X139655188Y-107551172D01*
X139436493Y-107669524D01*
X139240257Y-107822261D01*
X139071833Y-108005217D01*
X138935826Y-108213393D01*
X138835936Y-108441118D01*
X138774892Y-108682175D01*
X138774890Y-108682187D01*
X138754357Y-108929994D01*
X136749192Y-108929994D01*
X136890047Y-108789139D01*
X137020568Y-108602734D01*
X137116739Y-108396496D01*
X137175635Y-108176692D01*
X137195468Y-107950000D01*
X137194143Y-107934860D01*
X137185612Y-107837342D01*
X137175635Y-107723308D01*
X137116739Y-107503504D01*
X137020568Y-107297266D01*
X136922839Y-107157693D01*
X136890045Y-107110858D01*
X136729141Y-106949954D01*
X136542734Y-106819432D01*
X136542728Y-106819429D01*
X136484725Y-106792382D01*
X136432285Y-106746210D01*
X136413133Y-106679017D01*
X136433348Y-106612135D01*
X136484725Y-106567618D01*
X136542734Y-106540568D01*
X136729139Y-106410047D01*
X136890047Y-106249139D01*
X137020568Y-106062734D01*
X137116739Y-105856496D01*
X137175635Y-105636692D01*
X137195468Y-105410000D01*
X137195440Y-105409685D01*
X137183269Y-105270566D01*
X137175635Y-105183308D01*
X137116739Y-104963504D01*
X137020568Y-104757266D01*
X136922839Y-104617693D01*
X136890045Y-104570858D01*
X136749181Y-104429994D01*
X138754357Y-104429994D01*
X138754357Y-104430005D01*
X138774890Y-104677812D01*
X138774892Y-104677824D01*
X138835936Y-104918881D01*
X138935826Y-105146606D01*
X139071833Y-105354782D01*
X139071836Y-105354785D01*
X139240256Y-105537738D01*
X139436491Y-105690474D01*
X139436493Y-105690475D01*
X139564080Y-105759522D01*
X139655190Y-105808828D01*
X139890386Y-105889571D01*
X140135665Y-105930500D01*
X140384335Y-105930500D01*
X140629614Y-105889571D01*
X140864810Y-105808828D01*
X141083509Y-105690474D01*
X141279744Y-105537738D01*
X141448164Y-105354785D01*
X141584173Y-105146607D01*
X141684063Y-104918881D01*
X141745108Y-104677821D01*
X141745109Y-104677812D01*
X141765643Y-104430005D01*
X141765643Y-104429994D01*
X141745109Y-104182187D01*
X141745107Y-104182175D01*
X141684063Y-103941118D01*
X141584173Y-103713393D01*
X141448166Y-103505217D01*
X141345172Y-103393336D01*
X141279744Y-103322262D01*
X141083509Y-103169526D01*
X141083507Y-103169525D01*
X141083506Y-103169524D01*
X140864811Y-103051172D01*
X140864802Y-103051169D01*
X140629616Y-102970429D01*
X140384335Y-102929500D01*
X140135665Y-102929500D01*
X139890383Y-102970429D01*
X139655197Y-103051169D01*
X139655188Y-103051172D01*
X139436493Y-103169524D01*
X139240257Y-103322261D01*
X139071833Y-103505217D01*
X138935826Y-103713393D01*
X138835936Y-103941118D01*
X138774892Y-104182175D01*
X138774890Y-104182187D01*
X138754357Y-104429994D01*
X136749181Y-104429994D01*
X136729141Y-104409954D01*
X136542734Y-104279432D01*
X136542728Y-104279429D01*
X136484725Y-104252382D01*
X136432285Y-104206210D01*
X136413133Y-104139017D01*
X136433348Y-104072135D01*
X136484725Y-104027618D01*
X136487187Y-104026470D01*
X136542734Y-104000568D01*
X136729139Y-103870047D01*
X136890047Y-103709139D01*
X137020568Y-103522734D01*
X137116739Y-103316496D01*
X137175635Y-103096692D01*
X137195468Y-102870000D01*
X137175635Y-102643308D01*
X137116739Y-102423504D01*
X137020568Y-102217266D01*
X136922839Y-102077693D01*
X136890045Y-102030858D01*
X136729141Y-101869954D01*
X136542734Y-101739432D01*
X136542728Y-101739429D01*
X136484725Y-101712382D01*
X136432285Y-101666210D01*
X136413133Y-101599017D01*
X136433348Y-101532135D01*
X136484725Y-101487618D01*
X136542734Y-101460568D01*
X136729139Y-101330047D01*
X136890047Y-101169139D01*
X137020568Y-100982734D01*
X137047618Y-100924724D01*
X137093790Y-100872285D01*
X137160983Y-100853133D01*
X137227865Y-100873348D01*
X137272382Y-100924725D01*
X137299429Y-100982728D01*
X137299432Y-100982734D01*
X137429954Y-101169141D01*
X137590858Y-101330045D01*
X137590861Y-101330047D01*
X137777266Y-101460568D01*
X137983504Y-101556739D01*
X138203308Y-101615635D01*
X138365230Y-101629801D01*
X138429998Y-101635468D01*
X138430000Y-101635468D01*
X138430002Y-101635468D01*
X138486673Y-101630509D01*
X138656692Y-101615635D01*
X138876496Y-101556739D01*
X139082734Y-101460568D01*
X139269139Y-101330047D01*
X139430047Y-101169139D01*
X139560568Y-100982734D01*
X139656739Y-100776496D01*
X139715635Y-100556692D01*
X139735468Y-100330000D01*
X139715635Y-100103308D01*
X139656739Y-99883504D01*
X139560568Y-99677266D01*
X139462839Y-99537693D01*
X139430045Y-99490858D01*
X139269141Y-99329954D01*
X139082734Y-99199432D01*
X139082732Y-99199431D01*
X138876497Y-99103261D01*
X138876488Y-99103258D01*
X138656697Y-99044366D01*
X138656693Y-99044365D01*
X138656692Y-99044365D01*
X138656691Y-99044364D01*
X138656686Y-99044364D01*
X138430002Y-99024532D01*
X138429998Y-99024532D01*
X138203313Y-99044364D01*
X138203302Y-99044366D01*
X137983511Y-99103258D01*
X137983502Y-99103261D01*
X137777267Y-99199431D01*
X137777265Y-99199432D01*
X137590858Y-99329954D01*
X137429954Y-99490858D01*
X137299432Y-99677265D01*
X137299431Y-99677267D01*
X137294145Y-99688604D01*
X137273482Y-99732917D01*
X137272382Y-99735275D01*
X137226209Y-99787714D01*
X137159016Y-99806866D01*
X137092135Y-99786650D01*
X137047618Y-99735275D01*
X137020568Y-99677266D01*
X136922839Y-99537693D01*
X136890045Y-99490858D01*
X136729141Y-99329954D01*
X136542734Y-99199432D01*
X136542728Y-99199429D01*
X136484725Y-99172382D01*
X136432285Y-99126210D01*
X136413133Y-99059017D01*
X136433348Y-98992135D01*
X136484725Y-98947618D01*
X136542734Y-98920568D01*
X136729139Y-98790047D01*
X136890047Y-98629139D01*
X137020568Y-98442734D01*
X137116739Y-98236496D01*
X137175635Y-98016692D01*
X137195468Y-97790000D01*
X137175635Y-97563308D01*
X137116739Y-97343504D01*
X137107599Y-97323903D01*
X137097108Y-97254826D01*
X137125629Y-97191042D01*
X137184106Y-97152803D01*
X137219982Y-97147500D01*
X143305804Y-97147500D01*
X143305805Y-97147499D01*
X143427035Y-97123386D01*
X143507784Y-97089937D01*
X143541233Y-97076083D01*
X143644008Y-97007411D01*
X143731411Y-96920008D01*
X143997411Y-96654008D01*
X144007642Y-96638695D01*
X144027691Y-96608692D01*
X144066082Y-96551234D01*
X144066083Y-96551233D01*
X144096939Y-96476741D01*
X144103421Y-96461092D01*
X144105559Y-96455928D01*
X144112043Y-96440274D01*
X144155879Y-96385872D01*
X144222172Y-96363803D01*
X144289873Y-96381079D01*
X144293747Y-96383520D01*
X144294238Y-96383782D01*
X144294244Y-96383786D01*
X144480873Y-96461091D01*
X144678992Y-96500499D01*
X144678996Y-96500500D01*
X144678997Y-96500500D01*
X144881004Y-96500500D01*
X144881005Y-96500499D01*
X145079127Y-96461091D01*
X145265756Y-96383786D01*
X145433718Y-96271558D01*
X145576558Y-96128718D01*
X145688786Y-95960756D01*
X145703439Y-95925381D01*
X145747280Y-95870978D01*
X145813574Y-95848913D01*
X145881273Y-95866192D01*
X145928884Y-95917329D01*
X145942000Y-95972834D01*
X145942000Y-103104617D01*
X145922315Y-103171656D01*
X145894163Y-103202470D01*
X145740258Y-103322260D01*
X145571833Y-103505217D01*
X145435826Y-103713393D01*
X145335936Y-103941118D01*
X145274892Y-104182175D01*
X145274890Y-104182187D01*
X145254357Y-104429994D01*
X145254357Y-104430005D01*
X145274890Y-104677812D01*
X145274892Y-104677824D01*
X145335936Y-104918881D01*
X145435826Y-105146606D01*
X145571833Y-105354782D01*
X145571836Y-105354785D01*
X145740256Y-105537738D01*
X145936491Y-105690474D01*
X145936493Y-105690475D01*
X146064080Y-105759522D01*
X146155190Y-105808828D01*
X146390386Y-105889571D01*
X146635665Y-105930500D01*
X146884335Y-105930500D01*
X147129614Y-105889571D01*
X147364810Y-105808828D01*
X147583509Y-105690474D01*
X147779744Y-105537738D01*
X147948164Y-105354785D01*
X148084173Y-105146607D01*
X148184063Y-104918881D01*
X148245108Y-104677821D01*
X148245109Y-104677812D01*
X148265643Y-104430005D01*
X148265643Y-104429994D01*
X148245109Y-104182187D01*
X148245107Y-104182175D01*
X148184063Y-103941118D01*
X148084173Y-103713393D01*
X147948166Y-103505217D01*
X147845172Y-103393336D01*
X147779744Y-103322262D01*
X147747031Y-103296800D01*
X147625837Y-103202470D01*
X147585024Y-103145759D01*
X147578000Y-103104617D01*
X147578000Y-101447210D01*
X147597685Y-101380171D01*
X147650489Y-101334416D01*
X147719647Y-101324472D01*
X147773123Y-101345635D01*
X147937266Y-101460568D01*
X148143504Y-101556739D01*
X148363308Y-101615635D01*
X148525230Y-101629801D01*
X148589998Y-101635468D01*
X148590000Y-101635468D01*
X148590002Y-101635468D01*
X148646673Y-101630509D01*
X148816692Y-101615635D01*
X149036496Y-101556739D01*
X149242734Y-101460568D01*
X149429139Y-101330047D01*
X149590047Y-101169139D01*
X149720568Y-100982734D01*
X149816739Y-100776496D01*
X149875635Y-100556692D01*
X149895468Y-100330000D01*
X149875635Y-100103308D01*
X149816739Y-99883504D01*
X149720568Y-99677266D01*
X149622839Y-99537693D01*
X149590045Y-99490858D01*
X149429141Y-99329954D01*
X149242734Y-99199432D01*
X149242732Y-99199431D01*
X149036497Y-99103261D01*
X149036488Y-99103258D01*
X148816697Y-99044366D01*
X148816693Y-99044365D01*
X148816692Y-99044365D01*
X148816691Y-99044364D01*
X148816686Y-99044364D01*
X148590002Y-99024532D01*
X148589998Y-99024532D01*
X148363313Y-99044364D01*
X148363302Y-99044366D01*
X148143511Y-99103258D01*
X148143502Y-99103261D01*
X147937267Y-99199431D01*
X147773122Y-99314365D01*
X147706916Y-99336692D01*
X147639149Y-99319680D01*
X147591337Y-99268732D01*
X147578000Y-99212789D01*
X147578000Y-94820911D01*
X147597685Y-94753872D01*
X147650489Y-94708117D01*
X147719647Y-94698173D01*
X147783203Y-94727198D01*
X147789681Y-94733230D01*
X152163181Y-99106730D01*
X152196666Y-99168053D01*
X152199500Y-99194411D01*
X152199500Y-101654063D01*
X152179815Y-101721102D01*
X152127011Y-101766857D01*
X152057853Y-101776801D01*
X151999338Y-101751917D01*
X151907580Y-101680499D01*
X151898626Y-101673530D01*
X151762751Y-101599998D01*
X151694504Y-101563064D01*
X151694495Y-101563061D01*
X151474984Y-101487702D01*
X151303282Y-101459050D01*
X151246049Y-101449500D01*
X151013951Y-101449500D01*
X150968164Y-101457140D01*
X150785015Y-101487702D01*
X150565504Y-101563061D01*
X150565495Y-101563064D01*
X150361371Y-101673531D01*
X150361365Y-101673535D01*
X150178222Y-101816081D01*
X150178219Y-101816084D01*
X150178216Y-101816086D01*
X150178216Y-101816087D01*
X150168449Y-101826697D01*
X150021016Y-101986852D01*
X149894075Y-102181151D01*
X149800842Y-102393699D01*
X149743866Y-102618691D01*
X149743864Y-102618702D01*
X149724700Y-102849993D01*
X149724700Y-102850006D01*
X149743864Y-103081297D01*
X149743866Y-103081308D01*
X149800842Y-103306300D01*
X149894075Y-103518848D01*
X150021018Y-103713150D01*
X150116167Y-103816510D01*
X150147089Y-103879164D01*
X150139228Y-103948590D01*
X150095081Y-104002746D01*
X150068271Y-104016674D01*
X149987911Y-104046646D01*
X149987906Y-104046649D01*
X149872812Y-104132809D01*
X149872809Y-104132812D01*
X149786649Y-104247906D01*
X149786645Y-104247913D01*
X149736403Y-104382620D01*
X149736401Y-104382627D01*
X149730000Y-104442155D01*
X149730000Y-105140000D01*
X150754722Y-105140000D01*
X150710667Y-105216306D01*
X150680000Y-105330756D01*
X150680000Y-105449244D01*
X150710667Y-105563694D01*
X150754722Y-105640000D01*
X149730000Y-105640000D01*
X149730000Y-106337844D01*
X149736401Y-106397372D01*
X149736403Y-106397379D01*
X149786645Y-106532086D01*
X149786649Y-106532093D01*
X149872809Y-106647187D01*
X149872812Y-106647190D01*
X149987906Y-106733350D01*
X149987913Y-106733354D01*
X150122620Y-106783596D01*
X150122627Y-106783598D01*
X150182155Y-106789999D01*
X150182172Y-106790000D01*
X150880000Y-106790000D01*
X150880000Y-105765277D01*
X150956306Y-105809333D01*
X151070756Y-105840000D01*
X151189244Y-105840000D01*
X151303694Y-105809333D01*
X151380000Y-105765277D01*
X151380000Y-106790000D01*
X152075500Y-106790000D01*
X152142539Y-106809685D01*
X152188294Y-106862489D01*
X152199500Y-106914000D01*
X152199500Y-109085588D01*
X152179815Y-109152627D01*
X152163181Y-109173269D01*
X147614359Y-113722090D01*
X147553036Y-113755575D01*
X147483344Y-113750591D01*
X147427411Y-113708719D01*
X147402994Y-113643255D01*
X147408747Y-113596090D01*
X147466734Y-113417628D01*
X147488532Y-113280000D01*
X146540748Y-113280000D01*
X146562518Y-113242292D01*
X146600000Y-113102409D01*
X146600000Y-112957591D01*
X146562518Y-112817708D01*
X146540748Y-112780000D01*
X147488532Y-112780000D01*
X147466734Y-112642371D01*
X147396082Y-112424929D01*
X147292288Y-112221223D01*
X147157902Y-112036257D01*
X146996242Y-111874597D01*
X146811276Y-111740211D01*
X146607568Y-111636417D01*
X146390124Y-111565765D01*
X146300000Y-111551490D01*
X146300000Y-112539252D01*
X146262292Y-112517482D01*
X146122409Y-112480000D01*
X145977591Y-112480000D01*
X145837708Y-112517482D01*
X145800000Y-112539252D01*
X145800000Y-111551490D01*
X145799999Y-111551490D01*
X145709875Y-111565765D01*
X145492431Y-111636417D01*
X145288723Y-111740211D01*
X145103757Y-111874597D01*
X144942097Y-112036257D01*
X144880627Y-112120864D01*
X144825297Y-112163529D01*
X144755684Y-112169508D01*
X144693889Y-112136902D01*
X144679991Y-112120864D01*
X144618286Y-112035934D01*
X144456566Y-111874214D01*
X144271538Y-111739783D01*
X144067755Y-111635950D01*
X143850248Y-111565278D01*
X143648428Y-111533313D01*
X143624354Y-111529500D01*
X143395646Y-111529500D01*
X143359134Y-111535283D01*
X143169753Y-111565278D01*
X143169750Y-111565278D01*
X142952244Y-111635950D01*
X142748461Y-111739783D01*
X142565759Y-111872525D01*
X142499952Y-111896005D01*
X142431898Y-111880180D01*
X142383203Y-111830074D01*
X142376690Y-111815538D01*
X142369017Y-111794966D01*
X142366296Y-111787669D01*
X142366293Y-111787664D01*
X142280047Y-111672455D01*
X142280044Y-111672452D01*
X142164835Y-111586206D01*
X142164828Y-111586202D01*
X142029982Y-111535908D01*
X142029983Y-111535908D01*
X141970383Y-111529501D01*
X141970381Y-111529500D01*
X141970373Y-111529500D01*
X141970364Y-111529500D01*
X139969629Y-111529500D01*
X139969623Y-111529501D01*
X139910016Y-111535908D01*
X139775171Y-111586202D01*
X139775164Y-111586206D01*
X139659955Y-111672452D01*
X139659952Y-111672455D01*
X139573706Y-111787664D01*
X139573702Y-111787671D01*
X139523408Y-111922517D01*
X139517001Y-111982116D01*
X139517000Y-111982127D01*
X139517000Y-113010315D01*
X139517001Y-113975500D01*
X139497316Y-114042539D01*
X139444513Y-114088294D01*
X139393001Y-114099500D01*
X95252214Y-114099500D01*
X95247788Y-114099421D01*
X94725131Y-114080754D01*
X94716302Y-114080123D01*
X94198495Y-114024453D01*
X94189733Y-114023193D01*
X93677223Y-113930726D01*
X93668574Y-113928844D01*
X93163973Y-113800052D01*
X93155480Y-113797558D01*
X92661359Y-113633098D01*
X92653065Y-113630005D01*
X92171922Y-113430710D01*
X92163871Y-113427033D01*
X91698168Y-113193919D01*
X91690406Y-113189681D01*
X91242517Y-112923937D01*
X91235075Y-112919154D01*
X91193903Y-112890568D01*
X91005356Y-112759657D01*
X90807292Y-112622138D01*
X90800206Y-112616833D01*
X90394716Y-112290068D01*
X90388026Y-112284272D01*
X90006862Y-111929396D01*
X90000603Y-111923137D01*
X89645727Y-111541973D01*
X89639931Y-111535283D01*
X89313166Y-111129793D01*
X89307861Y-111122707D01*
X89202994Y-110971670D01*
X89010837Y-110694912D01*
X89006067Y-110687489D01*
X88740313Y-110239584D01*
X88736080Y-110231831D01*
X88730181Y-110220047D01*
X88638924Y-110037738D01*
X88502966Y-109766128D01*
X88499289Y-109758077D01*
X88299994Y-109276934D01*
X88296901Y-109268640D01*
X88280711Y-109219997D01*
X88865034Y-109219997D01*
X88865034Y-109220002D01*
X88884858Y-109446599D01*
X88884860Y-109446610D01*
X88943730Y-109666317D01*
X88943735Y-109666331D01*
X89039863Y-109872478D01*
X89090974Y-109945472D01*
X89770000Y-109266446D01*
X89770000Y-109272661D01*
X89797259Y-109374394D01*
X89849920Y-109465606D01*
X89924394Y-109540080D01*
X90015606Y-109592741D01*
X90117339Y-109620000D01*
X90123553Y-109620000D01*
X89444526Y-110299025D01*
X89517513Y-110350132D01*
X89517521Y-110350136D01*
X89723668Y-110446264D01*
X89723682Y-110446269D01*
X89943389Y-110505139D01*
X89943400Y-110505141D01*
X90169998Y-110524966D01*
X90170002Y-110524966D01*
X90396599Y-110505141D01*
X90396610Y-110505139D01*
X90453121Y-110489997D01*
X93945034Y-110489997D01*
X93945034Y-110490002D01*
X93964858Y-110716599D01*
X93964860Y-110716610D01*
X94023730Y-110936317D01*
X94023735Y-110936331D01*
X94119863Y-111142478D01*
X94170974Y-111215472D01*
X94850000Y-110536446D01*
X94850000Y-110542661D01*
X94877259Y-110644394D01*
X94929920Y-110735606D01*
X95004394Y-110810080D01*
X95095606Y-110862741D01*
X95197339Y-110890000D01*
X95203553Y-110890000D01*
X94524526Y-111569025D01*
X94597513Y-111620132D01*
X94597521Y-111620136D01*
X94803668Y-111716264D01*
X94803682Y-111716269D01*
X95023389Y-111775139D01*
X95023400Y-111775141D01*
X95249998Y-111794966D01*
X95250002Y-111794966D01*
X95476599Y-111775141D01*
X95476610Y-111775139D01*
X95696317Y-111716269D01*
X95696331Y-111716264D01*
X95902478Y-111620136D01*
X95975471Y-111569024D01*
X95296447Y-110890000D01*
X95302661Y-110890000D01*
X95404394Y-110862741D01*
X95495606Y-110810080D01*
X95570080Y-110735606D01*
X95622741Y-110644394D01*
X95650000Y-110542661D01*
X95650000Y-110536447D01*
X96329024Y-111215471D01*
X96380136Y-111142478D01*
X96476264Y-110936331D01*
X96476269Y-110936317D01*
X96535139Y-110716610D01*
X96535141Y-110716599D01*
X96554966Y-110490002D01*
X96554966Y-110489998D01*
X101564532Y-110489998D01*
X101564532Y-110490001D01*
X101584364Y-110716686D01*
X101584366Y-110716697D01*
X101643258Y-110936488D01*
X101643261Y-110936497D01*
X101739431Y-111142732D01*
X101739432Y-111142734D01*
X101869954Y-111329141D01*
X102030858Y-111490045D01*
X102030861Y-111490047D01*
X102217266Y-111620568D01*
X102423504Y-111716739D01*
X102643308Y-111775635D01*
X102805230Y-111789801D01*
X102869998Y-111795468D01*
X102870000Y-111795468D01*
X102870002Y-111795468D01*
X102926673Y-111790509D01*
X103096692Y-111775635D01*
X103316496Y-111716739D01*
X103522734Y-111620568D01*
X103709139Y-111490047D01*
X103870047Y-111329139D01*
X104000568Y-111142734D01*
X104096739Y-110936496D01*
X104155635Y-110716692D01*
X104175468Y-110490000D01*
X104155635Y-110263308D01*
X104096739Y-110043504D01*
X104000568Y-109837266D01*
X103880869Y-109666317D01*
X103870045Y-109650858D01*
X103709141Y-109489954D01*
X103522734Y-109359432D01*
X103522732Y-109359431D01*
X103316497Y-109263261D01*
X103316488Y-109263258D01*
X103096697Y-109204366D01*
X103096693Y-109204365D01*
X103096692Y-109204365D01*
X103096691Y-109204364D01*
X103096686Y-109204364D01*
X102870002Y-109184532D01*
X102869998Y-109184532D01*
X102643313Y-109204364D01*
X102643302Y-109204366D01*
X102423511Y-109263258D01*
X102423502Y-109263261D01*
X102217267Y-109359431D01*
X102217265Y-109359432D01*
X102030858Y-109489954D01*
X101869954Y-109650858D01*
X101739432Y-109837265D01*
X101739431Y-109837267D01*
X101643261Y-110043502D01*
X101643258Y-110043511D01*
X101584366Y-110263302D01*
X101584364Y-110263313D01*
X101564532Y-110489998D01*
X96554966Y-110489998D01*
X96554966Y-110489997D01*
X96535141Y-110263400D01*
X96535139Y-110263389D01*
X96476269Y-110043682D01*
X96476264Y-110043668D01*
X96380136Y-109837521D01*
X96380132Y-109837513D01*
X96329025Y-109764526D01*
X95650000Y-110443551D01*
X95650000Y-110437339D01*
X95622741Y-110335606D01*
X95570080Y-110244394D01*
X95495606Y-110169920D01*
X95404394Y-110117259D01*
X95302661Y-110090000D01*
X95296445Y-110090000D01*
X95975472Y-109410974D01*
X95902478Y-109359863D01*
X95696331Y-109263735D01*
X95696317Y-109263730D01*
X95476610Y-109204860D01*
X95476599Y-109204858D01*
X95250002Y-109185034D01*
X95249998Y-109185034D01*
X95023400Y-109204858D01*
X95023389Y-109204860D01*
X94803682Y-109263730D01*
X94803673Y-109263734D01*
X94597516Y-109359866D01*
X94597512Y-109359868D01*
X94524526Y-109410973D01*
X94524526Y-109410974D01*
X95203553Y-110090000D01*
X95197339Y-110090000D01*
X95095606Y-110117259D01*
X95004394Y-110169920D01*
X94929920Y-110244394D01*
X94877259Y-110335606D01*
X94850000Y-110437339D01*
X94850000Y-110443552D01*
X94170974Y-109764526D01*
X94170973Y-109764526D01*
X94119868Y-109837512D01*
X94119866Y-109837516D01*
X94023734Y-110043673D01*
X94023730Y-110043682D01*
X93964860Y-110263389D01*
X93964858Y-110263400D01*
X93945034Y-110489997D01*
X90453121Y-110489997D01*
X90616317Y-110446269D01*
X90616331Y-110446264D01*
X90822478Y-110350136D01*
X90895471Y-110299024D01*
X90216447Y-109620000D01*
X90222661Y-109620000D01*
X90324394Y-109592741D01*
X90415606Y-109540080D01*
X90490080Y-109465606D01*
X90542741Y-109374394D01*
X90570000Y-109272661D01*
X90570000Y-109266447D01*
X91249024Y-109945471D01*
X91300136Y-109872478D01*
X91396264Y-109666331D01*
X91396269Y-109666317D01*
X91455139Y-109446610D01*
X91455141Y-109446599D01*
X91474966Y-109220002D01*
X91474966Y-109219997D01*
X91455141Y-108993400D01*
X91455139Y-108993389D01*
X91396269Y-108773682D01*
X91396264Y-108773668D01*
X91300136Y-108567521D01*
X91300132Y-108567513D01*
X91249025Y-108494526D01*
X90570000Y-109173551D01*
X90570000Y-109167339D01*
X90542741Y-109065606D01*
X90490080Y-108974394D01*
X90415606Y-108899920D01*
X90324394Y-108847259D01*
X90222661Y-108820000D01*
X90216445Y-108820000D01*
X90895472Y-108140974D01*
X90822478Y-108089863D01*
X90616331Y-107993735D01*
X90616317Y-107993730D01*
X90396610Y-107934860D01*
X90396599Y-107934858D01*
X90170002Y-107915034D01*
X90169998Y-107915034D01*
X89943400Y-107934858D01*
X89943389Y-107934860D01*
X89723682Y-107993730D01*
X89723673Y-107993734D01*
X89517516Y-108089866D01*
X89517512Y-108089868D01*
X89444526Y-108140973D01*
X89444526Y-108140974D01*
X90123553Y-108820000D01*
X90117339Y-108820000D01*
X90015606Y-108847259D01*
X89924394Y-108899920D01*
X89849920Y-108974394D01*
X89797259Y-109065606D01*
X89770000Y-109167339D01*
X89770000Y-109173552D01*
X89090974Y-108494526D01*
X89090973Y-108494526D01*
X89039868Y-108567512D01*
X89039866Y-108567516D01*
X88943734Y-108773673D01*
X88943730Y-108773682D01*
X88884860Y-108993389D01*
X88884858Y-108993400D01*
X88865034Y-109219997D01*
X88280711Y-109219997D01*
X88132439Y-108774513D01*
X88129947Y-108766026D01*
X88112244Y-108696667D01*
X88001150Y-108261405D01*
X87999277Y-108252797D01*
X87906802Y-107740243D01*
X87905549Y-107731527D01*
X87849874Y-107213679D01*
X87849246Y-107204886D01*
X87830579Y-106682211D01*
X87830500Y-106677785D01*
X87830500Y-104219998D01*
X88864532Y-104219998D01*
X88864532Y-104220001D01*
X88884364Y-104446686D01*
X88884366Y-104446697D01*
X88943258Y-104666488D01*
X88943261Y-104666497D01*
X89039431Y-104872732D01*
X89039432Y-104872734D01*
X89169954Y-105059141D01*
X89330858Y-105220045D01*
X89330861Y-105220047D01*
X89517266Y-105350568D01*
X89723504Y-105446739D01*
X89723509Y-105446740D01*
X89723511Y-105446741D01*
X89776415Y-105460916D01*
X89943308Y-105505635D01*
X90105230Y-105519801D01*
X90169998Y-105525468D01*
X90170000Y-105525468D01*
X90170002Y-105525468D01*
X90226673Y-105520509D01*
X90396692Y-105505635D01*
X90616496Y-105446739D01*
X90822734Y-105350568D01*
X91009139Y-105220047D01*
X91170047Y-105059139D01*
X91300568Y-104872734D01*
X91396739Y-104666496D01*
X91455635Y-104446692D01*
X91475468Y-104220000D01*
X91455635Y-103993308D01*
X91396739Y-103773504D01*
X91300568Y-103567266D01*
X91170047Y-103380861D01*
X91170045Y-103380858D01*
X91009141Y-103219954D01*
X90822734Y-103089432D01*
X90822732Y-103089431D01*
X90616497Y-102993261D01*
X90616488Y-102993258D01*
X90396697Y-102934366D01*
X90396693Y-102934365D01*
X90396692Y-102934365D01*
X90396691Y-102934364D01*
X90396686Y-102934364D01*
X90170002Y-102914532D01*
X90169998Y-102914532D01*
X89943313Y-102934364D01*
X89943302Y-102934366D01*
X89723511Y-102993258D01*
X89723502Y-102993261D01*
X89517267Y-103089431D01*
X89517265Y-103089432D01*
X89330858Y-103219954D01*
X89169954Y-103380858D01*
X89039432Y-103567265D01*
X89039431Y-103567267D01*
X88943261Y-103773502D01*
X88943258Y-103773511D01*
X88884366Y-103993302D01*
X88884364Y-103993313D01*
X88864532Y-104219998D01*
X87830500Y-104219998D01*
X87830500Y-99062214D01*
X87830579Y-99057788D01*
X87833375Y-98979500D01*
X87849246Y-98535111D01*
X87849874Y-98526322D01*
X87905549Y-98008468D01*
X87906802Y-97999760D01*
X87999278Y-97487196D01*
X88001149Y-97478600D01*
X88129951Y-96973958D01*
X88132436Y-96965494D01*
X88296905Y-96471348D01*
X88299994Y-96463065D01*
X88300812Y-96461092D01*
X88499291Y-95981916D01*
X88502966Y-95973871D01*
X88605767Y-95768500D01*
X88736089Y-95508151D01*
X88740306Y-95500427D01*
X89006074Y-95052497D01*
X89010828Y-95045100D01*
X89307868Y-94617281D01*
X89313158Y-94610216D01*
X89639942Y-94204703D01*
X89645715Y-94198039D01*
X90000610Y-93816854D01*
X90006854Y-93810610D01*
X90388039Y-93455715D01*
X90394703Y-93449942D01*
X90800216Y-93123158D01*
X90807281Y-93117868D01*
X91235100Y-92820828D01*
X91242497Y-92816074D01*
X91690427Y-92550306D01*
X91698151Y-92546089D01*
X92045028Y-92372454D01*
X92163871Y-92312966D01*
X92171916Y-92309291D01*
X92653076Y-92109989D01*
X92661348Y-92106905D01*
X93155494Y-91942436D01*
X93163958Y-91939951D01*
X93302373Y-91904623D01*
X93372199Y-91907117D01*
G37*
G04 #@! TD.AperFunction*
G04 #@! TA.AperFunction,Conductor*
G36*
X116907865Y-109763348D02*
G01*
X116952381Y-109814724D01*
X116963010Y-109837517D01*
X116979429Y-109872728D01*
X116979432Y-109872734D01*
X117109954Y-110059141D01*
X117270858Y-110220045D01*
X117270861Y-110220047D01*
X117457266Y-110350568D01*
X117515865Y-110377893D01*
X117568305Y-110424065D01*
X117587457Y-110491258D01*
X117567242Y-110558139D01*
X117515867Y-110602657D01*
X117457515Y-110629867D01*
X117271179Y-110760342D01*
X117110342Y-110921179D01*
X116979867Y-111107515D01*
X116952657Y-111165867D01*
X116906484Y-111218306D01*
X116839290Y-111237457D01*
X116772409Y-111217241D01*
X116727893Y-111165865D01*
X116716989Y-111142482D01*
X116700568Y-111107266D01*
X116570047Y-110920861D01*
X116570045Y-110920858D01*
X116409141Y-110759954D01*
X116222734Y-110629432D01*
X116222728Y-110629429D01*
X116164725Y-110602382D01*
X116112285Y-110556210D01*
X116093133Y-110489017D01*
X116113348Y-110422135D01*
X116164725Y-110377618D01*
X116222734Y-110350568D01*
X116409139Y-110220047D01*
X116570047Y-110059139D01*
X116700568Y-109872734D01*
X116727618Y-109814724D01*
X116773790Y-109762285D01*
X116840983Y-109743133D01*
X116907865Y-109763348D01*
G37*
G04 #@! TD.AperFunction*
G04 #@! TA.AperFunction,Conductor*
G36*
X127021004Y-109890558D02*
G01*
X127056419Y-109950788D01*
X127053649Y-110020602D01*
X127048533Y-110033380D01*
X127043735Y-110043667D01*
X127043730Y-110043682D01*
X126991127Y-110239999D01*
X126991128Y-110240000D01*
X127954314Y-110240000D01*
X127949920Y-110244394D01*
X127897259Y-110335606D01*
X127870000Y-110437339D01*
X127870000Y-110542661D01*
X127897259Y-110644394D01*
X127949920Y-110735606D01*
X127954314Y-110740000D01*
X126991128Y-110740000D01*
X127043730Y-110936317D01*
X127043733Y-110936326D01*
X127048532Y-110946616D01*
X127059024Y-111015693D01*
X127030504Y-111079477D01*
X126972028Y-111117717D01*
X126902160Y-111118272D01*
X126843084Y-111080965D01*
X126834575Y-111070144D01*
X126730045Y-110920858D01*
X126569141Y-110759954D01*
X126382734Y-110629432D01*
X126382728Y-110629429D01*
X126324725Y-110602382D01*
X126272285Y-110556210D01*
X126253133Y-110489017D01*
X126273348Y-110422135D01*
X126324725Y-110377618D01*
X126382734Y-110350568D01*
X126569139Y-110220047D01*
X126730047Y-110059139D01*
X126834578Y-109909851D01*
X126889151Y-109866230D01*
X126958649Y-109859036D01*
X127021004Y-109890558D01*
G37*
G04 #@! TD.AperFunction*
G04 #@! TA.AperFunction,Conductor*
G36*
X116907588Y-107222757D02*
G01*
X116952105Y-107274132D01*
X116962893Y-107297266D01*
X116979431Y-107332732D01*
X116979432Y-107332734D01*
X117109954Y-107519141D01*
X117270858Y-107680045D01*
X117270861Y-107680047D01*
X117457266Y-107810568D01*
X117482342Y-107822261D01*
X117515275Y-107837618D01*
X117567714Y-107883791D01*
X117586866Y-107950984D01*
X117566650Y-108017865D01*
X117515275Y-108062382D01*
X117457267Y-108089431D01*
X117457265Y-108089432D01*
X117270858Y-108219954D01*
X117109954Y-108380858D01*
X116979432Y-108567265D01*
X116979431Y-108567267D01*
X116952382Y-108625275D01*
X116906209Y-108677714D01*
X116839016Y-108696866D01*
X116772135Y-108676650D01*
X116727618Y-108625275D01*
X116717106Y-108602732D01*
X116700568Y-108567266D01*
X116570047Y-108380861D01*
X116570045Y-108380858D01*
X116409141Y-108219954D01*
X116222734Y-108089432D01*
X116222732Y-108089431D01*
X116164725Y-108062382D01*
X116164132Y-108062105D01*
X116111694Y-108015934D01*
X116092542Y-107948740D01*
X116112758Y-107881859D01*
X116164134Y-107837341D01*
X116222484Y-107810132D01*
X116408820Y-107679657D01*
X116569657Y-107518820D01*
X116700132Y-107332484D01*
X116727341Y-107274134D01*
X116773513Y-107221695D01*
X116840707Y-107202542D01*
X116907588Y-107222757D01*
G37*
G04 #@! TD.AperFunction*
M02*
