%TF.GenerationSoftware,KiCad,Pcbnew,8.0.9*%
%TF.CreationDate,2025-03-02T13:37:28+01:00*%
%TF.ProjectId,strobe,7374726f-6265-42e6-9b69-6361645f7063,rev?*%
%TF.SameCoordinates,Original*%
%TF.FileFunction,Drillmap*%
%TF.FilePolarity,Positive*%
%FSLAX45Y45*%
G04 Gerber Fmt 4.5, Leading zero omitted, Abs format (unit mm)*
G04 Created by KiCad (PCBNEW 8.0.9) date 2025-03-02 13:37:28*
%MOMM*%
%LPD*%
G01*
G04 APERTURE LIST*
%ADD10C,0.050000*%
%ADD11C,0.200000*%
%ADD12C,0.100000*%
%ADD13C,0.110000*%
G04 APERTURE END LIST*
D10*
X14732000Y-11430000D02*
X9525000Y-11430000D01*
X9525000Y-11430000D02*
G75*
G02*
X8763000Y-10668000I0J762000D01*
G01*
X14732000Y-11430000D02*
X15240000Y-10922000D01*
X8763000Y-10668000D02*
X8763000Y-9906000D01*
X15240000Y-9906000D02*
X15240000Y-10668000D01*
X15240000Y-10922000D02*
X15240000Y-10668000D01*
X9525000Y-9144000D02*
X14478000Y-9144000D01*
X14478000Y-9144000D02*
X15240000Y-9906000D01*
X8763000Y-9906000D02*
G75*
G02*
X9525000Y-9144000I762000J0D01*
G01*
D11*
D12*
X13066000Y-10526000D02*
X13096000Y-10556000D01*
X13096000Y-10526000D02*
X13066000Y-10556000D01*
X13320000Y-9637000D02*
X13350000Y-9667000D01*
X13350000Y-9637000D02*
X13320000Y-9667000D01*
X14261500Y-9525000D02*
G75*
G02*
X14186500Y-9525000I-37500J0D01*
G01*
X14186500Y-9525000D02*
G75*
G02*
X14261500Y-9525000I37500J0D01*
G01*
X14388500Y-9525000D02*
G75*
G02*
X14313500Y-9525000I-37500J0D01*
G01*
X14313500Y-9525000D02*
G75*
G02*
X14388500Y-9525000I37500J0D01*
G01*
X14515500Y-9525000D02*
G75*
G02*
X14440500Y-9525000I-37500J0D01*
G01*
X14440500Y-9525000D02*
G75*
G02*
X14515500Y-9525000I37500J0D01*
G01*
X9017000Y-10382000D02*
X9017000Y-10462000D01*
X8977000Y-10422000D02*
X9057000Y-10422000D01*
X9017000Y-10882000D02*
X9017000Y-10962000D01*
X8977000Y-10922000D02*
X9057000Y-10922000D01*
X9525000Y-9485000D02*
X9525000Y-9565000D01*
X9485000Y-9525000D02*
X9565000Y-9525000D01*
X9525000Y-11009000D02*
X9525000Y-11089000D01*
X9485000Y-11049000D02*
X9565000Y-11049000D01*
X10287000Y-9485000D02*
X10287000Y-9565000D01*
X10247000Y-9525000D02*
X10327000Y-9525000D01*
X10287000Y-11009000D02*
X10287000Y-11089000D01*
X10247000Y-11049000D02*
X10327000Y-11049000D01*
X10795000Y-9358000D02*
X10795000Y-9438000D01*
X10755000Y-9398000D02*
X10835000Y-9398000D01*
X10795000Y-9612000D02*
X10795000Y-9692000D01*
X10755000Y-9652000D02*
X10835000Y-9652000D01*
X10795000Y-9866000D02*
X10795000Y-9946000D01*
X10755000Y-9906000D02*
X10835000Y-9906000D01*
X10795000Y-10120000D02*
X10795000Y-10200000D01*
X10755000Y-10160000D02*
X10835000Y-10160000D01*
X10795000Y-10374000D02*
X10795000Y-10454000D01*
X10755000Y-10414000D02*
X10835000Y-10414000D01*
X10795000Y-10628000D02*
X10795000Y-10708000D01*
X10755000Y-10668000D02*
X10835000Y-10668000D01*
X10795000Y-10882000D02*
X10795000Y-10962000D01*
X10755000Y-10922000D02*
X10835000Y-10922000D01*
X10795000Y-11136000D02*
X10795000Y-11216000D01*
X10755000Y-11176000D02*
X10835000Y-11176000D01*
X11557000Y-9358000D02*
X11557000Y-9438000D01*
X11517000Y-9398000D02*
X11597000Y-9398000D01*
X11557000Y-9612000D02*
X11557000Y-9692000D01*
X11517000Y-9652000D02*
X11597000Y-9652000D01*
X11557000Y-9866000D02*
X11557000Y-9946000D01*
X11517000Y-9906000D02*
X11597000Y-9906000D01*
X11557000Y-10120000D02*
X11557000Y-10200000D01*
X11517000Y-10160000D02*
X11597000Y-10160000D01*
X11557000Y-10374000D02*
X11557000Y-10454000D01*
X11517000Y-10414000D02*
X11597000Y-10414000D01*
X11557000Y-10628000D02*
X11557000Y-10708000D01*
X11517000Y-10668000D02*
X11597000Y-10668000D01*
X11557000Y-10882000D02*
X11557000Y-10962000D01*
X11517000Y-10922000D02*
X11597000Y-10922000D01*
X11557000Y-11136000D02*
X11557000Y-11216000D01*
X11517000Y-11176000D02*
X11597000Y-11176000D01*
X11811000Y-9358000D02*
X11811000Y-9438000D01*
X11771000Y-9398000D02*
X11851000Y-9398000D01*
X11811000Y-9612000D02*
X11811000Y-9692000D01*
X11771000Y-9652000D02*
X11851000Y-9652000D01*
X11811000Y-9866000D02*
X11811000Y-9946000D01*
X11771000Y-9906000D02*
X11851000Y-9906000D01*
X11811000Y-10120000D02*
X11811000Y-10200000D01*
X11771000Y-10160000D02*
X11851000Y-10160000D01*
X11811000Y-10374000D02*
X11811000Y-10454000D01*
X11771000Y-10414000D02*
X11851000Y-10414000D01*
X11811000Y-10628000D02*
X11811000Y-10708000D01*
X11771000Y-10668000D02*
X11851000Y-10668000D01*
X11811000Y-10882000D02*
X11811000Y-10962000D01*
X11771000Y-10922000D02*
X11851000Y-10922000D01*
X11811000Y-11136000D02*
X11811000Y-11216000D01*
X11771000Y-11176000D02*
X11851000Y-11176000D01*
X12573000Y-9358000D02*
X12573000Y-9438000D01*
X12533000Y-9398000D02*
X12613000Y-9398000D01*
X12573000Y-9612000D02*
X12573000Y-9692000D01*
X12533000Y-9652000D02*
X12613000Y-9652000D01*
X12573000Y-9866000D02*
X12573000Y-9946000D01*
X12533000Y-9906000D02*
X12613000Y-9906000D01*
X12573000Y-10120000D02*
X12573000Y-10200000D01*
X12533000Y-10160000D02*
X12613000Y-10160000D01*
X12573000Y-10374000D02*
X12573000Y-10454000D01*
X12533000Y-10414000D02*
X12613000Y-10414000D01*
X12573000Y-10628000D02*
X12573000Y-10708000D01*
X12533000Y-10668000D02*
X12613000Y-10668000D01*
X12573000Y-10882000D02*
X12573000Y-10962000D01*
X12533000Y-10922000D02*
X12613000Y-10922000D01*
X12573000Y-11136000D02*
X12573000Y-11216000D01*
X12533000Y-11176000D02*
X12613000Y-11176000D01*
X12827000Y-9485000D02*
X12827000Y-9565000D01*
X12787000Y-9525000D02*
X12867000Y-9525000D01*
X12827000Y-9739000D02*
X12827000Y-9819000D01*
X12787000Y-9779000D02*
X12867000Y-9779000D01*
X12827000Y-9993000D02*
X12827000Y-10073000D01*
X12787000Y-10033000D02*
X12867000Y-10033000D01*
X12827000Y-10247000D02*
X12827000Y-10327000D01*
X12787000Y-10287000D02*
X12867000Y-10287000D01*
X12827000Y-10501000D02*
X12827000Y-10581000D01*
X12787000Y-10541000D02*
X12867000Y-10541000D01*
X12827000Y-10755000D02*
X12827000Y-10835000D01*
X12787000Y-10795000D02*
X12867000Y-10795000D01*
X12827000Y-11009000D02*
X12827000Y-11089000D01*
X12787000Y-11049000D02*
X12867000Y-11049000D01*
X13589000Y-9485000D02*
X13589000Y-9565000D01*
X13549000Y-9525000D02*
X13629000Y-9525000D01*
X13589000Y-9739000D02*
X13589000Y-9819000D01*
X13549000Y-9779000D02*
X13629000Y-9779000D01*
X13589000Y-9993000D02*
X13589000Y-10073000D01*
X13549000Y-10033000D02*
X13629000Y-10033000D01*
X13589000Y-10247000D02*
X13589000Y-10327000D01*
X13549000Y-10287000D02*
X13629000Y-10287000D01*
X13589000Y-10501000D02*
X13589000Y-10581000D01*
X13549000Y-10541000D02*
X13629000Y-10541000D01*
X13589000Y-10755000D02*
X13589000Y-10835000D01*
X13549000Y-10795000D02*
X13629000Y-10795000D01*
X13589000Y-11009000D02*
X13589000Y-11089000D01*
X13549000Y-11049000D02*
X13629000Y-11049000D01*
X13843000Y-9993000D02*
X13843000Y-10073000D01*
X13803000Y-10033000D02*
X13883000Y-10033000D01*
X14859000Y-9993000D02*
X14859000Y-10073000D01*
X14819000Y-10033000D02*
X14899000Y-10033000D01*
X15144820Y-10316820D02*
X15144820Y-10253180D01*
X15081180Y-10253180D01*
X15081180Y-10316820D01*
X15144820Y-10316820D01*
X15144820Y-10570820D02*
X15144820Y-10507180D01*
X15081180Y-10507180D01*
X15081180Y-10570820D01*
X15144820Y-10570820D01*
X9017000Y-9829000D02*
X9067000Y-9779000D01*
X9017000Y-9729000D01*
X8967000Y-9779000D01*
X9017000Y-9829000D01*
X9017000Y-10083000D02*
X9067000Y-10033000D01*
X9017000Y-9983000D01*
X8967000Y-10033000D01*
X9017000Y-10083000D01*
D13*
X13971000Y-10388000D02*
X14081000Y-10498000D01*
X14081000Y-10388000D02*
X13971000Y-10498000D01*
X14081000Y-10443000D02*
G75*
G02*
X13971000Y-10443000I-55000J0D01*
G01*
X13971000Y-10443000D02*
G75*
G02*
X14081000Y-10443000I55000J0D01*
G01*
X13971000Y-10838000D02*
X14081000Y-10948000D01*
X14081000Y-10838000D02*
X13971000Y-10948000D01*
X14081000Y-10893000D02*
G75*
G02*
X13971000Y-10893000I-55000J0D01*
G01*
X13971000Y-10893000D02*
G75*
G02*
X14081000Y-10893000I55000J0D01*
G01*
X14042000Y-11248000D02*
X14152000Y-11358000D01*
X14152000Y-11248000D02*
X14042000Y-11358000D01*
X14152000Y-11303000D02*
G75*
G02*
X14042000Y-11303000I-55000J0D01*
G01*
X14042000Y-11303000D02*
G75*
G02*
X14152000Y-11303000I55000J0D01*
G01*
X14296000Y-11248000D02*
X14406000Y-11358000D01*
X14406000Y-11248000D02*
X14296000Y-11358000D01*
X14406000Y-11303000D02*
G75*
G02*
X14296000Y-11303000I-55000J0D01*
G01*
X14296000Y-11303000D02*
G75*
G02*
X14406000Y-11303000I55000J0D01*
G01*
X14550000Y-11248000D02*
X14660000Y-11358000D01*
X14660000Y-11248000D02*
X14550000Y-11358000D01*
X14660000Y-11303000D02*
G75*
G02*
X14550000Y-11303000I-55000J0D01*
G01*
X14550000Y-11303000D02*
G75*
G02*
X14660000Y-11303000I55000J0D01*
G01*
X14621000Y-10388000D02*
X14731000Y-10498000D01*
X14731000Y-10388000D02*
X14621000Y-10498000D01*
X14731000Y-10443000D02*
G75*
G02*
X14621000Y-10443000I-55000J0D01*
G01*
X14621000Y-10443000D02*
G75*
G02*
X14731000Y-10443000I55000J0D01*
G01*
X14621000Y-10838000D02*
X14731000Y-10948000D01*
X14731000Y-10838000D02*
X14621000Y-10948000D01*
X14731000Y-10893000D02*
G75*
G02*
X14621000Y-10893000I-55000J0D01*
G01*
X14621000Y-10893000D02*
G75*
G02*
X14731000Y-10893000I55000J0D01*
G01*
D11*
X9021277Y-11743984D02*
X9021277Y-11543984D01*
X9021277Y-11543984D02*
X9068896Y-11543984D01*
X9068896Y-11543984D02*
X9097467Y-11553508D01*
X9097467Y-11553508D02*
X9116515Y-11572555D01*
X9116515Y-11572555D02*
X9126039Y-11591603D01*
X9126039Y-11591603D02*
X9135563Y-11629698D01*
X9135563Y-11629698D02*
X9135563Y-11658269D01*
X9135563Y-11658269D02*
X9126039Y-11696365D01*
X9126039Y-11696365D02*
X9116515Y-11715412D01*
X9116515Y-11715412D02*
X9097467Y-11734460D01*
X9097467Y-11734460D02*
X9068896Y-11743984D01*
X9068896Y-11743984D02*
X9021277Y-11743984D01*
X9221277Y-11743984D02*
X9221277Y-11610650D01*
X9221277Y-11648746D02*
X9230801Y-11629698D01*
X9230801Y-11629698D02*
X9240324Y-11620174D01*
X9240324Y-11620174D02*
X9259372Y-11610650D01*
X9259372Y-11610650D02*
X9278420Y-11610650D01*
X9345086Y-11743984D02*
X9345086Y-11610650D01*
X9345086Y-11543984D02*
X9335563Y-11553508D01*
X9335563Y-11553508D02*
X9345086Y-11563031D01*
X9345086Y-11563031D02*
X9354610Y-11553508D01*
X9354610Y-11553508D02*
X9345086Y-11543984D01*
X9345086Y-11543984D02*
X9345086Y-11563031D01*
X9468896Y-11743984D02*
X9449848Y-11734460D01*
X9449848Y-11734460D02*
X9440324Y-11715412D01*
X9440324Y-11715412D02*
X9440324Y-11543984D01*
X9573658Y-11743984D02*
X9554610Y-11734460D01*
X9554610Y-11734460D02*
X9545086Y-11715412D01*
X9545086Y-11715412D02*
X9545086Y-11543984D01*
X9802229Y-11743984D02*
X9802229Y-11543984D01*
X9802229Y-11543984D02*
X9868896Y-11686841D01*
X9868896Y-11686841D02*
X9935563Y-11543984D01*
X9935563Y-11543984D02*
X9935563Y-11743984D01*
X10116515Y-11743984D02*
X10116515Y-11639222D01*
X10116515Y-11639222D02*
X10106991Y-11620174D01*
X10106991Y-11620174D02*
X10087944Y-11610650D01*
X10087944Y-11610650D02*
X10049848Y-11610650D01*
X10049848Y-11610650D02*
X10030801Y-11620174D01*
X10116515Y-11734460D02*
X10097467Y-11743984D01*
X10097467Y-11743984D02*
X10049848Y-11743984D01*
X10049848Y-11743984D02*
X10030801Y-11734460D01*
X10030801Y-11734460D02*
X10021277Y-11715412D01*
X10021277Y-11715412D02*
X10021277Y-11696365D01*
X10021277Y-11696365D02*
X10030801Y-11677317D01*
X10030801Y-11677317D02*
X10049848Y-11667793D01*
X10049848Y-11667793D02*
X10097467Y-11667793D01*
X10097467Y-11667793D02*
X10116515Y-11658269D01*
X10211753Y-11610650D02*
X10211753Y-11810650D01*
X10211753Y-11620174D02*
X10230801Y-11610650D01*
X10230801Y-11610650D02*
X10268896Y-11610650D01*
X10268896Y-11610650D02*
X10287944Y-11620174D01*
X10287944Y-11620174D02*
X10297467Y-11629698D01*
X10297467Y-11629698D02*
X10306991Y-11648746D01*
X10306991Y-11648746D02*
X10306991Y-11705888D01*
X10306991Y-11705888D02*
X10297467Y-11724936D01*
X10297467Y-11724936D02*
X10287944Y-11734460D01*
X10287944Y-11734460D02*
X10268896Y-11743984D01*
X10268896Y-11743984D02*
X10230801Y-11743984D01*
X10230801Y-11743984D02*
X10211753Y-11734460D01*
X10392705Y-11724936D02*
X10402229Y-11734460D01*
X10402229Y-11734460D02*
X10392705Y-11743984D01*
X10392705Y-11743984D02*
X10383182Y-11734460D01*
X10383182Y-11734460D02*
X10392705Y-11724936D01*
X10392705Y-11724936D02*
X10392705Y-11743984D01*
X10392705Y-11620174D02*
X10402229Y-11629698D01*
X10402229Y-11629698D02*
X10392705Y-11639222D01*
X10392705Y-11639222D02*
X10383182Y-11629698D01*
X10383182Y-11629698D02*
X10392705Y-11620174D01*
X10392705Y-11620174D02*
X10392705Y-11639222D01*
D12*
X8730500Y-12057500D02*
X8760500Y-12087500D01*
X8760500Y-12057500D02*
X8730500Y-12087500D01*
D11*
X9059372Y-11963984D02*
X9078420Y-11963984D01*
X9078420Y-11963984D02*
X9097467Y-11973508D01*
X9097467Y-11973508D02*
X9106991Y-11983031D01*
X9106991Y-11983031D02*
X9116515Y-12002079D01*
X9116515Y-12002079D02*
X9126039Y-12040174D01*
X9126039Y-12040174D02*
X9126039Y-12087793D01*
X9126039Y-12087793D02*
X9116515Y-12125888D01*
X9116515Y-12125888D02*
X9106991Y-12144936D01*
X9106991Y-12144936D02*
X9097467Y-12154460D01*
X9097467Y-12154460D02*
X9078420Y-12163984D01*
X9078420Y-12163984D02*
X9059372Y-12163984D01*
X9059372Y-12163984D02*
X9040324Y-12154460D01*
X9040324Y-12154460D02*
X9030801Y-12144936D01*
X9030801Y-12144936D02*
X9021277Y-12125888D01*
X9021277Y-12125888D02*
X9011753Y-12087793D01*
X9011753Y-12087793D02*
X9011753Y-12040174D01*
X9011753Y-12040174D02*
X9021277Y-12002079D01*
X9021277Y-12002079D02*
X9030801Y-11983031D01*
X9030801Y-11983031D02*
X9040324Y-11973508D01*
X9040324Y-11973508D02*
X9059372Y-11963984D01*
X9211753Y-12144936D02*
X9221277Y-12154460D01*
X9221277Y-12154460D02*
X9211753Y-12163984D01*
X9211753Y-12163984D02*
X9202229Y-12154460D01*
X9202229Y-12154460D02*
X9211753Y-12144936D01*
X9211753Y-12144936D02*
X9211753Y-12163984D01*
X9287944Y-11963984D02*
X9411753Y-11963984D01*
X9411753Y-11963984D02*
X9345086Y-12040174D01*
X9345086Y-12040174D02*
X9373658Y-12040174D01*
X9373658Y-12040174D02*
X9392705Y-12049698D01*
X9392705Y-12049698D02*
X9402229Y-12059222D01*
X9402229Y-12059222D02*
X9411753Y-12078269D01*
X9411753Y-12078269D02*
X9411753Y-12125888D01*
X9411753Y-12125888D02*
X9402229Y-12144936D01*
X9402229Y-12144936D02*
X9392705Y-12154460D01*
X9392705Y-12154460D02*
X9373658Y-12163984D01*
X9373658Y-12163984D02*
X9316515Y-12163984D01*
X9316515Y-12163984D02*
X9297467Y-12154460D01*
X9297467Y-12154460D02*
X9287944Y-12144936D01*
X9535563Y-11963984D02*
X9554610Y-11963984D01*
X9554610Y-11963984D02*
X9573658Y-11973508D01*
X9573658Y-11973508D02*
X9583182Y-11983031D01*
X9583182Y-11983031D02*
X9592705Y-12002079D01*
X9592705Y-12002079D02*
X9602229Y-12040174D01*
X9602229Y-12040174D02*
X9602229Y-12087793D01*
X9602229Y-12087793D02*
X9592705Y-12125888D01*
X9592705Y-12125888D02*
X9583182Y-12144936D01*
X9583182Y-12144936D02*
X9573658Y-12154460D01*
X9573658Y-12154460D02*
X9554610Y-12163984D01*
X9554610Y-12163984D02*
X9535563Y-12163984D01*
X9535563Y-12163984D02*
X9516515Y-12154460D01*
X9516515Y-12154460D02*
X9506991Y-12144936D01*
X9506991Y-12144936D02*
X9497467Y-12125888D01*
X9497467Y-12125888D02*
X9487944Y-12087793D01*
X9487944Y-12087793D02*
X9487944Y-12040174D01*
X9487944Y-12040174D02*
X9497467Y-12002079D01*
X9497467Y-12002079D02*
X9506991Y-11983031D01*
X9506991Y-11983031D02*
X9516515Y-11973508D01*
X9516515Y-11973508D02*
X9535563Y-11963984D01*
X9726039Y-11963984D02*
X9745086Y-11963984D01*
X9745086Y-11963984D02*
X9764134Y-11973508D01*
X9764134Y-11973508D02*
X9773658Y-11983031D01*
X9773658Y-11983031D02*
X9783182Y-12002079D01*
X9783182Y-12002079D02*
X9792705Y-12040174D01*
X9792705Y-12040174D02*
X9792705Y-12087793D01*
X9792705Y-12087793D02*
X9783182Y-12125888D01*
X9783182Y-12125888D02*
X9773658Y-12144936D01*
X9773658Y-12144936D02*
X9764134Y-12154460D01*
X9764134Y-12154460D02*
X9745086Y-12163984D01*
X9745086Y-12163984D02*
X9726039Y-12163984D01*
X9726039Y-12163984D02*
X9706991Y-12154460D01*
X9706991Y-12154460D02*
X9697467Y-12144936D01*
X9697467Y-12144936D02*
X9687944Y-12125888D01*
X9687944Y-12125888D02*
X9678420Y-12087793D01*
X9678420Y-12087793D02*
X9678420Y-12040174D01*
X9678420Y-12040174D02*
X9687944Y-12002079D01*
X9687944Y-12002079D02*
X9697467Y-11983031D01*
X9697467Y-11983031D02*
X9706991Y-11973508D01*
X9706991Y-11973508D02*
X9726039Y-11963984D01*
X9878420Y-12163984D02*
X9878420Y-12030650D01*
X9878420Y-12049698D02*
X9887944Y-12040174D01*
X9887944Y-12040174D02*
X9906991Y-12030650D01*
X9906991Y-12030650D02*
X9935563Y-12030650D01*
X9935563Y-12030650D02*
X9954610Y-12040174D01*
X9954610Y-12040174D02*
X9964134Y-12059222D01*
X9964134Y-12059222D02*
X9964134Y-12163984D01*
X9964134Y-12059222D02*
X9973658Y-12040174D01*
X9973658Y-12040174D02*
X9992705Y-12030650D01*
X9992705Y-12030650D02*
X10021277Y-12030650D01*
X10021277Y-12030650D02*
X10040325Y-12040174D01*
X10040325Y-12040174D02*
X10049848Y-12059222D01*
X10049848Y-12059222D02*
X10049848Y-12163984D01*
X10145086Y-12163984D02*
X10145086Y-12030650D01*
X10145086Y-12049698D02*
X10154610Y-12040174D01*
X10154610Y-12040174D02*
X10173658Y-12030650D01*
X10173658Y-12030650D02*
X10202229Y-12030650D01*
X10202229Y-12030650D02*
X10221277Y-12040174D01*
X10221277Y-12040174D02*
X10230801Y-12059222D01*
X10230801Y-12059222D02*
X10230801Y-12163984D01*
X10230801Y-12059222D02*
X10240325Y-12040174D01*
X10240325Y-12040174D02*
X10259372Y-12030650D01*
X10259372Y-12030650D02*
X10287944Y-12030650D01*
X10287944Y-12030650D02*
X10306991Y-12040174D01*
X10306991Y-12040174D02*
X10316515Y-12059222D01*
X10316515Y-12059222D02*
X10316515Y-12163984D01*
X10706991Y-11954460D02*
X10535563Y-12211603D01*
X10964134Y-11963984D02*
X10983182Y-11963984D01*
X10983182Y-11963984D02*
X11002229Y-11973508D01*
X11002229Y-11973508D02*
X11011753Y-11983031D01*
X11011753Y-11983031D02*
X11021277Y-12002079D01*
X11021277Y-12002079D02*
X11030801Y-12040174D01*
X11030801Y-12040174D02*
X11030801Y-12087793D01*
X11030801Y-12087793D02*
X11021277Y-12125888D01*
X11021277Y-12125888D02*
X11011753Y-12144936D01*
X11011753Y-12144936D02*
X11002229Y-12154460D01*
X11002229Y-12154460D02*
X10983182Y-12163984D01*
X10983182Y-12163984D02*
X10964134Y-12163984D01*
X10964134Y-12163984D02*
X10945087Y-12154460D01*
X10945087Y-12154460D02*
X10935563Y-12144936D01*
X10935563Y-12144936D02*
X10926039Y-12125888D01*
X10926039Y-12125888D02*
X10916515Y-12087793D01*
X10916515Y-12087793D02*
X10916515Y-12040174D01*
X10916515Y-12040174D02*
X10926039Y-12002079D01*
X10926039Y-12002079D02*
X10935563Y-11983031D01*
X10935563Y-11983031D02*
X10945087Y-11973508D01*
X10945087Y-11973508D02*
X10964134Y-11963984D01*
X11116515Y-12144936D02*
X11126039Y-12154460D01*
X11126039Y-12154460D02*
X11116515Y-12163984D01*
X11116515Y-12163984D02*
X11106991Y-12154460D01*
X11106991Y-12154460D02*
X11116515Y-12144936D01*
X11116515Y-12144936D02*
X11116515Y-12163984D01*
X11249848Y-11963984D02*
X11268896Y-11963984D01*
X11268896Y-11963984D02*
X11287944Y-11973508D01*
X11287944Y-11973508D02*
X11297467Y-11983031D01*
X11297467Y-11983031D02*
X11306991Y-12002079D01*
X11306991Y-12002079D02*
X11316515Y-12040174D01*
X11316515Y-12040174D02*
X11316515Y-12087793D01*
X11316515Y-12087793D02*
X11306991Y-12125888D01*
X11306991Y-12125888D02*
X11297467Y-12144936D01*
X11297467Y-12144936D02*
X11287944Y-12154460D01*
X11287944Y-12154460D02*
X11268896Y-12163984D01*
X11268896Y-12163984D02*
X11249848Y-12163984D01*
X11249848Y-12163984D02*
X11230801Y-12154460D01*
X11230801Y-12154460D02*
X11221277Y-12144936D01*
X11221277Y-12144936D02*
X11211753Y-12125888D01*
X11211753Y-12125888D02*
X11202229Y-12087793D01*
X11202229Y-12087793D02*
X11202229Y-12040174D01*
X11202229Y-12040174D02*
X11211753Y-12002079D01*
X11211753Y-12002079D02*
X11221277Y-11983031D01*
X11221277Y-11983031D02*
X11230801Y-11973508D01*
X11230801Y-11973508D02*
X11249848Y-11963984D01*
X11506991Y-12163984D02*
X11392706Y-12163984D01*
X11449848Y-12163984D02*
X11449848Y-11963984D01*
X11449848Y-11963984D02*
X11430801Y-11992555D01*
X11430801Y-11992555D02*
X11411753Y-12011603D01*
X11411753Y-12011603D02*
X11392706Y-12021127D01*
X11697467Y-12163984D02*
X11583182Y-12163984D01*
X11640325Y-12163984D02*
X11640325Y-11963984D01*
X11640325Y-11963984D02*
X11621277Y-11992555D01*
X11621277Y-11992555D02*
X11602229Y-12011603D01*
X11602229Y-12011603D02*
X11583182Y-12021127D01*
X11811753Y-12049698D02*
X11792706Y-12040174D01*
X11792706Y-12040174D02*
X11783182Y-12030650D01*
X11783182Y-12030650D02*
X11773658Y-12011603D01*
X11773658Y-12011603D02*
X11773658Y-12002079D01*
X11773658Y-12002079D02*
X11783182Y-11983031D01*
X11783182Y-11983031D02*
X11792706Y-11973508D01*
X11792706Y-11973508D02*
X11811753Y-11963984D01*
X11811753Y-11963984D02*
X11849848Y-11963984D01*
X11849848Y-11963984D02*
X11868896Y-11973508D01*
X11868896Y-11973508D02*
X11878420Y-11983031D01*
X11878420Y-11983031D02*
X11887944Y-12002079D01*
X11887944Y-12002079D02*
X11887944Y-12011603D01*
X11887944Y-12011603D02*
X11878420Y-12030650D01*
X11878420Y-12030650D02*
X11868896Y-12040174D01*
X11868896Y-12040174D02*
X11849848Y-12049698D01*
X11849848Y-12049698D02*
X11811753Y-12049698D01*
X11811753Y-12049698D02*
X11792706Y-12059222D01*
X11792706Y-12059222D02*
X11783182Y-12068746D01*
X11783182Y-12068746D02*
X11773658Y-12087793D01*
X11773658Y-12087793D02*
X11773658Y-12125888D01*
X11773658Y-12125888D02*
X11783182Y-12144936D01*
X11783182Y-12144936D02*
X11792706Y-12154460D01*
X11792706Y-12154460D02*
X11811753Y-12163984D01*
X11811753Y-12163984D02*
X11849848Y-12163984D01*
X11849848Y-12163984D02*
X11868896Y-12154460D01*
X11868896Y-12154460D02*
X11878420Y-12144936D01*
X11878420Y-12144936D02*
X11887944Y-12125888D01*
X11887944Y-12125888D02*
X11887944Y-12087793D01*
X11887944Y-12087793D02*
X11878420Y-12068746D01*
X11878420Y-12068746D02*
X11868896Y-12059222D01*
X11868896Y-12059222D02*
X11849848Y-12049698D01*
X11964134Y-11963984D02*
X11964134Y-12002079D01*
X12040325Y-11963984D02*
X12040325Y-12002079D01*
X12335563Y-12240174D02*
X12326039Y-12230650D01*
X12326039Y-12230650D02*
X12306991Y-12202079D01*
X12306991Y-12202079D02*
X12297468Y-12183031D01*
X12297468Y-12183031D02*
X12287944Y-12154460D01*
X12287944Y-12154460D02*
X12278420Y-12106841D01*
X12278420Y-12106841D02*
X12278420Y-12068746D01*
X12278420Y-12068746D02*
X12287944Y-12021127D01*
X12287944Y-12021127D02*
X12297468Y-11992555D01*
X12297468Y-11992555D02*
X12306991Y-11973508D01*
X12306991Y-11973508D02*
X12326039Y-11944936D01*
X12326039Y-11944936D02*
X12335563Y-11935412D01*
X12402229Y-11983031D02*
X12411753Y-11973508D01*
X12411753Y-11973508D02*
X12430801Y-11963984D01*
X12430801Y-11963984D02*
X12478420Y-11963984D01*
X12478420Y-11963984D02*
X12497468Y-11973508D01*
X12497468Y-11973508D02*
X12506991Y-11983031D01*
X12506991Y-11983031D02*
X12516515Y-12002079D01*
X12516515Y-12002079D02*
X12516515Y-12021127D01*
X12516515Y-12021127D02*
X12506991Y-12049698D01*
X12506991Y-12049698D02*
X12392706Y-12163984D01*
X12392706Y-12163984D02*
X12516515Y-12163984D01*
X12754610Y-12163984D02*
X12754610Y-11963984D01*
X12840325Y-12163984D02*
X12840325Y-12059222D01*
X12840325Y-12059222D02*
X12830801Y-12040174D01*
X12830801Y-12040174D02*
X12811753Y-12030650D01*
X12811753Y-12030650D02*
X12783182Y-12030650D01*
X12783182Y-12030650D02*
X12764134Y-12040174D01*
X12764134Y-12040174D02*
X12754610Y-12049698D01*
X12964134Y-12163984D02*
X12945087Y-12154460D01*
X12945087Y-12154460D02*
X12935563Y-12144936D01*
X12935563Y-12144936D02*
X12926039Y-12125888D01*
X12926039Y-12125888D02*
X12926039Y-12068746D01*
X12926039Y-12068746D02*
X12935563Y-12049698D01*
X12935563Y-12049698D02*
X12945087Y-12040174D01*
X12945087Y-12040174D02*
X12964134Y-12030650D01*
X12964134Y-12030650D02*
X12992706Y-12030650D01*
X12992706Y-12030650D02*
X13011753Y-12040174D01*
X13011753Y-12040174D02*
X13021277Y-12049698D01*
X13021277Y-12049698D02*
X13030801Y-12068746D01*
X13030801Y-12068746D02*
X13030801Y-12125888D01*
X13030801Y-12125888D02*
X13021277Y-12144936D01*
X13021277Y-12144936D02*
X13011753Y-12154460D01*
X13011753Y-12154460D02*
X12992706Y-12163984D01*
X12992706Y-12163984D02*
X12964134Y-12163984D01*
X13145087Y-12163984D02*
X13126039Y-12154460D01*
X13126039Y-12154460D02*
X13116515Y-12135412D01*
X13116515Y-12135412D02*
X13116515Y-11963984D01*
X13297468Y-12154460D02*
X13278420Y-12163984D01*
X13278420Y-12163984D02*
X13240325Y-12163984D01*
X13240325Y-12163984D02*
X13221277Y-12154460D01*
X13221277Y-12154460D02*
X13211753Y-12135412D01*
X13211753Y-12135412D02*
X13211753Y-12059222D01*
X13211753Y-12059222D02*
X13221277Y-12040174D01*
X13221277Y-12040174D02*
X13240325Y-12030650D01*
X13240325Y-12030650D02*
X13278420Y-12030650D01*
X13278420Y-12030650D02*
X13297468Y-12040174D01*
X13297468Y-12040174D02*
X13306991Y-12059222D01*
X13306991Y-12059222D02*
X13306991Y-12078269D01*
X13306991Y-12078269D02*
X13211753Y-12097317D01*
X13383182Y-12154460D02*
X13402230Y-12163984D01*
X13402230Y-12163984D02*
X13440325Y-12163984D01*
X13440325Y-12163984D02*
X13459372Y-12154460D01*
X13459372Y-12154460D02*
X13468896Y-12135412D01*
X13468896Y-12135412D02*
X13468896Y-12125888D01*
X13468896Y-12125888D02*
X13459372Y-12106841D01*
X13459372Y-12106841D02*
X13440325Y-12097317D01*
X13440325Y-12097317D02*
X13411753Y-12097317D01*
X13411753Y-12097317D02*
X13392706Y-12087793D01*
X13392706Y-12087793D02*
X13383182Y-12068746D01*
X13383182Y-12068746D02*
X13383182Y-12059222D01*
X13383182Y-12059222D02*
X13392706Y-12040174D01*
X13392706Y-12040174D02*
X13411753Y-12030650D01*
X13411753Y-12030650D02*
X13440325Y-12030650D01*
X13440325Y-12030650D02*
X13459372Y-12040174D01*
X13535563Y-12240174D02*
X13545087Y-12230650D01*
X13545087Y-12230650D02*
X13564134Y-12202079D01*
X13564134Y-12202079D02*
X13573658Y-12183031D01*
X13573658Y-12183031D02*
X13583182Y-12154460D01*
X13583182Y-12154460D02*
X13592706Y-12106841D01*
X13592706Y-12106841D02*
X13592706Y-12068746D01*
X13592706Y-12068746D02*
X13583182Y-12021127D01*
X13583182Y-12021127D02*
X13573658Y-11992555D01*
X13573658Y-11992555D02*
X13564134Y-11973508D01*
X13564134Y-11973508D02*
X13545087Y-11944936D01*
X13545087Y-11944936D02*
X13535563Y-11935412D01*
D12*
X8760500Y-12336500D02*
G75*
G02*
X8685500Y-12336500I-37500J0D01*
G01*
X8685500Y-12336500D02*
G75*
G02*
X8760500Y-12336500I37500J0D01*
G01*
D11*
X9059372Y-12227984D02*
X9078420Y-12227984D01*
X9078420Y-12227984D02*
X9097467Y-12237508D01*
X9097467Y-12237508D02*
X9106991Y-12247031D01*
X9106991Y-12247031D02*
X9116515Y-12266079D01*
X9116515Y-12266079D02*
X9126039Y-12304174D01*
X9126039Y-12304174D02*
X9126039Y-12351793D01*
X9126039Y-12351793D02*
X9116515Y-12389888D01*
X9116515Y-12389888D02*
X9106991Y-12408936D01*
X9106991Y-12408936D02*
X9097467Y-12418460D01*
X9097467Y-12418460D02*
X9078420Y-12427984D01*
X9078420Y-12427984D02*
X9059372Y-12427984D01*
X9059372Y-12427984D02*
X9040324Y-12418460D01*
X9040324Y-12418460D02*
X9030801Y-12408936D01*
X9030801Y-12408936D02*
X9021277Y-12389888D01*
X9021277Y-12389888D02*
X9011753Y-12351793D01*
X9011753Y-12351793D02*
X9011753Y-12304174D01*
X9011753Y-12304174D02*
X9021277Y-12266079D01*
X9021277Y-12266079D02*
X9030801Y-12247031D01*
X9030801Y-12247031D02*
X9040324Y-12237508D01*
X9040324Y-12237508D02*
X9059372Y-12227984D01*
X9211753Y-12408936D02*
X9221277Y-12418460D01*
X9221277Y-12418460D02*
X9211753Y-12427984D01*
X9211753Y-12427984D02*
X9202229Y-12418460D01*
X9202229Y-12418460D02*
X9211753Y-12408936D01*
X9211753Y-12408936D02*
X9211753Y-12427984D01*
X9287944Y-12227984D02*
X9421277Y-12227984D01*
X9421277Y-12227984D02*
X9335563Y-12427984D01*
X9592705Y-12227984D02*
X9497467Y-12227984D01*
X9497467Y-12227984D02*
X9487944Y-12323222D01*
X9487944Y-12323222D02*
X9497467Y-12313698D01*
X9497467Y-12313698D02*
X9516515Y-12304174D01*
X9516515Y-12304174D02*
X9564134Y-12304174D01*
X9564134Y-12304174D02*
X9583182Y-12313698D01*
X9583182Y-12313698D02*
X9592705Y-12323222D01*
X9592705Y-12323222D02*
X9602229Y-12342269D01*
X9602229Y-12342269D02*
X9602229Y-12389888D01*
X9602229Y-12389888D02*
X9592705Y-12408936D01*
X9592705Y-12408936D02*
X9583182Y-12418460D01*
X9583182Y-12418460D02*
X9564134Y-12427984D01*
X9564134Y-12427984D02*
X9516515Y-12427984D01*
X9516515Y-12427984D02*
X9497467Y-12418460D01*
X9497467Y-12418460D02*
X9487944Y-12408936D01*
X9726039Y-12227984D02*
X9745086Y-12227984D01*
X9745086Y-12227984D02*
X9764134Y-12237508D01*
X9764134Y-12237508D02*
X9773658Y-12247031D01*
X9773658Y-12247031D02*
X9783182Y-12266079D01*
X9783182Y-12266079D02*
X9792705Y-12304174D01*
X9792705Y-12304174D02*
X9792705Y-12351793D01*
X9792705Y-12351793D02*
X9783182Y-12389888D01*
X9783182Y-12389888D02*
X9773658Y-12408936D01*
X9773658Y-12408936D02*
X9764134Y-12418460D01*
X9764134Y-12418460D02*
X9745086Y-12427984D01*
X9745086Y-12427984D02*
X9726039Y-12427984D01*
X9726039Y-12427984D02*
X9706991Y-12418460D01*
X9706991Y-12418460D02*
X9697467Y-12408936D01*
X9697467Y-12408936D02*
X9687944Y-12389888D01*
X9687944Y-12389888D02*
X9678420Y-12351793D01*
X9678420Y-12351793D02*
X9678420Y-12304174D01*
X9678420Y-12304174D02*
X9687944Y-12266079D01*
X9687944Y-12266079D02*
X9697467Y-12247031D01*
X9697467Y-12247031D02*
X9706991Y-12237508D01*
X9706991Y-12237508D02*
X9726039Y-12227984D01*
X9878420Y-12427984D02*
X9878420Y-12294650D01*
X9878420Y-12313698D02*
X9887944Y-12304174D01*
X9887944Y-12304174D02*
X9906991Y-12294650D01*
X9906991Y-12294650D02*
X9935563Y-12294650D01*
X9935563Y-12294650D02*
X9954610Y-12304174D01*
X9954610Y-12304174D02*
X9964134Y-12323222D01*
X9964134Y-12323222D02*
X9964134Y-12427984D01*
X9964134Y-12323222D02*
X9973658Y-12304174D01*
X9973658Y-12304174D02*
X9992705Y-12294650D01*
X9992705Y-12294650D02*
X10021277Y-12294650D01*
X10021277Y-12294650D02*
X10040325Y-12304174D01*
X10040325Y-12304174D02*
X10049848Y-12323222D01*
X10049848Y-12323222D02*
X10049848Y-12427984D01*
X10145086Y-12427984D02*
X10145086Y-12294650D01*
X10145086Y-12313698D02*
X10154610Y-12304174D01*
X10154610Y-12304174D02*
X10173658Y-12294650D01*
X10173658Y-12294650D02*
X10202229Y-12294650D01*
X10202229Y-12294650D02*
X10221277Y-12304174D01*
X10221277Y-12304174D02*
X10230801Y-12323222D01*
X10230801Y-12323222D02*
X10230801Y-12427984D01*
X10230801Y-12323222D02*
X10240325Y-12304174D01*
X10240325Y-12304174D02*
X10259372Y-12294650D01*
X10259372Y-12294650D02*
X10287944Y-12294650D01*
X10287944Y-12294650D02*
X10306991Y-12304174D01*
X10306991Y-12304174D02*
X10316515Y-12323222D01*
X10316515Y-12323222D02*
X10316515Y-12427984D01*
X10706991Y-12218460D02*
X10535563Y-12475603D01*
X10964134Y-12227984D02*
X10983182Y-12227984D01*
X10983182Y-12227984D02*
X11002229Y-12237508D01*
X11002229Y-12237508D02*
X11011753Y-12247031D01*
X11011753Y-12247031D02*
X11021277Y-12266079D01*
X11021277Y-12266079D02*
X11030801Y-12304174D01*
X11030801Y-12304174D02*
X11030801Y-12351793D01*
X11030801Y-12351793D02*
X11021277Y-12389888D01*
X11021277Y-12389888D02*
X11011753Y-12408936D01*
X11011753Y-12408936D02*
X11002229Y-12418460D01*
X11002229Y-12418460D02*
X10983182Y-12427984D01*
X10983182Y-12427984D02*
X10964134Y-12427984D01*
X10964134Y-12427984D02*
X10945087Y-12418460D01*
X10945087Y-12418460D02*
X10935563Y-12408936D01*
X10935563Y-12408936D02*
X10926039Y-12389888D01*
X10926039Y-12389888D02*
X10916515Y-12351793D01*
X10916515Y-12351793D02*
X10916515Y-12304174D01*
X10916515Y-12304174D02*
X10926039Y-12266079D01*
X10926039Y-12266079D02*
X10935563Y-12247031D01*
X10935563Y-12247031D02*
X10945087Y-12237508D01*
X10945087Y-12237508D02*
X10964134Y-12227984D01*
X11116515Y-12408936D02*
X11126039Y-12418460D01*
X11126039Y-12418460D02*
X11116515Y-12427984D01*
X11116515Y-12427984D02*
X11106991Y-12418460D01*
X11106991Y-12418460D02*
X11116515Y-12408936D01*
X11116515Y-12408936D02*
X11116515Y-12427984D01*
X11249848Y-12227984D02*
X11268896Y-12227984D01*
X11268896Y-12227984D02*
X11287944Y-12237508D01*
X11287944Y-12237508D02*
X11297467Y-12247031D01*
X11297467Y-12247031D02*
X11306991Y-12266079D01*
X11306991Y-12266079D02*
X11316515Y-12304174D01*
X11316515Y-12304174D02*
X11316515Y-12351793D01*
X11316515Y-12351793D02*
X11306991Y-12389888D01*
X11306991Y-12389888D02*
X11297467Y-12408936D01*
X11297467Y-12408936D02*
X11287944Y-12418460D01*
X11287944Y-12418460D02*
X11268896Y-12427984D01*
X11268896Y-12427984D02*
X11249848Y-12427984D01*
X11249848Y-12427984D02*
X11230801Y-12418460D01*
X11230801Y-12418460D02*
X11221277Y-12408936D01*
X11221277Y-12408936D02*
X11211753Y-12389888D01*
X11211753Y-12389888D02*
X11202229Y-12351793D01*
X11202229Y-12351793D02*
X11202229Y-12304174D01*
X11202229Y-12304174D02*
X11211753Y-12266079D01*
X11211753Y-12266079D02*
X11221277Y-12247031D01*
X11221277Y-12247031D02*
X11230801Y-12237508D01*
X11230801Y-12237508D02*
X11249848Y-12227984D01*
X11392706Y-12247031D02*
X11402229Y-12237508D01*
X11402229Y-12237508D02*
X11421277Y-12227984D01*
X11421277Y-12227984D02*
X11468896Y-12227984D01*
X11468896Y-12227984D02*
X11487944Y-12237508D01*
X11487944Y-12237508D02*
X11497467Y-12247031D01*
X11497467Y-12247031D02*
X11506991Y-12266079D01*
X11506991Y-12266079D02*
X11506991Y-12285127D01*
X11506991Y-12285127D02*
X11497467Y-12313698D01*
X11497467Y-12313698D02*
X11383182Y-12427984D01*
X11383182Y-12427984D02*
X11506991Y-12427984D01*
X11602229Y-12427984D02*
X11640325Y-12427984D01*
X11640325Y-12427984D02*
X11659372Y-12418460D01*
X11659372Y-12418460D02*
X11668896Y-12408936D01*
X11668896Y-12408936D02*
X11687944Y-12380365D01*
X11687944Y-12380365D02*
X11697467Y-12342269D01*
X11697467Y-12342269D02*
X11697467Y-12266079D01*
X11697467Y-12266079D02*
X11687944Y-12247031D01*
X11687944Y-12247031D02*
X11678420Y-12237508D01*
X11678420Y-12237508D02*
X11659372Y-12227984D01*
X11659372Y-12227984D02*
X11621277Y-12227984D01*
X11621277Y-12227984D02*
X11602229Y-12237508D01*
X11602229Y-12237508D02*
X11592706Y-12247031D01*
X11592706Y-12247031D02*
X11583182Y-12266079D01*
X11583182Y-12266079D02*
X11583182Y-12313698D01*
X11583182Y-12313698D02*
X11592706Y-12332746D01*
X11592706Y-12332746D02*
X11602229Y-12342269D01*
X11602229Y-12342269D02*
X11621277Y-12351793D01*
X11621277Y-12351793D02*
X11659372Y-12351793D01*
X11659372Y-12351793D02*
X11678420Y-12342269D01*
X11678420Y-12342269D02*
X11687944Y-12332746D01*
X11687944Y-12332746D02*
X11697467Y-12313698D01*
X11878420Y-12227984D02*
X11783182Y-12227984D01*
X11783182Y-12227984D02*
X11773658Y-12323222D01*
X11773658Y-12323222D02*
X11783182Y-12313698D01*
X11783182Y-12313698D02*
X11802229Y-12304174D01*
X11802229Y-12304174D02*
X11849848Y-12304174D01*
X11849848Y-12304174D02*
X11868896Y-12313698D01*
X11868896Y-12313698D02*
X11878420Y-12323222D01*
X11878420Y-12323222D02*
X11887944Y-12342269D01*
X11887944Y-12342269D02*
X11887944Y-12389888D01*
X11887944Y-12389888D02*
X11878420Y-12408936D01*
X11878420Y-12408936D02*
X11868896Y-12418460D01*
X11868896Y-12418460D02*
X11849848Y-12427984D01*
X11849848Y-12427984D02*
X11802229Y-12427984D01*
X11802229Y-12427984D02*
X11783182Y-12418460D01*
X11783182Y-12418460D02*
X11773658Y-12408936D01*
X11964134Y-12227984D02*
X11964134Y-12266079D01*
X12040325Y-12227984D02*
X12040325Y-12266079D01*
X12335563Y-12504174D02*
X12326039Y-12494650D01*
X12326039Y-12494650D02*
X12306991Y-12466079D01*
X12306991Y-12466079D02*
X12297468Y-12447031D01*
X12297468Y-12447031D02*
X12287944Y-12418460D01*
X12287944Y-12418460D02*
X12278420Y-12370841D01*
X12278420Y-12370841D02*
X12278420Y-12332746D01*
X12278420Y-12332746D02*
X12287944Y-12285127D01*
X12287944Y-12285127D02*
X12297468Y-12256555D01*
X12297468Y-12256555D02*
X12306991Y-12237508D01*
X12306991Y-12237508D02*
X12326039Y-12208936D01*
X12326039Y-12208936D02*
X12335563Y-12199412D01*
X12392706Y-12227984D02*
X12516515Y-12227984D01*
X12516515Y-12227984D02*
X12449848Y-12304174D01*
X12449848Y-12304174D02*
X12478420Y-12304174D01*
X12478420Y-12304174D02*
X12497468Y-12313698D01*
X12497468Y-12313698D02*
X12506991Y-12323222D01*
X12506991Y-12323222D02*
X12516515Y-12342269D01*
X12516515Y-12342269D02*
X12516515Y-12389888D01*
X12516515Y-12389888D02*
X12506991Y-12408936D01*
X12506991Y-12408936D02*
X12497468Y-12418460D01*
X12497468Y-12418460D02*
X12478420Y-12427984D01*
X12478420Y-12427984D02*
X12421277Y-12427984D01*
X12421277Y-12427984D02*
X12402229Y-12418460D01*
X12402229Y-12418460D02*
X12392706Y-12408936D01*
X12754610Y-12427984D02*
X12754610Y-12227984D01*
X12840325Y-12427984D02*
X12840325Y-12323222D01*
X12840325Y-12323222D02*
X12830801Y-12304174D01*
X12830801Y-12304174D02*
X12811753Y-12294650D01*
X12811753Y-12294650D02*
X12783182Y-12294650D01*
X12783182Y-12294650D02*
X12764134Y-12304174D01*
X12764134Y-12304174D02*
X12754610Y-12313698D01*
X12964134Y-12427984D02*
X12945087Y-12418460D01*
X12945087Y-12418460D02*
X12935563Y-12408936D01*
X12935563Y-12408936D02*
X12926039Y-12389888D01*
X12926039Y-12389888D02*
X12926039Y-12332746D01*
X12926039Y-12332746D02*
X12935563Y-12313698D01*
X12935563Y-12313698D02*
X12945087Y-12304174D01*
X12945087Y-12304174D02*
X12964134Y-12294650D01*
X12964134Y-12294650D02*
X12992706Y-12294650D01*
X12992706Y-12294650D02*
X13011753Y-12304174D01*
X13011753Y-12304174D02*
X13021277Y-12313698D01*
X13021277Y-12313698D02*
X13030801Y-12332746D01*
X13030801Y-12332746D02*
X13030801Y-12389888D01*
X13030801Y-12389888D02*
X13021277Y-12408936D01*
X13021277Y-12408936D02*
X13011753Y-12418460D01*
X13011753Y-12418460D02*
X12992706Y-12427984D01*
X12992706Y-12427984D02*
X12964134Y-12427984D01*
X13145087Y-12427984D02*
X13126039Y-12418460D01*
X13126039Y-12418460D02*
X13116515Y-12399412D01*
X13116515Y-12399412D02*
X13116515Y-12227984D01*
X13297468Y-12418460D02*
X13278420Y-12427984D01*
X13278420Y-12427984D02*
X13240325Y-12427984D01*
X13240325Y-12427984D02*
X13221277Y-12418460D01*
X13221277Y-12418460D02*
X13211753Y-12399412D01*
X13211753Y-12399412D02*
X13211753Y-12323222D01*
X13211753Y-12323222D02*
X13221277Y-12304174D01*
X13221277Y-12304174D02*
X13240325Y-12294650D01*
X13240325Y-12294650D02*
X13278420Y-12294650D01*
X13278420Y-12294650D02*
X13297468Y-12304174D01*
X13297468Y-12304174D02*
X13306991Y-12323222D01*
X13306991Y-12323222D02*
X13306991Y-12342269D01*
X13306991Y-12342269D02*
X13211753Y-12361317D01*
X13383182Y-12418460D02*
X13402230Y-12427984D01*
X13402230Y-12427984D02*
X13440325Y-12427984D01*
X13440325Y-12427984D02*
X13459372Y-12418460D01*
X13459372Y-12418460D02*
X13468896Y-12399412D01*
X13468896Y-12399412D02*
X13468896Y-12389888D01*
X13468896Y-12389888D02*
X13459372Y-12370841D01*
X13459372Y-12370841D02*
X13440325Y-12361317D01*
X13440325Y-12361317D02*
X13411753Y-12361317D01*
X13411753Y-12361317D02*
X13392706Y-12351793D01*
X13392706Y-12351793D02*
X13383182Y-12332746D01*
X13383182Y-12332746D02*
X13383182Y-12323222D01*
X13383182Y-12323222D02*
X13392706Y-12304174D01*
X13392706Y-12304174D02*
X13411753Y-12294650D01*
X13411753Y-12294650D02*
X13440325Y-12294650D01*
X13440325Y-12294650D02*
X13459372Y-12304174D01*
X13535563Y-12504174D02*
X13545087Y-12494650D01*
X13545087Y-12494650D02*
X13564134Y-12466079D01*
X13564134Y-12466079D02*
X13573658Y-12447031D01*
X13573658Y-12447031D02*
X13583182Y-12418460D01*
X13583182Y-12418460D02*
X13592706Y-12370841D01*
X13592706Y-12370841D02*
X13592706Y-12332746D01*
X13592706Y-12332746D02*
X13583182Y-12285127D01*
X13583182Y-12285127D02*
X13573658Y-12256555D01*
X13573658Y-12256555D02*
X13564134Y-12237508D01*
X13564134Y-12237508D02*
X13545087Y-12208936D01*
X13545087Y-12208936D02*
X13535563Y-12199412D01*
D12*
X8720500Y-12560500D02*
X8720500Y-12640500D01*
X8680500Y-12600500D02*
X8760500Y-12600500D01*
D11*
X9059372Y-12491984D02*
X9078420Y-12491984D01*
X9078420Y-12491984D02*
X9097467Y-12501508D01*
X9097467Y-12501508D02*
X9106991Y-12511031D01*
X9106991Y-12511031D02*
X9116515Y-12530079D01*
X9116515Y-12530079D02*
X9126039Y-12568174D01*
X9126039Y-12568174D02*
X9126039Y-12615793D01*
X9126039Y-12615793D02*
X9116515Y-12653888D01*
X9116515Y-12653888D02*
X9106991Y-12672936D01*
X9106991Y-12672936D02*
X9097467Y-12682460D01*
X9097467Y-12682460D02*
X9078420Y-12691984D01*
X9078420Y-12691984D02*
X9059372Y-12691984D01*
X9059372Y-12691984D02*
X9040324Y-12682460D01*
X9040324Y-12682460D02*
X9030801Y-12672936D01*
X9030801Y-12672936D02*
X9021277Y-12653888D01*
X9021277Y-12653888D02*
X9011753Y-12615793D01*
X9011753Y-12615793D02*
X9011753Y-12568174D01*
X9011753Y-12568174D02*
X9021277Y-12530079D01*
X9021277Y-12530079D02*
X9030801Y-12511031D01*
X9030801Y-12511031D02*
X9040324Y-12501508D01*
X9040324Y-12501508D02*
X9059372Y-12491984D01*
X9211753Y-12672936D02*
X9221277Y-12682460D01*
X9221277Y-12682460D02*
X9211753Y-12691984D01*
X9211753Y-12691984D02*
X9202229Y-12682460D01*
X9202229Y-12682460D02*
X9211753Y-12672936D01*
X9211753Y-12672936D02*
X9211753Y-12691984D01*
X9335563Y-12577698D02*
X9316515Y-12568174D01*
X9316515Y-12568174D02*
X9306991Y-12558650D01*
X9306991Y-12558650D02*
X9297467Y-12539603D01*
X9297467Y-12539603D02*
X9297467Y-12530079D01*
X9297467Y-12530079D02*
X9306991Y-12511031D01*
X9306991Y-12511031D02*
X9316515Y-12501508D01*
X9316515Y-12501508D02*
X9335563Y-12491984D01*
X9335563Y-12491984D02*
X9373658Y-12491984D01*
X9373658Y-12491984D02*
X9392705Y-12501508D01*
X9392705Y-12501508D02*
X9402229Y-12511031D01*
X9402229Y-12511031D02*
X9411753Y-12530079D01*
X9411753Y-12530079D02*
X9411753Y-12539603D01*
X9411753Y-12539603D02*
X9402229Y-12558650D01*
X9402229Y-12558650D02*
X9392705Y-12568174D01*
X9392705Y-12568174D02*
X9373658Y-12577698D01*
X9373658Y-12577698D02*
X9335563Y-12577698D01*
X9335563Y-12577698D02*
X9316515Y-12587222D01*
X9316515Y-12587222D02*
X9306991Y-12596746D01*
X9306991Y-12596746D02*
X9297467Y-12615793D01*
X9297467Y-12615793D02*
X9297467Y-12653888D01*
X9297467Y-12653888D02*
X9306991Y-12672936D01*
X9306991Y-12672936D02*
X9316515Y-12682460D01*
X9316515Y-12682460D02*
X9335563Y-12691984D01*
X9335563Y-12691984D02*
X9373658Y-12691984D01*
X9373658Y-12691984D02*
X9392705Y-12682460D01*
X9392705Y-12682460D02*
X9402229Y-12672936D01*
X9402229Y-12672936D02*
X9411753Y-12653888D01*
X9411753Y-12653888D02*
X9411753Y-12615793D01*
X9411753Y-12615793D02*
X9402229Y-12596746D01*
X9402229Y-12596746D02*
X9392705Y-12587222D01*
X9392705Y-12587222D02*
X9373658Y-12577698D01*
X9535563Y-12491984D02*
X9554610Y-12491984D01*
X9554610Y-12491984D02*
X9573658Y-12501508D01*
X9573658Y-12501508D02*
X9583182Y-12511031D01*
X9583182Y-12511031D02*
X9592705Y-12530079D01*
X9592705Y-12530079D02*
X9602229Y-12568174D01*
X9602229Y-12568174D02*
X9602229Y-12615793D01*
X9602229Y-12615793D02*
X9592705Y-12653888D01*
X9592705Y-12653888D02*
X9583182Y-12672936D01*
X9583182Y-12672936D02*
X9573658Y-12682460D01*
X9573658Y-12682460D02*
X9554610Y-12691984D01*
X9554610Y-12691984D02*
X9535563Y-12691984D01*
X9535563Y-12691984D02*
X9516515Y-12682460D01*
X9516515Y-12682460D02*
X9506991Y-12672936D01*
X9506991Y-12672936D02*
X9497467Y-12653888D01*
X9497467Y-12653888D02*
X9487944Y-12615793D01*
X9487944Y-12615793D02*
X9487944Y-12568174D01*
X9487944Y-12568174D02*
X9497467Y-12530079D01*
X9497467Y-12530079D02*
X9506991Y-12511031D01*
X9506991Y-12511031D02*
X9516515Y-12501508D01*
X9516515Y-12501508D02*
X9535563Y-12491984D01*
X9726039Y-12491984D02*
X9745086Y-12491984D01*
X9745086Y-12491984D02*
X9764134Y-12501508D01*
X9764134Y-12501508D02*
X9773658Y-12511031D01*
X9773658Y-12511031D02*
X9783182Y-12530079D01*
X9783182Y-12530079D02*
X9792705Y-12568174D01*
X9792705Y-12568174D02*
X9792705Y-12615793D01*
X9792705Y-12615793D02*
X9783182Y-12653888D01*
X9783182Y-12653888D02*
X9773658Y-12672936D01*
X9773658Y-12672936D02*
X9764134Y-12682460D01*
X9764134Y-12682460D02*
X9745086Y-12691984D01*
X9745086Y-12691984D02*
X9726039Y-12691984D01*
X9726039Y-12691984D02*
X9706991Y-12682460D01*
X9706991Y-12682460D02*
X9697467Y-12672936D01*
X9697467Y-12672936D02*
X9687944Y-12653888D01*
X9687944Y-12653888D02*
X9678420Y-12615793D01*
X9678420Y-12615793D02*
X9678420Y-12568174D01*
X9678420Y-12568174D02*
X9687944Y-12530079D01*
X9687944Y-12530079D02*
X9697467Y-12511031D01*
X9697467Y-12511031D02*
X9706991Y-12501508D01*
X9706991Y-12501508D02*
X9726039Y-12491984D01*
X9878420Y-12691984D02*
X9878420Y-12558650D01*
X9878420Y-12577698D02*
X9887944Y-12568174D01*
X9887944Y-12568174D02*
X9906991Y-12558650D01*
X9906991Y-12558650D02*
X9935563Y-12558650D01*
X9935563Y-12558650D02*
X9954610Y-12568174D01*
X9954610Y-12568174D02*
X9964134Y-12587222D01*
X9964134Y-12587222D02*
X9964134Y-12691984D01*
X9964134Y-12587222D02*
X9973658Y-12568174D01*
X9973658Y-12568174D02*
X9992705Y-12558650D01*
X9992705Y-12558650D02*
X10021277Y-12558650D01*
X10021277Y-12558650D02*
X10040325Y-12568174D01*
X10040325Y-12568174D02*
X10049848Y-12587222D01*
X10049848Y-12587222D02*
X10049848Y-12691984D01*
X10145086Y-12691984D02*
X10145086Y-12558650D01*
X10145086Y-12577698D02*
X10154610Y-12568174D01*
X10154610Y-12568174D02*
X10173658Y-12558650D01*
X10173658Y-12558650D02*
X10202229Y-12558650D01*
X10202229Y-12558650D02*
X10221277Y-12568174D01*
X10221277Y-12568174D02*
X10230801Y-12587222D01*
X10230801Y-12587222D02*
X10230801Y-12691984D01*
X10230801Y-12587222D02*
X10240325Y-12568174D01*
X10240325Y-12568174D02*
X10259372Y-12558650D01*
X10259372Y-12558650D02*
X10287944Y-12558650D01*
X10287944Y-12558650D02*
X10306991Y-12568174D01*
X10306991Y-12568174D02*
X10316515Y-12587222D01*
X10316515Y-12587222D02*
X10316515Y-12691984D01*
X10706991Y-12482460D02*
X10535563Y-12739603D01*
X10964134Y-12491984D02*
X10983182Y-12491984D01*
X10983182Y-12491984D02*
X11002229Y-12501508D01*
X11002229Y-12501508D02*
X11011753Y-12511031D01*
X11011753Y-12511031D02*
X11021277Y-12530079D01*
X11021277Y-12530079D02*
X11030801Y-12568174D01*
X11030801Y-12568174D02*
X11030801Y-12615793D01*
X11030801Y-12615793D02*
X11021277Y-12653888D01*
X11021277Y-12653888D02*
X11011753Y-12672936D01*
X11011753Y-12672936D02*
X11002229Y-12682460D01*
X11002229Y-12682460D02*
X10983182Y-12691984D01*
X10983182Y-12691984D02*
X10964134Y-12691984D01*
X10964134Y-12691984D02*
X10945087Y-12682460D01*
X10945087Y-12682460D02*
X10935563Y-12672936D01*
X10935563Y-12672936D02*
X10926039Y-12653888D01*
X10926039Y-12653888D02*
X10916515Y-12615793D01*
X10916515Y-12615793D02*
X10916515Y-12568174D01*
X10916515Y-12568174D02*
X10926039Y-12530079D01*
X10926039Y-12530079D02*
X10935563Y-12511031D01*
X10935563Y-12511031D02*
X10945087Y-12501508D01*
X10945087Y-12501508D02*
X10964134Y-12491984D01*
X11116515Y-12672936D02*
X11126039Y-12682460D01*
X11126039Y-12682460D02*
X11116515Y-12691984D01*
X11116515Y-12691984D02*
X11106991Y-12682460D01*
X11106991Y-12682460D02*
X11116515Y-12672936D01*
X11116515Y-12672936D02*
X11116515Y-12691984D01*
X11249848Y-12491984D02*
X11268896Y-12491984D01*
X11268896Y-12491984D02*
X11287944Y-12501508D01*
X11287944Y-12501508D02*
X11297467Y-12511031D01*
X11297467Y-12511031D02*
X11306991Y-12530079D01*
X11306991Y-12530079D02*
X11316515Y-12568174D01*
X11316515Y-12568174D02*
X11316515Y-12615793D01*
X11316515Y-12615793D02*
X11306991Y-12653888D01*
X11306991Y-12653888D02*
X11297467Y-12672936D01*
X11297467Y-12672936D02*
X11287944Y-12682460D01*
X11287944Y-12682460D02*
X11268896Y-12691984D01*
X11268896Y-12691984D02*
X11249848Y-12691984D01*
X11249848Y-12691984D02*
X11230801Y-12682460D01*
X11230801Y-12682460D02*
X11221277Y-12672936D01*
X11221277Y-12672936D02*
X11211753Y-12653888D01*
X11211753Y-12653888D02*
X11202229Y-12615793D01*
X11202229Y-12615793D02*
X11202229Y-12568174D01*
X11202229Y-12568174D02*
X11211753Y-12530079D01*
X11211753Y-12530079D02*
X11221277Y-12511031D01*
X11221277Y-12511031D02*
X11230801Y-12501508D01*
X11230801Y-12501508D02*
X11249848Y-12491984D01*
X11383182Y-12491984D02*
X11506991Y-12491984D01*
X11506991Y-12491984D02*
X11440325Y-12568174D01*
X11440325Y-12568174D02*
X11468896Y-12568174D01*
X11468896Y-12568174D02*
X11487944Y-12577698D01*
X11487944Y-12577698D02*
X11497467Y-12587222D01*
X11497467Y-12587222D02*
X11506991Y-12606269D01*
X11506991Y-12606269D02*
X11506991Y-12653888D01*
X11506991Y-12653888D02*
X11497467Y-12672936D01*
X11497467Y-12672936D02*
X11487944Y-12682460D01*
X11487944Y-12682460D02*
X11468896Y-12691984D01*
X11468896Y-12691984D02*
X11411753Y-12691984D01*
X11411753Y-12691984D02*
X11392706Y-12682460D01*
X11392706Y-12682460D02*
X11383182Y-12672936D01*
X11697467Y-12691984D02*
X11583182Y-12691984D01*
X11640325Y-12691984D02*
X11640325Y-12491984D01*
X11640325Y-12491984D02*
X11621277Y-12520555D01*
X11621277Y-12520555D02*
X11602229Y-12539603D01*
X11602229Y-12539603D02*
X11583182Y-12549127D01*
X11878420Y-12491984D02*
X11783182Y-12491984D01*
X11783182Y-12491984D02*
X11773658Y-12587222D01*
X11773658Y-12587222D02*
X11783182Y-12577698D01*
X11783182Y-12577698D02*
X11802229Y-12568174D01*
X11802229Y-12568174D02*
X11849848Y-12568174D01*
X11849848Y-12568174D02*
X11868896Y-12577698D01*
X11868896Y-12577698D02*
X11878420Y-12587222D01*
X11878420Y-12587222D02*
X11887944Y-12606269D01*
X11887944Y-12606269D02*
X11887944Y-12653888D01*
X11887944Y-12653888D02*
X11878420Y-12672936D01*
X11878420Y-12672936D02*
X11868896Y-12682460D01*
X11868896Y-12682460D02*
X11849848Y-12691984D01*
X11849848Y-12691984D02*
X11802229Y-12691984D01*
X11802229Y-12691984D02*
X11783182Y-12682460D01*
X11783182Y-12682460D02*
X11773658Y-12672936D01*
X11964134Y-12491984D02*
X11964134Y-12530079D01*
X12040325Y-12491984D02*
X12040325Y-12530079D01*
X12335563Y-12768174D02*
X12326039Y-12758650D01*
X12326039Y-12758650D02*
X12306991Y-12730079D01*
X12306991Y-12730079D02*
X12297468Y-12711031D01*
X12297468Y-12711031D02*
X12287944Y-12682460D01*
X12287944Y-12682460D02*
X12278420Y-12634841D01*
X12278420Y-12634841D02*
X12278420Y-12596746D01*
X12278420Y-12596746D02*
X12287944Y-12549127D01*
X12287944Y-12549127D02*
X12297468Y-12520555D01*
X12297468Y-12520555D02*
X12306991Y-12501508D01*
X12306991Y-12501508D02*
X12326039Y-12472936D01*
X12326039Y-12472936D02*
X12335563Y-12463412D01*
X12506991Y-12491984D02*
X12411753Y-12491984D01*
X12411753Y-12491984D02*
X12402229Y-12587222D01*
X12402229Y-12587222D02*
X12411753Y-12577698D01*
X12411753Y-12577698D02*
X12430801Y-12568174D01*
X12430801Y-12568174D02*
X12478420Y-12568174D01*
X12478420Y-12568174D02*
X12497468Y-12577698D01*
X12497468Y-12577698D02*
X12506991Y-12587222D01*
X12506991Y-12587222D02*
X12516515Y-12606269D01*
X12516515Y-12606269D02*
X12516515Y-12653888D01*
X12516515Y-12653888D02*
X12506991Y-12672936D01*
X12506991Y-12672936D02*
X12497468Y-12682460D01*
X12497468Y-12682460D02*
X12478420Y-12691984D01*
X12478420Y-12691984D02*
X12430801Y-12691984D01*
X12430801Y-12691984D02*
X12411753Y-12682460D01*
X12411753Y-12682460D02*
X12402229Y-12672936D01*
X12687944Y-12558650D02*
X12687944Y-12691984D01*
X12640325Y-12482460D02*
X12592706Y-12625317D01*
X12592706Y-12625317D02*
X12716515Y-12625317D01*
X12945087Y-12691984D02*
X12945087Y-12491984D01*
X13030801Y-12691984D02*
X13030801Y-12587222D01*
X13030801Y-12587222D02*
X13021277Y-12568174D01*
X13021277Y-12568174D02*
X13002230Y-12558650D01*
X13002230Y-12558650D02*
X12973658Y-12558650D01*
X12973658Y-12558650D02*
X12954610Y-12568174D01*
X12954610Y-12568174D02*
X12945087Y-12577698D01*
X13154610Y-12691984D02*
X13135563Y-12682460D01*
X13135563Y-12682460D02*
X13126039Y-12672936D01*
X13126039Y-12672936D02*
X13116515Y-12653888D01*
X13116515Y-12653888D02*
X13116515Y-12596746D01*
X13116515Y-12596746D02*
X13126039Y-12577698D01*
X13126039Y-12577698D02*
X13135563Y-12568174D01*
X13135563Y-12568174D02*
X13154610Y-12558650D01*
X13154610Y-12558650D02*
X13183182Y-12558650D01*
X13183182Y-12558650D02*
X13202230Y-12568174D01*
X13202230Y-12568174D02*
X13211753Y-12577698D01*
X13211753Y-12577698D02*
X13221277Y-12596746D01*
X13221277Y-12596746D02*
X13221277Y-12653888D01*
X13221277Y-12653888D02*
X13211753Y-12672936D01*
X13211753Y-12672936D02*
X13202230Y-12682460D01*
X13202230Y-12682460D02*
X13183182Y-12691984D01*
X13183182Y-12691984D02*
X13154610Y-12691984D01*
X13335563Y-12691984D02*
X13316515Y-12682460D01*
X13316515Y-12682460D02*
X13306991Y-12663412D01*
X13306991Y-12663412D02*
X13306991Y-12491984D01*
X13487944Y-12682460D02*
X13468896Y-12691984D01*
X13468896Y-12691984D02*
X13430801Y-12691984D01*
X13430801Y-12691984D02*
X13411753Y-12682460D01*
X13411753Y-12682460D02*
X13402230Y-12663412D01*
X13402230Y-12663412D02*
X13402230Y-12587222D01*
X13402230Y-12587222D02*
X13411753Y-12568174D01*
X13411753Y-12568174D02*
X13430801Y-12558650D01*
X13430801Y-12558650D02*
X13468896Y-12558650D01*
X13468896Y-12558650D02*
X13487944Y-12568174D01*
X13487944Y-12568174D02*
X13497468Y-12587222D01*
X13497468Y-12587222D02*
X13497468Y-12606269D01*
X13497468Y-12606269D02*
X13402230Y-12625317D01*
X13573658Y-12682460D02*
X13592706Y-12691984D01*
X13592706Y-12691984D02*
X13630801Y-12691984D01*
X13630801Y-12691984D02*
X13649849Y-12682460D01*
X13649849Y-12682460D02*
X13659372Y-12663412D01*
X13659372Y-12663412D02*
X13659372Y-12653888D01*
X13659372Y-12653888D02*
X13649849Y-12634841D01*
X13649849Y-12634841D02*
X13630801Y-12625317D01*
X13630801Y-12625317D02*
X13602230Y-12625317D01*
X13602230Y-12625317D02*
X13583182Y-12615793D01*
X13583182Y-12615793D02*
X13573658Y-12596746D01*
X13573658Y-12596746D02*
X13573658Y-12587222D01*
X13573658Y-12587222D02*
X13583182Y-12568174D01*
X13583182Y-12568174D02*
X13602230Y-12558650D01*
X13602230Y-12558650D02*
X13630801Y-12558650D01*
X13630801Y-12558650D02*
X13649849Y-12568174D01*
X13726039Y-12768174D02*
X13735563Y-12758650D01*
X13735563Y-12758650D02*
X13754611Y-12730079D01*
X13754611Y-12730079D02*
X13764134Y-12711031D01*
X13764134Y-12711031D02*
X13773658Y-12682460D01*
X13773658Y-12682460D02*
X13783182Y-12634841D01*
X13783182Y-12634841D02*
X13783182Y-12596746D01*
X13783182Y-12596746D02*
X13773658Y-12549127D01*
X13773658Y-12549127D02*
X13764134Y-12520555D01*
X13764134Y-12520555D02*
X13754611Y-12501508D01*
X13754611Y-12501508D02*
X13735563Y-12472936D01*
X13735563Y-12472936D02*
X13726039Y-12463412D01*
D12*
X8747320Y-12896320D02*
X8747320Y-12832680D01*
X8683680Y-12832680D01*
X8683680Y-12896320D01*
X8747320Y-12896320D01*
D11*
X9059372Y-12755984D02*
X9078420Y-12755984D01*
X9078420Y-12755984D02*
X9097467Y-12765508D01*
X9097467Y-12765508D02*
X9106991Y-12775031D01*
X9106991Y-12775031D02*
X9116515Y-12794079D01*
X9116515Y-12794079D02*
X9126039Y-12832174D01*
X9126039Y-12832174D02*
X9126039Y-12879793D01*
X9126039Y-12879793D02*
X9116515Y-12917888D01*
X9116515Y-12917888D02*
X9106991Y-12936936D01*
X9106991Y-12936936D02*
X9097467Y-12946460D01*
X9097467Y-12946460D02*
X9078420Y-12955984D01*
X9078420Y-12955984D02*
X9059372Y-12955984D01*
X9059372Y-12955984D02*
X9040324Y-12946460D01*
X9040324Y-12946460D02*
X9030801Y-12936936D01*
X9030801Y-12936936D02*
X9021277Y-12917888D01*
X9021277Y-12917888D02*
X9011753Y-12879793D01*
X9011753Y-12879793D02*
X9011753Y-12832174D01*
X9011753Y-12832174D02*
X9021277Y-12794079D01*
X9021277Y-12794079D02*
X9030801Y-12775031D01*
X9030801Y-12775031D02*
X9040324Y-12765508D01*
X9040324Y-12765508D02*
X9059372Y-12755984D01*
X9211753Y-12936936D02*
X9221277Y-12946460D01*
X9221277Y-12946460D02*
X9211753Y-12955984D01*
X9211753Y-12955984D02*
X9202229Y-12946460D01*
X9202229Y-12946460D02*
X9211753Y-12936936D01*
X9211753Y-12936936D02*
X9211753Y-12955984D01*
X9316515Y-12955984D02*
X9354610Y-12955984D01*
X9354610Y-12955984D02*
X9373658Y-12946460D01*
X9373658Y-12946460D02*
X9383182Y-12936936D01*
X9383182Y-12936936D02*
X9402229Y-12908365D01*
X9402229Y-12908365D02*
X9411753Y-12870269D01*
X9411753Y-12870269D02*
X9411753Y-12794079D01*
X9411753Y-12794079D02*
X9402229Y-12775031D01*
X9402229Y-12775031D02*
X9392705Y-12765508D01*
X9392705Y-12765508D02*
X9373658Y-12755984D01*
X9373658Y-12755984D02*
X9335563Y-12755984D01*
X9335563Y-12755984D02*
X9316515Y-12765508D01*
X9316515Y-12765508D02*
X9306991Y-12775031D01*
X9306991Y-12775031D02*
X9297467Y-12794079D01*
X9297467Y-12794079D02*
X9297467Y-12841698D01*
X9297467Y-12841698D02*
X9306991Y-12860746D01*
X9306991Y-12860746D02*
X9316515Y-12870269D01*
X9316515Y-12870269D02*
X9335563Y-12879793D01*
X9335563Y-12879793D02*
X9373658Y-12879793D01*
X9373658Y-12879793D02*
X9392705Y-12870269D01*
X9392705Y-12870269D02*
X9402229Y-12860746D01*
X9402229Y-12860746D02*
X9411753Y-12841698D01*
X9535563Y-12755984D02*
X9554610Y-12755984D01*
X9554610Y-12755984D02*
X9573658Y-12765508D01*
X9573658Y-12765508D02*
X9583182Y-12775031D01*
X9583182Y-12775031D02*
X9592705Y-12794079D01*
X9592705Y-12794079D02*
X9602229Y-12832174D01*
X9602229Y-12832174D02*
X9602229Y-12879793D01*
X9602229Y-12879793D02*
X9592705Y-12917888D01*
X9592705Y-12917888D02*
X9583182Y-12936936D01*
X9583182Y-12936936D02*
X9573658Y-12946460D01*
X9573658Y-12946460D02*
X9554610Y-12955984D01*
X9554610Y-12955984D02*
X9535563Y-12955984D01*
X9535563Y-12955984D02*
X9516515Y-12946460D01*
X9516515Y-12946460D02*
X9506991Y-12936936D01*
X9506991Y-12936936D02*
X9497467Y-12917888D01*
X9497467Y-12917888D02*
X9487944Y-12879793D01*
X9487944Y-12879793D02*
X9487944Y-12832174D01*
X9487944Y-12832174D02*
X9497467Y-12794079D01*
X9497467Y-12794079D02*
X9506991Y-12775031D01*
X9506991Y-12775031D02*
X9516515Y-12765508D01*
X9516515Y-12765508D02*
X9535563Y-12755984D01*
X9726039Y-12755984D02*
X9745086Y-12755984D01*
X9745086Y-12755984D02*
X9764134Y-12765508D01*
X9764134Y-12765508D02*
X9773658Y-12775031D01*
X9773658Y-12775031D02*
X9783182Y-12794079D01*
X9783182Y-12794079D02*
X9792705Y-12832174D01*
X9792705Y-12832174D02*
X9792705Y-12879793D01*
X9792705Y-12879793D02*
X9783182Y-12917888D01*
X9783182Y-12917888D02*
X9773658Y-12936936D01*
X9773658Y-12936936D02*
X9764134Y-12946460D01*
X9764134Y-12946460D02*
X9745086Y-12955984D01*
X9745086Y-12955984D02*
X9726039Y-12955984D01*
X9726039Y-12955984D02*
X9706991Y-12946460D01*
X9706991Y-12946460D02*
X9697467Y-12936936D01*
X9697467Y-12936936D02*
X9687944Y-12917888D01*
X9687944Y-12917888D02*
X9678420Y-12879793D01*
X9678420Y-12879793D02*
X9678420Y-12832174D01*
X9678420Y-12832174D02*
X9687944Y-12794079D01*
X9687944Y-12794079D02*
X9697467Y-12775031D01*
X9697467Y-12775031D02*
X9706991Y-12765508D01*
X9706991Y-12765508D02*
X9726039Y-12755984D01*
X9878420Y-12955984D02*
X9878420Y-12822650D01*
X9878420Y-12841698D02*
X9887944Y-12832174D01*
X9887944Y-12832174D02*
X9906991Y-12822650D01*
X9906991Y-12822650D02*
X9935563Y-12822650D01*
X9935563Y-12822650D02*
X9954610Y-12832174D01*
X9954610Y-12832174D02*
X9964134Y-12851222D01*
X9964134Y-12851222D02*
X9964134Y-12955984D01*
X9964134Y-12851222D02*
X9973658Y-12832174D01*
X9973658Y-12832174D02*
X9992705Y-12822650D01*
X9992705Y-12822650D02*
X10021277Y-12822650D01*
X10021277Y-12822650D02*
X10040325Y-12832174D01*
X10040325Y-12832174D02*
X10049848Y-12851222D01*
X10049848Y-12851222D02*
X10049848Y-12955984D01*
X10145086Y-12955984D02*
X10145086Y-12822650D01*
X10145086Y-12841698D02*
X10154610Y-12832174D01*
X10154610Y-12832174D02*
X10173658Y-12822650D01*
X10173658Y-12822650D02*
X10202229Y-12822650D01*
X10202229Y-12822650D02*
X10221277Y-12832174D01*
X10221277Y-12832174D02*
X10230801Y-12851222D01*
X10230801Y-12851222D02*
X10230801Y-12955984D01*
X10230801Y-12851222D02*
X10240325Y-12832174D01*
X10240325Y-12832174D02*
X10259372Y-12822650D01*
X10259372Y-12822650D02*
X10287944Y-12822650D01*
X10287944Y-12822650D02*
X10306991Y-12832174D01*
X10306991Y-12832174D02*
X10316515Y-12851222D01*
X10316515Y-12851222D02*
X10316515Y-12955984D01*
X10706991Y-12746460D02*
X10535563Y-13003603D01*
X10964134Y-12755984D02*
X10983182Y-12755984D01*
X10983182Y-12755984D02*
X11002229Y-12765508D01*
X11002229Y-12765508D02*
X11011753Y-12775031D01*
X11011753Y-12775031D02*
X11021277Y-12794079D01*
X11021277Y-12794079D02*
X11030801Y-12832174D01*
X11030801Y-12832174D02*
X11030801Y-12879793D01*
X11030801Y-12879793D02*
X11021277Y-12917888D01*
X11021277Y-12917888D02*
X11011753Y-12936936D01*
X11011753Y-12936936D02*
X11002229Y-12946460D01*
X11002229Y-12946460D02*
X10983182Y-12955984D01*
X10983182Y-12955984D02*
X10964134Y-12955984D01*
X10964134Y-12955984D02*
X10945087Y-12946460D01*
X10945087Y-12946460D02*
X10935563Y-12936936D01*
X10935563Y-12936936D02*
X10926039Y-12917888D01*
X10926039Y-12917888D02*
X10916515Y-12879793D01*
X10916515Y-12879793D02*
X10916515Y-12832174D01*
X10916515Y-12832174D02*
X10926039Y-12794079D01*
X10926039Y-12794079D02*
X10935563Y-12775031D01*
X10935563Y-12775031D02*
X10945087Y-12765508D01*
X10945087Y-12765508D02*
X10964134Y-12755984D01*
X11116515Y-12936936D02*
X11126039Y-12946460D01*
X11126039Y-12946460D02*
X11116515Y-12955984D01*
X11116515Y-12955984D02*
X11106991Y-12946460D01*
X11106991Y-12946460D02*
X11116515Y-12936936D01*
X11116515Y-12936936D02*
X11116515Y-12955984D01*
X11249848Y-12755984D02*
X11268896Y-12755984D01*
X11268896Y-12755984D02*
X11287944Y-12765508D01*
X11287944Y-12765508D02*
X11297467Y-12775031D01*
X11297467Y-12775031D02*
X11306991Y-12794079D01*
X11306991Y-12794079D02*
X11316515Y-12832174D01*
X11316515Y-12832174D02*
X11316515Y-12879793D01*
X11316515Y-12879793D02*
X11306991Y-12917888D01*
X11306991Y-12917888D02*
X11297467Y-12936936D01*
X11297467Y-12936936D02*
X11287944Y-12946460D01*
X11287944Y-12946460D02*
X11268896Y-12955984D01*
X11268896Y-12955984D02*
X11249848Y-12955984D01*
X11249848Y-12955984D02*
X11230801Y-12946460D01*
X11230801Y-12946460D02*
X11221277Y-12936936D01*
X11221277Y-12936936D02*
X11211753Y-12917888D01*
X11211753Y-12917888D02*
X11202229Y-12879793D01*
X11202229Y-12879793D02*
X11202229Y-12832174D01*
X11202229Y-12832174D02*
X11211753Y-12794079D01*
X11211753Y-12794079D02*
X11221277Y-12775031D01*
X11221277Y-12775031D02*
X11230801Y-12765508D01*
X11230801Y-12765508D02*
X11249848Y-12755984D01*
X11383182Y-12755984D02*
X11506991Y-12755984D01*
X11506991Y-12755984D02*
X11440325Y-12832174D01*
X11440325Y-12832174D02*
X11468896Y-12832174D01*
X11468896Y-12832174D02*
X11487944Y-12841698D01*
X11487944Y-12841698D02*
X11497467Y-12851222D01*
X11497467Y-12851222D02*
X11506991Y-12870269D01*
X11506991Y-12870269D02*
X11506991Y-12917888D01*
X11506991Y-12917888D02*
X11497467Y-12936936D01*
X11497467Y-12936936D02*
X11487944Y-12946460D01*
X11487944Y-12946460D02*
X11468896Y-12955984D01*
X11468896Y-12955984D02*
X11411753Y-12955984D01*
X11411753Y-12955984D02*
X11392706Y-12946460D01*
X11392706Y-12946460D02*
X11383182Y-12936936D01*
X11687944Y-12755984D02*
X11592706Y-12755984D01*
X11592706Y-12755984D02*
X11583182Y-12851222D01*
X11583182Y-12851222D02*
X11592706Y-12841698D01*
X11592706Y-12841698D02*
X11611753Y-12832174D01*
X11611753Y-12832174D02*
X11659372Y-12832174D01*
X11659372Y-12832174D02*
X11678420Y-12841698D01*
X11678420Y-12841698D02*
X11687944Y-12851222D01*
X11687944Y-12851222D02*
X11697467Y-12870269D01*
X11697467Y-12870269D02*
X11697467Y-12917888D01*
X11697467Y-12917888D02*
X11687944Y-12936936D01*
X11687944Y-12936936D02*
X11678420Y-12946460D01*
X11678420Y-12946460D02*
X11659372Y-12955984D01*
X11659372Y-12955984D02*
X11611753Y-12955984D01*
X11611753Y-12955984D02*
X11592706Y-12946460D01*
X11592706Y-12946460D02*
X11583182Y-12936936D01*
X11868896Y-12822650D02*
X11868896Y-12955984D01*
X11821277Y-12746460D02*
X11773658Y-12889317D01*
X11773658Y-12889317D02*
X11897467Y-12889317D01*
X11964134Y-12755984D02*
X11964134Y-12794079D01*
X12040325Y-12755984D02*
X12040325Y-12794079D01*
X12335563Y-13032174D02*
X12326039Y-13022650D01*
X12326039Y-13022650D02*
X12306991Y-12994079D01*
X12306991Y-12994079D02*
X12297468Y-12975031D01*
X12297468Y-12975031D02*
X12287944Y-12946460D01*
X12287944Y-12946460D02*
X12278420Y-12898841D01*
X12278420Y-12898841D02*
X12278420Y-12860746D01*
X12278420Y-12860746D02*
X12287944Y-12813127D01*
X12287944Y-12813127D02*
X12297468Y-12784555D01*
X12297468Y-12784555D02*
X12306991Y-12765508D01*
X12306991Y-12765508D02*
X12326039Y-12736936D01*
X12326039Y-12736936D02*
X12335563Y-12727412D01*
X12402229Y-12775031D02*
X12411753Y-12765508D01*
X12411753Y-12765508D02*
X12430801Y-12755984D01*
X12430801Y-12755984D02*
X12478420Y-12755984D01*
X12478420Y-12755984D02*
X12497468Y-12765508D01*
X12497468Y-12765508D02*
X12506991Y-12775031D01*
X12506991Y-12775031D02*
X12516515Y-12794079D01*
X12516515Y-12794079D02*
X12516515Y-12813127D01*
X12516515Y-12813127D02*
X12506991Y-12841698D01*
X12506991Y-12841698D02*
X12392706Y-12955984D01*
X12392706Y-12955984D02*
X12516515Y-12955984D01*
X12754610Y-12955984D02*
X12754610Y-12755984D01*
X12840325Y-12955984D02*
X12840325Y-12851222D01*
X12840325Y-12851222D02*
X12830801Y-12832174D01*
X12830801Y-12832174D02*
X12811753Y-12822650D01*
X12811753Y-12822650D02*
X12783182Y-12822650D01*
X12783182Y-12822650D02*
X12764134Y-12832174D01*
X12764134Y-12832174D02*
X12754610Y-12841698D01*
X12964134Y-12955984D02*
X12945087Y-12946460D01*
X12945087Y-12946460D02*
X12935563Y-12936936D01*
X12935563Y-12936936D02*
X12926039Y-12917888D01*
X12926039Y-12917888D02*
X12926039Y-12860746D01*
X12926039Y-12860746D02*
X12935563Y-12841698D01*
X12935563Y-12841698D02*
X12945087Y-12832174D01*
X12945087Y-12832174D02*
X12964134Y-12822650D01*
X12964134Y-12822650D02*
X12992706Y-12822650D01*
X12992706Y-12822650D02*
X13011753Y-12832174D01*
X13011753Y-12832174D02*
X13021277Y-12841698D01*
X13021277Y-12841698D02*
X13030801Y-12860746D01*
X13030801Y-12860746D02*
X13030801Y-12917888D01*
X13030801Y-12917888D02*
X13021277Y-12936936D01*
X13021277Y-12936936D02*
X13011753Y-12946460D01*
X13011753Y-12946460D02*
X12992706Y-12955984D01*
X12992706Y-12955984D02*
X12964134Y-12955984D01*
X13145087Y-12955984D02*
X13126039Y-12946460D01*
X13126039Y-12946460D02*
X13116515Y-12927412D01*
X13116515Y-12927412D02*
X13116515Y-12755984D01*
X13297468Y-12946460D02*
X13278420Y-12955984D01*
X13278420Y-12955984D02*
X13240325Y-12955984D01*
X13240325Y-12955984D02*
X13221277Y-12946460D01*
X13221277Y-12946460D02*
X13211753Y-12927412D01*
X13211753Y-12927412D02*
X13211753Y-12851222D01*
X13211753Y-12851222D02*
X13221277Y-12832174D01*
X13221277Y-12832174D02*
X13240325Y-12822650D01*
X13240325Y-12822650D02*
X13278420Y-12822650D01*
X13278420Y-12822650D02*
X13297468Y-12832174D01*
X13297468Y-12832174D02*
X13306991Y-12851222D01*
X13306991Y-12851222D02*
X13306991Y-12870269D01*
X13306991Y-12870269D02*
X13211753Y-12889317D01*
X13383182Y-12946460D02*
X13402230Y-12955984D01*
X13402230Y-12955984D02*
X13440325Y-12955984D01*
X13440325Y-12955984D02*
X13459372Y-12946460D01*
X13459372Y-12946460D02*
X13468896Y-12927412D01*
X13468896Y-12927412D02*
X13468896Y-12917888D01*
X13468896Y-12917888D02*
X13459372Y-12898841D01*
X13459372Y-12898841D02*
X13440325Y-12889317D01*
X13440325Y-12889317D02*
X13411753Y-12889317D01*
X13411753Y-12889317D02*
X13392706Y-12879793D01*
X13392706Y-12879793D02*
X13383182Y-12860746D01*
X13383182Y-12860746D02*
X13383182Y-12851222D01*
X13383182Y-12851222D02*
X13392706Y-12832174D01*
X13392706Y-12832174D02*
X13411753Y-12822650D01*
X13411753Y-12822650D02*
X13440325Y-12822650D01*
X13440325Y-12822650D02*
X13459372Y-12832174D01*
X13535563Y-13032174D02*
X13545087Y-13022650D01*
X13545087Y-13022650D02*
X13564134Y-12994079D01*
X13564134Y-12994079D02*
X13573658Y-12975031D01*
X13573658Y-12975031D02*
X13583182Y-12946460D01*
X13583182Y-12946460D02*
X13592706Y-12898841D01*
X13592706Y-12898841D02*
X13592706Y-12860746D01*
X13592706Y-12860746D02*
X13583182Y-12813127D01*
X13583182Y-12813127D02*
X13573658Y-12784555D01*
X13573658Y-12784555D02*
X13564134Y-12765508D01*
X13564134Y-12765508D02*
X13545087Y-12736936D01*
X13545087Y-12736936D02*
X13535563Y-12727412D01*
D12*
X8710500Y-13178500D02*
X8760500Y-13128500D01*
X8710500Y-13078500D01*
X8660500Y-13128500D01*
X8710500Y-13178500D01*
D11*
X9126039Y-13219984D02*
X9011753Y-13219984D01*
X9068896Y-13219984D02*
X9068896Y-13019984D01*
X9068896Y-13019984D02*
X9049848Y-13048555D01*
X9049848Y-13048555D02*
X9030801Y-13067603D01*
X9030801Y-13067603D02*
X9011753Y-13077127D01*
X9211753Y-13200936D02*
X9221277Y-13210460D01*
X9221277Y-13210460D02*
X9211753Y-13219984D01*
X9211753Y-13219984D02*
X9202229Y-13210460D01*
X9202229Y-13210460D02*
X9211753Y-13200936D01*
X9211753Y-13200936D02*
X9211753Y-13219984D01*
X9345086Y-13019984D02*
X9364134Y-13019984D01*
X9364134Y-13019984D02*
X9383182Y-13029508D01*
X9383182Y-13029508D02*
X9392705Y-13039031D01*
X9392705Y-13039031D02*
X9402229Y-13058079D01*
X9402229Y-13058079D02*
X9411753Y-13096174D01*
X9411753Y-13096174D02*
X9411753Y-13143793D01*
X9411753Y-13143793D02*
X9402229Y-13181888D01*
X9402229Y-13181888D02*
X9392705Y-13200936D01*
X9392705Y-13200936D02*
X9383182Y-13210460D01*
X9383182Y-13210460D02*
X9364134Y-13219984D01*
X9364134Y-13219984D02*
X9345086Y-13219984D01*
X9345086Y-13219984D02*
X9326039Y-13210460D01*
X9326039Y-13210460D02*
X9316515Y-13200936D01*
X9316515Y-13200936D02*
X9306991Y-13181888D01*
X9306991Y-13181888D02*
X9297467Y-13143793D01*
X9297467Y-13143793D02*
X9297467Y-13096174D01*
X9297467Y-13096174D02*
X9306991Y-13058079D01*
X9306991Y-13058079D02*
X9316515Y-13039031D01*
X9316515Y-13039031D02*
X9326039Y-13029508D01*
X9326039Y-13029508D02*
X9345086Y-13019984D01*
X9535563Y-13019984D02*
X9554610Y-13019984D01*
X9554610Y-13019984D02*
X9573658Y-13029508D01*
X9573658Y-13029508D02*
X9583182Y-13039031D01*
X9583182Y-13039031D02*
X9592705Y-13058079D01*
X9592705Y-13058079D02*
X9602229Y-13096174D01*
X9602229Y-13096174D02*
X9602229Y-13143793D01*
X9602229Y-13143793D02*
X9592705Y-13181888D01*
X9592705Y-13181888D02*
X9583182Y-13200936D01*
X9583182Y-13200936D02*
X9573658Y-13210460D01*
X9573658Y-13210460D02*
X9554610Y-13219984D01*
X9554610Y-13219984D02*
X9535563Y-13219984D01*
X9535563Y-13219984D02*
X9516515Y-13210460D01*
X9516515Y-13210460D02*
X9506991Y-13200936D01*
X9506991Y-13200936D02*
X9497467Y-13181888D01*
X9497467Y-13181888D02*
X9487944Y-13143793D01*
X9487944Y-13143793D02*
X9487944Y-13096174D01*
X9487944Y-13096174D02*
X9497467Y-13058079D01*
X9497467Y-13058079D02*
X9506991Y-13039031D01*
X9506991Y-13039031D02*
X9516515Y-13029508D01*
X9516515Y-13029508D02*
X9535563Y-13019984D01*
X9726039Y-13019984D02*
X9745086Y-13019984D01*
X9745086Y-13019984D02*
X9764134Y-13029508D01*
X9764134Y-13029508D02*
X9773658Y-13039031D01*
X9773658Y-13039031D02*
X9783182Y-13058079D01*
X9783182Y-13058079D02*
X9792705Y-13096174D01*
X9792705Y-13096174D02*
X9792705Y-13143793D01*
X9792705Y-13143793D02*
X9783182Y-13181888D01*
X9783182Y-13181888D02*
X9773658Y-13200936D01*
X9773658Y-13200936D02*
X9764134Y-13210460D01*
X9764134Y-13210460D02*
X9745086Y-13219984D01*
X9745086Y-13219984D02*
X9726039Y-13219984D01*
X9726039Y-13219984D02*
X9706991Y-13210460D01*
X9706991Y-13210460D02*
X9697467Y-13200936D01*
X9697467Y-13200936D02*
X9687944Y-13181888D01*
X9687944Y-13181888D02*
X9678420Y-13143793D01*
X9678420Y-13143793D02*
X9678420Y-13096174D01*
X9678420Y-13096174D02*
X9687944Y-13058079D01*
X9687944Y-13058079D02*
X9697467Y-13039031D01*
X9697467Y-13039031D02*
X9706991Y-13029508D01*
X9706991Y-13029508D02*
X9726039Y-13019984D01*
X9878420Y-13219984D02*
X9878420Y-13086650D01*
X9878420Y-13105698D02*
X9887944Y-13096174D01*
X9887944Y-13096174D02*
X9906991Y-13086650D01*
X9906991Y-13086650D02*
X9935563Y-13086650D01*
X9935563Y-13086650D02*
X9954610Y-13096174D01*
X9954610Y-13096174D02*
X9964134Y-13115222D01*
X9964134Y-13115222D02*
X9964134Y-13219984D01*
X9964134Y-13115222D02*
X9973658Y-13096174D01*
X9973658Y-13096174D02*
X9992705Y-13086650D01*
X9992705Y-13086650D02*
X10021277Y-13086650D01*
X10021277Y-13086650D02*
X10040325Y-13096174D01*
X10040325Y-13096174D02*
X10049848Y-13115222D01*
X10049848Y-13115222D02*
X10049848Y-13219984D01*
X10145086Y-13219984D02*
X10145086Y-13086650D01*
X10145086Y-13105698D02*
X10154610Y-13096174D01*
X10154610Y-13096174D02*
X10173658Y-13086650D01*
X10173658Y-13086650D02*
X10202229Y-13086650D01*
X10202229Y-13086650D02*
X10221277Y-13096174D01*
X10221277Y-13096174D02*
X10230801Y-13115222D01*
X10230801Y-13115222D02*
X10230801Y-13219984D01*
X10230801Y-13115222D02*
X10240325Y-13096174D01*
X10240325Y-13096174D02*
X10259372Y-13086650D01*
X10259372Y-13086650D02*
X10287944Y-13086650D01*
X10287944Y-13086650D02*
X10306991Y-13096174D01*
X10306991Y-13096174D02*
X10316515Y-13115222D01*
X10316515Y-13115222D02*
X10316515Y-13219984D01*
X10706991Y-13010460D02*
X10535563Y-13267603D01*
X10964134Y-13019984D02*
X10983182Y-13019984D01*
X10983182Y-13019984D02*
X11002229Y-13029508D01*
X11002229Y-13029508D02*
X11011753Y-13039031D01*
X11011753Y-13039031D02*
X11021277Y-13058079D01*
X11021277Y-13058079D02*
X11030801Y-13096174D01*
X11030801Y-13096174D02*
X11030801Y-13143793D01*
X11030801Y-13143793D02*
X11021277Y-13181888D01*
X11021277Y-13181888D02*
X11011753Y-13200936D01*
X11011753Y-13200936D02*
X11002229Y-13210460D01*
X11002229Y-13210460D02*
X10983182Y-13219984D01*
X10983182Y-13219984D02*
X10964134Y-13219984D01*
X10964134Y-13219984D02*
X10945087Y-13210460D01*
X10945087Y-13210460D02*
X10935563Y-13200936D01*
X10935563Y-13200936D02*
X10926039Y-13181888D01*
X10926039Y-13181888D02*
X10916515Y-13143793D01*
X10916515Y-13143793D02*
X10916515Y-13096174D01*
X10916515Y-13096174D02*
X10926039Y-13058079D01*
X10926039Y-13058079D02*
X10935563Y-13039031D01*
X10935563Y-13039031D02*
X10945087Y-13029508D01*
X10945087Y-13029508D02*
X10964134Y-13019984D01*
X11116515Y-13200936D02*
X11126039Y-13210460D01*
X11126039Y-13210460D02*
X11116515Y-13219984D01*
X11116515Y-13219984D02*
X11106991Y-13210460D01*
X11106991Y-13210460D02*
X11116515Y-13200936D01*
X11116515Y-13200936D02*
X11116515Y-13219984D01*
X11249848Y-13019984D02*
X11268896Y-13019984D01*
X11268896Y-13019984D02*
X11287944Y-13029508D01*
X11287944Y-13029508D02*
X11297467Y-13039031D01*
X11297467Y-13039031D02*
X11306991Y-13058079D01*
X11306991Y-13058079D02*
X11316515Y-13096174D01*
X11316515Y-13096174D02*
X11316515Y-13143793D01*
X11316515Y-13143793D02*
X11306991Y-13181888D01*
X11306991Y-13181888D02*
X11297467Y-13200936D01*
X11297467Y-13200936D02*
X11287944Y-13210460D01*
X11287944Y-13210460D02*
X11268896Y-13219984D01*
X11268896Y-13219984D02*
X11249848Y-13219984D01*
X11249848Y-13219984D02*
X11230801Y-13210460D01*
X11230801Y-13210460D02*
X11221277Y-13200936D01*
X11221277Y-13200936D02*
X11211753Y-13181888D01*
X11211753Y-13181888D02*
X11202229Y-13143793D01*
X11202229Y-13143793D02*
X11202229Y-13096174D01*
X11202229Y-13096174D02*
X11211753Y-13058079D01*
X11211753Y-13058079D02*
X11221277Y-13039031D01*
X11221277Y-13039031D02*
X11230801Y-13029508D01*
X11230801Y-13029508D02*
X11249848Y-13019984D01*
X11383182Y-13019984D02*
X11506991Y-13019984D01*
X11506991Y-13019984D02*
X11440325Y-13096174D01*
X11440325Y-13096174D02*
X11468896Y-13096174D01*
X11468896Y-13096174D02*
X11487944Y-13105698D01*
X11487944Y-13105698D02*
X11497467Y-13115222D01*
X11497467Y-13115222D02*
X11506991Y-13134269D01*
X11506991Y-13134269D02*
X11506991Y-13181888D01*
X11506991Y-13181888D02*
X11497467Y-13200936D01*
X11497467Y-13200936D02*
X11487944Y-13210460D01*
X11487944Y-13210460D02*
X11468896Y-13219984D01*
X11468896Y-13219984D02*
X11411753Y-13219984D01*
X11411753Y-13219984D02*
X11392706Y-13210460D01*
X11392706Y-13210460D02*
X11383182Y-13200936D01*
X11602229Y-13219984D02*
X11640325Y-13219984D01*
X11640325Y-13219984D02*
X11659372Y-13210460D01*
X11659372Y-13210460D02*
X11668896Y-13200936D01*
X11668896Y-13200936D02*
X11687944Y-13172365D01*
X11687944Y-13172365D02*
X11697467Y-13134269D01*
X11697467Y-13134269D02*
X11697467Y-13058079D01*
X11697467Y-13058079D02*
X11687944Y-13039031D01*
X11687944Y-13039031D02*
X11678420Y-13029508D01*
X11678420Y-13029508D02*
X11659372Y-13019984D01*
X11659372Y-13019984D02*
X11621277Y-13019984D01*
X11621277Y-13019984D02*
X11602229Y-13029508D01*
X11602229Y-13029508D02*
X11592706Y-13039031D01*
X11592706Y-13039031D02*
X11583182Y-13058079D01*
X11583182Y-13058079D02*
X11583182Y-13105698D01*
X11583182Y-13105698D02*
X11592706Y-13124746D01*
X11592706Y-13124746D02*
X11602229Y-13134269D01*
X11602229Y-13134269D02*
X11621277Y-13143793D01*
X11621277Y-13143793D02*
X11659372Y-13143793D01*
X11659372Y-13143793D02*
X11678420Y-13134269D01*
X11678420Y-13134269D02*
X11687944Y-13124746D01*
X11687944Y-13124746D02*
X11697467Y-13105698D01*
X11868896Y-13086650D02*
X11868896Y-13219984D01*
X11821277Y-13010460D02*
X11773658Y-13153317D01*
X11773658Y-13153317D02*
X11897467Y-13153317D01*
X11964134Y-13019984D02*
X11964134Y-13058079D01*
X12040325Y-13019984D02*
X12040325Y-13058079D01*
X12335563Y-13296174D02*
X12326039Y-13286650D01*
X12326039Y-13286650D02*
X12306991Y-13258079D01*
X12306991Y-13258079D02*
X12297468Y-13239031D01*
X12297468Y-13239031D02*
X12287944Y-13210460D01*
X12287944Y-13210460D02*
X12278420Y-13162841D01*
X12278420Y-13162841D02*
X12278420Y-13124746D01*
X12278420Y-13124746D02*
X12287944Y-13077127D01*
X12287944Y-13077127D02*
X12297468Y-13048555D01*
X12297468Y-13048555D02*
X12306991Y-13029508D01*
X12306991Y-13029508D02*
X12326039Y-13000936D01*
X12326039Y-13000936D02*
X12335563Y-12991412D01*
X12402229Y-13039031D02*
X12411753Y-13029508D01*
X12411753Y-13029508D02*
X12430801Y-13019984D01*
X12430801Y-13019984D02*
X12478420Y-13019984D01*
X12478420Y-13019984D02*
X12497468Y-13029508D01*
X12497468Y-13029508D02*
X12506991Y-13039031D01*
X12506991Y-13039031D02*
X12516515Y-13058079D01*
X12516515Y-13058079D02*
X12516515Y-13077127D01*
X12516515Y-13077127D02*
X12506991Y-13105698D01*
X12506991Y-13105698D02*
X12392706Y-13219984D01*
X12392706Y-13219984D02*
X12516515Y-13219984D01*
X12754610Y-13219984D02*
X12754610Y-13019984D01*
X12840325Y-13219984D02*
X12840325Y-13115222D01*
X12840325Y-13115222D02*
X12830801Y-13096174D01*
X12830801Y-13096174D02*
X12811753Y-13086650D01*
X12811753Y-13086650D02*
X12783182Y-13086650D01*
X12783182Y-13086650D02*
X12764134Y-13096174D01*
X12764134Y-13096174D02*
X12754610Y-13105698D01*
X12964134Y-13219984D02*
X12945087Y-13210460D01*
X12945087Y-13210460D02*
X12935563Y-13200936D01*
X12935563Y-13200936D02*
X12926039Y-13181888D01*
X12926039Y-13181888D02*
X12926039Y-13124746D01*
X12926039Y-13124746D02*
X12935563Y-13105698D01*
X12935563Y-13105698D02*
X12945087Y-13096174D01*
X12945087Y-13096174D02*
X12964134Y-13086650D01*
X12964134Y-13086650D02*
X12992706Y-13086650D01*
X12992706Y-13086650D02*
X13011753Y-13096174D01*
X13011753Y-13096174D02*
X13021277Y-13105698D01*
X13021277Y-13105698D02*
X13030801Y-13124746D01*
X13030801Y-13124746D02*
X13030801Y-13181888D01*
X13030801Y-13181888D02*
X13021277Y-13200936D01*
X13021277Y-13200936D02*
X13011753Y-13210460D01*
X13011753Y-13210460D02*
X12992706Y-13219984D01*
X12992706Y-13219984D02*
X12964134Y-13219984D01*
X13145087Y-13219984D02*
X13126039Y-13210460D01*
X13126039Y-13210460D02*
X13116515Y-13191412D01*
X13116515Y-13191412D02*
X13116515Y-13019984D01*
X13297468Y-13210460D02*
X13278420Y-13219984D01*
X13278420Y-13219984D02*
X13240325Y-13219984D01*
X13240325Y-13219984D02*
X13221277Y-13210460D01*
X13221277Y-13210460D02*
X13211753Y-13191412D01*
X13211753Y-13191412D02*
X13211753Y-13115222D01*
X13211753Y-13115222D02*
X13221277Y-13096174D01*
X13221277Y-13096174D02*
X13240325Y-13086650D01*
X13240325Y-13086650D02*
X13278420Y-13086650D01*
X13278420Y-13086650D02*
X13297468Y-13096174D01*
X13297468Y-13096174D02*
X13306991Y-13115222D01*
X13306991Y-13115222D02*
X13306991Y-13134269D01*
X13306991Y-13134269D02*
X13211753Y-13153317D01*
X13383182Y-13210460D02*
X13402230Y-13219984D01*
X13402230Y-13219984D02*
X13440325Y-13219984D01*
X13440325Y-13219984D02*
X13459372Y-13210460D01*
X13459372Y-13210460D02*
X13468896Y-13191412D01*
X13468896Y-13191412D02*
X13468896Y-13181888D01*
X13468896Y-13181888D02*
X13459372Y-13162841D01*
X13459372Y-13162841D02*
X13440325Y-13153317D01*
X13440325Y-13153317D02*
X13411753Y-13153317D01*
X13411753Y-13153317D02*
X13392706Y-13143793D01*
X13392706Y-13143793D02*
X13383182Y-13124746D01*
X13383182Y-13124746D02*
X13383182Y-13115222D01*
X13383182Y-13115222D02*
X13392706Y-13096174D01*
X13392706Y-13096174D02*
X13411753Y-13086650D01*
X13411753Y-13086650D02*
X13440325Y-13086650D01*
X13440325Y-13086650D02*
X13459372Y-13096174D01*
X13535563Y-13296174D02*
X13545087Y-13286650D01*
X13545087Y-13286650D02*
X13564134Y-13258079D01*
X13564134Y-13258079D02*
X13573658Y-13239031D01*
X13573658Y-13239031D02*
X13583182Y-13210460D01*
X13583182Y-13210460D02*
X13592706Y-13162841D01*
X13592706Y-13162841D02*
X13592706Y-13124746D01*
X13592706Y-13124746D02*
X13583182Y-13077127D01*
X13583182Y-13077127D02*
X13573658Y-13048555D01*
X13573658Y-13048555D02*
X13564134Y-13029508D01*
X13564134Y-13029508D02*
X13545087Y-13000936D01*
X13545087Y-13000936D02*
X13535563Y-12991412D01*
D13*
X8650500Y-13337500D02*
X8760500Y-13447500D01*
X8760500Y-13337500D02*
X8650500Y-13447500D01*
X8760500Y-13392500D02*
G75*
G02*
X8650500Y-13392500I-55000J0D01*
G01*
X8650500Y-13392500D02*
G75*
G02*
X8760500Y-13392500I55000J0D01*
G01*
D11*
X9126039Y-13483984D02*
X9011753Y-13483984D01*
X9068896Y-13483984D02*
X9068896Y-13283984D01*
X9068896Y-13283984D02*
X9049848Y-13312555D01*
X9049848Y-13312555D02*
X9030801Y-13331603D01*
X9030801Y-13331603D02*
X9011753Y-13341127D01*
X9211753Y-13464936D02*
X9221277Y-13474460D01*
X9221277Y-13474460D02*
X9211753Y-13483984D01*
X9211753Y-13483984D02*
X9202229Y-13474460D01*
X9202229Y-13474460D02*
X9211753Y-13464936D01*
X9211753Y-13464936D02*
X9211753Y-13483984D01*
X9411753Y-13483984D02*
X9297467Y-13483984D01*
X9354610Y-13483984D02*
X9354610Y-13283984D01*
X9354610Y-13283984D02*
X9335563Y-13312555D01*
X9335563Y-13312555D02*
X9316515Y-13331603D01*
X9316515Y-13331603D02*
X9297467Y-13341127D01*
X9535563Y-13283984D02*
X9554610Y-13283984D01*
X9554610Y-13283984D02*
X9573658Y-13293508D01*
X9573658Y-13293508D02*
X9583182Y-13303031D01*
X9583182Y-13303031D02*
X9592705Y-13322079D01*
X9592705Y-13322079D02*
X9602229Y-13360174D01*
X9602229Y-13360174D02*
X9602229Y-13407793D01*
X9602229Y-13407793D02*
X9592705Y-13445888D01*
X9592705Y-13445888D02*
X9583182Y-13464936D01*
X9583182Y-13464936D02*
X9573658Y-13474460D01*
X9573658Y-13474460D02*
X9554610Y-13483984D01*
X9554610Y-13483984D02*
X9535563Y-13483984D01*
X9535563Y-13483984D02*
X9516515Y-13474460D01*
X9516515Y-13474460D02*
X9506991Y-13464936D01*
X9506991Y-13464936D02*
X9497467Y-13445888D01*
X9497467Y-13445888D02*
X9487944Y-13407793D01*
X9487944Y-13407793D02*
X9487944Y-13360174D01*
X9487944Y-13360174D02*
X9497467Y-13322079D01*
X9497467Y-13322079D02*
X9506991Y-13303031D01*
X9506991Y-13303031D02*
X9516515Y-13293508D01*
X9516515Y-13293508D02*
X9535563Y-13283984D01*
X9726039Y-13283984D02*
X9745086Y-13283984D01*
X9745086Y-13283984D02*
X9764134Y-13293508D01*
X9764134Y-13293508D02*
X9773658Y-13303031D01*
X9773658Y-13303031D02*
X9783182Y-13322079D01*
X9783182Y-13322079D02*
X9792705Y-13360174D01*
X9792705Y-13360174D02*
X9792705Y-13407793D01*
X9792705Y-13407793D02*
X9783182Y-13445888D01*
X9783182Y-13445888D02*
X9773658Y-13464936D01*
X9773658Y-13464936D02*
X9764134Y-13474460D01*
X9764134Y-13474460D02*
X9745086Y-13483984D01*
X9745086Y-13483984D02*
X9726039Y-13483984D01*
X9726039Y-13483984D02*
X9706991Y-13474460D01*
X9706991Y-13474460D02*
X9697467Y-13464936D01*
X9697467Y-13464936D02*
X9687944Y-13445888D01*
X9687944Y-13445888D02*
X9678420Y-13407793D01*
X9678420Y-13407793D02*
X9678420Y-13360174D01*
X9678420Y-13360174D02*
X9687944Y-13322079D01*
X9687944Y-13322079D02*
X9697467Y-13303031D01*
X9697467Y-13303031D02*
X9706991Y-13293508D01*
X9706991Y-13293508D02*
X9726039Y-13283984D01*
X9878420Y-13483984D02*
X9878420Y-13350650D01*
X9878420Y-13369698D02*
X9887944Y-13360174D01*
X9887944Y-13360174D02*
X9906991Y-13350650D01*
X9906991Y-13350650D02*
X9935563Y-13350650D01*
X9935563Y-13350650D02*
X9954610Y-13360174D01*
X9954610Y-13360174D02*
X9964134Y-13379222D01*
X9964134Y-13379222D02*
X9964134Y-13483984D01*
X9964134Y-13379222D02*
X9973658Y-13360174D01*
X9973658Y-13360174D02*
X9992705Y-13350650D01*
X9992705Y-13350650D02*
X10021277Y-13350650D01*
X10021277Y-13350650D02*
X10040325Y-13360174D01*
X10040325Y-13360174D02*
X10049848Y-13379222D01*
X10049848Y-13379222D02*
X10049848Y-13483984D01*
X10145086Y-13483984D02*
X10145086Y-13350650D01*
X10145086Y-13369698D02*
X10154610Y-13360174D01*
X10154610Y-13360174D02*
X10173658Y-13350650D01*
X10173658Y-13350650D02*
X10202229Y-13350650D01*
X10202229Y-13350650D02*
X10221277Y-13360174D01*
X10221277Y-13360174D02*
X10230801Y-13379222D01*
X10230801Y-13379222D02*
X10230801Y-13483984D01*
X10230801Y-13379222D02*
X10240325Y-13360174D01*
X10240325Y-13360174D02*
X10259372Y-13350650D01*
X10259372Y-13350650D02*
X10287944Y-13350650D01*
X10287944Y-13350650D02*
X10306991Y-13360174D01*
X10306991Y-13360174D02*
X10316515Y-13379222D01*
X10316515Y-13379222D02*
X10316515Y-13483984D01*
X10706991Y-13274460D02*
X10535563Y-13531603D01*
X10964134Y-13283984D02*
X10983182Y-13283984D01*
X10983182Y-13283984D02*
X11002229Y-13293508D01*
X11002229Y-13293508D02*
X11011753Y-13303031D01*
X11011753Y-13303031D02*
X11021277Y-13322079D01*
X11021277Y-13322079D02*
X11030801Y-13360174D01*
X11030801Y-13360174D02*
X11030801Y-13407793D01*
X11030801Y-13407793D02*
X11021277Y-13445888D01*
X11021277Y-13445888D02*
X11011753Y-13464936D01*
X11011753Y-13464936D02*
X11002229Y-13474460D01*
X11002229Y-13474460D02*
X10983182Y-13483984D01*
X10983182Y-13483984D02*
X10964134Y-13483984D01*
X10964134Y-13483984D02*
X10945087Y-13474460D01*
X10945087Y-13474460D02*
X10935563Y-13464936D01*
X10935563Y-13464936D02*
X10926039Y-13445888D01*
X10926039Y-13445888D02*
X10916515Y-13407793D01*
X10916515Y-13407793D02*
X10916515Y-13360174D01*
X10916515Y-13360174D02*
X10926039Y-13322079D01*
X10926039Y-13322079D02*
X10935563Y-13303031D01*
X10935563Y-13303031D02*
X10945087Y-13293508D01*
X10945087Y-13293508D02*
X10964134Y-13283984D01*
X11116515Y-13464936D02*
X11126039Y-13474460D01*
X11126039Y-13474460D02*
X11116515Y-13483984D01*
X11116515Y-13483984D02*
X11106991Y-13474460D01*
X11106991Y-13474460D02*
X11116515Y-13464936D01*
X11116515Y-13464936D02*
X11116515Y-13483984D01*
X11249848Y-13283984D02*
X11268896Y-13283984D01*
X11268896Y-13283984D02*
X11287944Y-13293508D01*
X11287944Y-13293508D02*
X11297467Y-13303031D01*
X11297467Y-13303031D02*
X11306991Y-13322079D01*
X11306991Y-13322079D02*
X11316515Y-13360174D01*
X11316515Y-13360174D02*
X11316515Y-13407793D01*
X11316515Y-13407793D02*
X11306991Y-13445888D01*
X11306991Y-13445888D02*
X11297467Y-13464936D01*
X11297467Y-13464936D02*
X11287944Y-13474460D01*
X11287944Y-13474460D02*
X11268896Y-13483984D01*
X11268896Y-13483984D02*
X11249848Y-13483984D01*
X11249848Y-13483984D02*
X11230801Y-13474460D01*
X11230801Y-13474460D02*
X11221277Y-13464936D01*
X11221277Y-13464936D02*
X11211753Y-13445888D01*
X11211753Y-13445888D02*
X11202229Y-13407793D01*
X11202229Y-13407793D02*
X11202229Y-13360174D01*
X11202229Y-13360174D02*
X11211753Y-13322079D01*
X11211753Y-13322079D02*
X11221277Y-13303031D01*
X11221277Y-13303031D02*
X11230801Y-13293508D01*
X11230801Y-13293508D02*
X11249848Y-13283984D01*
X11487944Y-13350650D02*
X11487944Y-13483984D01*
X11440325Y-13274460D02*
X11392706Y-13417317D01*
X11392706Y-13417317D02*
X11516515Y-13417317D01*
X11573658Y-13283984D02*
X11697467Y-13283984D01*
X11697467Y-13283984D02*
X11630801Y-13360174D01*
X11630801Y-13360174D02*
X11659372Y-13360174D01*
X11659372Y-13360174D02*
X11678420Y-13369698D01*
X11678420Y-13369698D02*
X11687944Y-13379222D01*
X11687944Y-13379222D02*
X11697467Y-13398269D01*
X11697467Y-13398269D02*
X11697467Y-13445888D01*
X11697467Y-13445888D02*
X11687944Y-13464936D01*
X11687944Y-13464936D02*
X11678420Y-13474460D01*
X11678420Y-13474460D02*
X11659372Y-13483984D01*
X11659372Y-13483984D02*
X11602229Y-13483984D01*
X11602229Y-13483984D02*
X11583182Y-13474460D01*
X11583182Y-13474460D02*
X11573658Y-13464936D01*
X11764134Y-13283984D02*
X11887944Y-13283984D01*
X11887944Y-13283984D02*
X11821277Y-13360174D01*
X11821277Y-13360174D02*
X11849848Y-13360174D01*
X11849848Y-13360174D02*
X11868896Y-13369698D01*
X11868896Y-13369698D02*
X11878420Y-13379222D01*
X11878420Y-13379222D02*
X11887944Y-13398269D01*
X11887944Y-13398269D02*
X11887944Y-13445888D01*
X11887944Y-13445888D02*
X11878420Y-13464936D01*
X11878420Y-13464936D02*
X11868896Y-13474460D01*
X11868896Y-13474460D02*
X11849848Y-13483984D01*
X11849848Y-13483984D02*
X11792706Y-13483984D01*
X11792706Y-13483984D02*
X11773658Y-13474460D01*
X11773658Y-13474460D02*
X11764134Y-13464936D01*
X11964134Y-13283984D02*
X11964134Y-13322079D01*
X12040325Y-13283984D02*
X12040325Y-13322079D01*
X12335563Y-13560174D02*
X12326039Y-13550650D01*
X12326039Y-13550650D02*
X12306991Y-13522079D01*
X12306991Y-13522079D02*
X12297468Y-13503031D01*
X12297468Y-13503031D02*
X12287944Y-13474460D01*
X12287944Y-13474460D02*
X12278420Y-13426841D01*
X12278420Y-13426841D02*
X12278420Y-13388746D01*
X12278420Y-13388746D02*
X12287944Y-13341127D01*
X12287944Y-13341127D02*
X12297468Y-13312555D01*
X12297468Y-13312555D02*
X12306991Y-13293508D01*
X12306991Y-13293508D02*
X12326039Y-13264936D01*
X12326039Y-13264936D02*
X12335563Y-13255412D01*
X12392706Y-13283984D02*
X12526039Y-13283984D01*
X12526039Y-13283984D02*
X12440325Y-13483984D01*
X12754610Y-13483984D02*
X12754610Y-13283984D01*
X12840325Y-13483984D02*
X12840325Y-13379222D01*
X12840325Y-13379222D02*
X12830801Y-13360174D01*
X12830801Y-13360174D02*
X12811753Y-13350650D01*
X12811753Y-13350650D02*
X12783182Y-13350650D01*
X12783182Y-13350650D02*
X12764134Y-13360174D01*
X12764134Y-13360174D02*
X12754610Y-13369698D01*
X12964134Y-13483984D02*
X12945087Y-13474460D01*
X12945087Y-13474460D02*
X12935563Y-13464936D01*
X12935563Y-13464936D02*
X12926039Y-13445888D01*
X12926039Y-13445888D02*
X12926039Y-13388746D01*
X12926039Y-13388746D02*
X12935563Y-13369698D01*
X12935563Y-13369698D02*
X12945087Y-13360174D01*
X12945087Y-13360174D02*
X12964134Y-13350650D01*
X12964134Y-13350650D02*
X12992706Y-13350650D01*
X12992706Y-13350650D02*
X13011753Y-13360174D01*
X13011753Y-13360174D02*
X13021277Y-13369698D01*
X13021277Y-13369698D02*
X13030801Y-13388746D01*
X13030801Y-13388746D02*
X13030801Y-13445888D01*
X13030801Y-13445888D02*
X13021277Y-13464936D01*
X13021277Y-13464936D02*
X13011753Y-13474460D01*
X13011753Y-13474460D02*
X12992706Y-13483984D01*
X12992706Y-13483984D02*
X12964134Y-13483984D01*
X13145087Y-13483984D02*
X13126039Y-13474460D01*
X13126039Y-13474460D02*
X13116515Y-13455412D01*
X13116515Y-13455412D02*
X13116515Y-13283984D01*
X13297468Y-13474460D02*
X13278420Y-13483984D01*
X13278420Y-13483984D02*
X13240325Y-13483984D01*
X13240325Y-13483984D02*
X13221277Y-13474460D01*
X13221277Y-13474460D02*
X13211753Y-13455412D01*
X13211753Y-13455412D02*
X13211753Y-13379222D01*
X13211753Y-13379222D02*
X13221277Y-13360174D01*
X13221277Y-13360174D02*
X13240325Y-13350650D01*
X13240325Y-13350650D02*
X13278420Y-13350650D01*
X13278420Y-13350650D02*
X13297468Y-13360174D01*
X13297468Y-13360174D02*
X13306991Y-13379222D01*
X13306991Y-13379222D02*
X13306991Y-13398269D01*
X13306991Y-13398269D02*
X13211753Y-13417317D01*
X13383182Y-13474460D02*
X13402230Y-13483984D01*
X13402230Y-13483984D02*
X13440325Y-13483984D01*
X13440325Y-13483984D02*
X13459372Y-13474460D01*
X13459372Y-13474460D02*
X13468896Y-13455412D01*
X13468896Y-13455412D02*
X13468896Y-13445888D01*
X13468896Y-13445888D02*
X13459372Y-13426841D01*
X13459372Y-13426841D02*
X13440325Y-13417317D01*
X13440325Y-13417317D02*
X13411753Y-13417317D01*
X13411753Y-13417317D02*
X13392706Y-13407793D01*
X13392706Y-13407793D02*
X13383182Y-13388746D01*
X13383182Y-13388746D02*
X13383182Y-13379222D01*
X13383182Y-13379222D02*
X13392706Y-13360174D01*
X13392706Y-13360174D02*
X13411753Y-13350650D01*
X13411753Y-13350650D02*
X13440325Y-13350650D01*
X13440325Y-13350650D02*
X13459372Y-13360174D01*
X13535563Y-13560174D02*
X13545087Y-13550650D01*
X13545087Y-13550650D02*
X13564134Y-13522079D01*
X13564134Y-13522079D02*
X13573658Y-13503031D01*
X13573658Y-13503031D02*
X13583182Y-13474460D01*
X13583182Y-13474460D02*
X13592706Y-13426841D01*
X13592706Y-13426841D02*
X13592706Y-13388746D01*
X13592706Y-13388746D02*
X13583182Y-13341127D01*
X13583182Y-13341127D02*
X13573658Y-13312555D01*
X13573658Y-13312555D02*
X13564134Y-13293508D01*
X13564134Y-13293508D02*
X13545087Y-13264936D01*
X13545087Y-13264936D02*
X13535563Y-13255412D01*
M02*
